<svg width="30" height="30" viewBox="0 0 30 30" fill="none" xmlns="http://www.w3.org/2000/svg">
<path d="M23.3425 30C23.0994 29.9997 22.8601 29.9376 22.645 29.8191L14.9993 25.6039L7.35371 29.8191C7.10599 29.9557 6.82677 30.0169 6.54762 29.9957C6.26847 29.9746 6.00052 29.872 5.77408 29.6995C5.54764 29.527 5.37173 29.2916 5.26625 29.0198C5.16077 28.7479 5.12991 28.4506 5.17718 28.1613L6.6367 19.2339L0.452104 12.9111C0.251985 12.7062 0.110479 12.4467 0.0435641 12.162C-0.0233511 11.8773 -0.0130101 11.5786 0.0734194 11.2996C0.159849 11.0207 0.318924 10.7727 0.532683 10.5836C0.746442 10.3945 1.00637 10.2718 1.28312 10.2294L9.83175 8.92707L13.6538 0.804916C13.792 0.559719 13.9888 0.35653 14.2248 0.215382C14.4607 0.0742333 14.7277 0 14.9993 0C15.271 0 15.5379 0.0742333 15.7739 0.215382C16.0098 0.35653 16.2066 0.559719 16.3449 0.804916L20.1669 8.92707L28.7155 10.2294C28.9926 10.2716 29.2529 10.3942 29.4669 10.5834C29.6809 10.7727 29.8402 11.0209 29.9267 11.3001C30.0131 11.5793 30.0234 11.8783 29.9562 12.1633C29.889 12.4483 29.7471 12.7078 29.5466 12.9127L23.362 19.2339L24.8215 28.1613C24.8584 28.3872 24.8478 28.6187 24.7905 28.8398C24.7332 29.0608 24.6305 29.2661 24.4897 29.4412C24.3488 29.6164 24.1731 29.7571 23.975 29.8536C23.7768 29.9501 23.561 30.0001 23.3425 30Z" fill="black"/>
</svg>
