<svg width="118" height="30" viewBox="0 0 118 30" fill="none" xmlns="http://www.w3.org/2000/svg">
<path d="M0 10C0 4.47715 4.47715 0 10 0H108C113.523 0 118 4.47715 118 10V20C118 25.5228 113.523 30 108 30H10C4.47715 30 0 25.5228 0 20V10Z" fill="#52EE44" fill-opacity="0.89"/>
<g filter="url(#filter0_b_848_803)">
<path d="M20.3395 10.4531C20.2732 9.83286 19.9938 9.34991 19.5014 9.00426C19.0137 8.65862 18.3793 8.4858 17.598 8.4858C17.0488 8.4858 16.5777 8.56866 16.1847 8.73438C15.7917 8.90009 15.491 9.125 15.2827 9.40909C15.0743 9.69318 14.9678 10.0175 14.9631 10.3821C14.9631 10.6851 15.0317 10.9479 15.169 11.1705C15.3111 11.393 15.5028 11.5824 15.7443 11.7386C15.9858 11.8902 16.2533 12.018 16.5469 12.1222C16.8404 12.2263 17.1364 12.3139 17.4347 12.3849L18.7983 12.7259C19.3475 12.8537 19.8755 13.0265 20.3821 13.2443C20.8935 13.4621 21.3504 13.7367 21.7528 14.0682C22.16 14.3996 22.482 14.7997 22.7188 15.2685C22.9555 15.7372 23.0739 16.2865 23.0739 16.9162C23.0739 17.7685 22.8561 18.5189 22.4205 19.1676C21.9848 19.8116 21.3551 20.3158 20.5312 20.6804C19.7121 21.0402 18.7202 21.2202 17.5554 21.2202C16.4238 21.2202 15.4413 21.045 14.608 20.6946C13.7794 20.3442 13.1307 19.8329 12.6619 19.1605C12.1979 18.4882 11.947 17.669 11.9091 16.7031H14.5014C14.5393 17.2098 14.6955 17.6312 14.9702 17.9673C15.2448 18.3035 15.6023 18.5545 16.0426 18.7202C16.4877 18.8859 16.9848 18.9688 17.5341 18.9688C18.107 18.9688 18.6089 18.8835 19.0398 18.7131C19.4754 18.5379 19.8163 18.2964 20.0625 17.9886C20.3087 17.6761 20.4342 17.3116 20.4389 16.8949C20.4342 16.5161 20.3229 16.2036 20.1051 15.9574C19.8873 15.7064 19.5819 15.4981 19.1889 15.3324C18.8007 15.1619 18.3461 15.0104 17.8253 14.8778L16.1705 14.4517C14.9725 14.1439 14.0256 13.6776 13.3295 13.0526C12.6383 12.4228 12.2926 11.5871 12.2926 10.5455C12.2926 9.68845 12.5246 8.93797 12.9886 8.29403C13.4574 7.65009 14.0942 7.15057 14.8991 6.79545C15.7041 6.43561 16.6155 6.25568 17.6335 6.25568C18.6657 6.25568 19.5701 6.43561 20.3466 6.79545C21.1278 7.15057 21.741 7.64536 22.1861 8.27983C22.6312 8.90956 22.8608 9.634 22.875 10.4531H20.3395ZM28.4485 21.2202C27.7572 21.2202 27.1346 21.0971 26.5806 20.8509C26.0314 20.5999 25.5958 20.2306 25.2738 19.7429C24.9566 19.2552 24.7979 18.6539 24.7979 17.9389C24.7979 17.3234 24.9116 16.8144 25.1388 16.4119C25.3661 16.0095 25.6763 15.6875 26.0692 15.446C26.4622 15.2045 26.9049 15.0223 27.3974 14.8991C27.8945 14.7713 28.4083 14.679 28.9386 14.6222C29.5778 14.5559 30.0962 14.4967 30.494 14.4446C30.8917 14.3878 31.1805 14.3026 31.3604 14.1889C31.5451 14.0705 31.6374 13.8883 31.6374 13.642V13.5994C31.6374 13.0644 31.4788 12.6501 31.1616 12.3565C30.8443 12.063 30.3874 11.9162 29.7908 11.9162C29.1611 11.9162 28.6616 12.0535 28.2923 12.3281C27.9277 12.6027 27.6815 12.9271 27.5536 13.3011L25.1531 12.9602C25.3424 12.2973 25.6549 11.7434 26.0906 11.2983C26.5262 10.8485 27.0588 10.5123 27.6886 10.2898C28.3183 10.0625 29.0143 9.94886 29.7766 9.94886C30.3022 9.94886 30.8254 10.0104 31.3462 10.1335C31.8671 10.2566 32.3429 10.4602 32.7738 10.7443C33.2047 11.0237 33.5503 11.4048 33.8107 11.8878C34.0759 12.3707 34.2085 12.9744 34.2085 13.6989V21H31.7369V19.5014H31.6516C31.4954 19.8045 31.2752 20.0885 30.9911 20.3537C30.7118 20.6141 30.359 20.8248 29.9329 20.9858C29.5115 21.142 29.0167 21.2202 28.4485 21.2202ZM29.1161 19.331C29.6322 19.331 30.0797 19.2292 30.4585 19.0256C30.8372 18.8172 31.1284 18.5426 31.332 18.2017C31.5404 17.8608 31.6445 17.4891 31.6445 17.0866V15.8011C31.564 15.8674 31.4267 15.929 31.2326 15.9858C31.0432 16.0426 30.8301 16.0923 30.5934 16.1349C30.3567 16.1776 30.1223 16.2154 29.8903 16.2486C29.6583 16.2817 29.457 16.3101 29.2866 16.3338C28.9031 16.3859 28.5598 16.4711 28.2567 16.5895C27.9537 16.7079 27.7146 16.8736 27.5394 17.0866C27.3642 17.295 27.2766 17.5649 27.2766 17.8963C27.2766 18.3698 27.4495 18.7273 27.7951 18.9688C28.1407 19.2102 28.5811 19.331 29.1161 19.331ZM46.1474 10.0909L42.2624 21H39.4215L35.5366 10.0909H38.2781L40.7852 18.1946H40.8988L43.413 10.0909H46.1474ZM52.3849 21.2131C51.2912 21.2131 50.3466 20.9858 49.5511 20.5312C48.7604 20.072 48.152 19.4233 47.7259 18.5852C47.2997 17.7424 47.0866 16.7505 47.0866 15.6094C47.0866 14.4872 47.2997 13.5024 47.7259 12.6548C48.1567 11.8026 48.758 11.1397 49.5298 10.6662C50.3016 10.188 51.2083 9.94886 52.25 9.94886C52.9223 9.94886 53.5568 10.0578 54.1534 10.2756C54.7547 10.4886 55.285 10.8201 55.7443 11.2699C56.2083 11.7197 56.5729 12.2926 56.8381 12.9886C57.1032 13.6799 57.2358 14.5038 57.2358 15.4602V16.2486H48.294V14.5156H54.7713C54.7666 14.0232 54.66 13.5852 54.4517 13.2017C54.2434 12.8134 53.9522 12.508 53.5781 12.2855C53.2088 12.063 52.7779 11.9517 52.2855 11.9517C51.7599 11.9517 51.2983 12.0795 50.9006 12.3352C50.5028 12.5862 50.1927 12.9176 49.9702 13.3295C49.7524 13.7367 49.6411 14.1842 49.6364 14.6719V16.1847C49.6364 16.8191 49.7524 17.3636 49.9844 17.8182C50.2164 18.268 50.5407 18.6136 50.9574 18.8551C51.3741 19.0919 51.8617 19.2102 52.4205 19.2102C52.7945 19.2102 53.133 19.1581 53.4361 19.054C53.7391 18.9451 54.0019 18.7865 54.2244 18.5781C54.447 18.3698 54.6151 18.1117 54.7287 17.804L57.1293 18.0739C56.9777 18.7083 56.6889 19.2623 56.2628 19.7358C55.8414 20.2045 55.3016 20.5691 54.6435 20.8295C53.9853 21.0852 53.2325 21.2131 52.3849 21.2131ZM63.4592 21.1918C62.6022 21.1918 61.8351 20.9716 61.158 20.5312C60.4809 20.0909 59.9459 19.4517 59.5529 18.6136C59.1599 17.7756 58.9634 16.7576 58.9634 15.5597C58.9634 14.3475 59.1623 13.3248 59.56 12.4915C59.9625 11.6534 60.5046 11.0213 61.1864 10.5952C61.8683 10.1643 62.6282 9.94886 63.4663 9.94886C64.1055 9.94886 64.631 10.0578 65.043 10.2756C65.4549 10.4886 65.7816 10.7467 66.0231 11.0497C66.2646 11.348 66.4516 11.6297 66.5842 11.8949H66.6907V6.45455H69.2688V21H66.7404V19.2812H66.5842C66.4516 19.5464 66.2598 19.8281 66.0089 20.1264C65.7579 20.42 65.4265 20.6709 65.0146 20.8793C64.6026 21.0876 64.0842 21.1918 63.4592 21.1918ZM64.1765 19.0824C64.721 19.0824 65.185 18.9356 65.5685 18.642C65.9521 18.3437 66.2433 17.9295 66.4421 17.3991C66.641 16.8688 66.7404 16.2509 66.7404 15.5455C66.7404 14.84 66.641 14.2268 66.4421 13.706C66.248 13.1851 65.9592 12.7803 65.5756 12.4915C65.1969 12.2027 64.7305 12.0582 64.1765 12.0582C63.6036 12.0582 63.1254 12.2074 62.7418 12.5057C62.3583 12.804 62.0695 13.2159 61.8754 13.7415C61.6812 14.267 61.5842 14.8684 61.5842 15.5455C61.5842 16.2273 61.6812 16.8357 61.8754 17.3707C62.0742 17.901 62.3654 18.3201 62.7489 18.6278C63.1372 18.9309 63.613 19.0824 64.1765 19.0824Z" fill="white"/>
</g>
<path d="M88.0896 21.0945L81.1267 14.1687C81.0866 14.1288 81.0547 14.0813 81.0329 14.029C81.0112 13.9767 81 13.9206 81 13.864C81 13.8074 81.0112 13.7513 81.0329 13.699C81.0547 13.6467 81.0866 13.5993 81.1267 13.5593L82.8845 11.7996C83.0525 11.6316 83.324 11.6316 83.4919 11.7996L88.0759 16.3562C88.2439 16.5242 88.5173 16.5222 88.6853 16.3542L98.8142 6.12769C98.9822 5.95776 99.2556 5.95776 99.4255 6.12573L101.185 7.8855C101.353 8.05347 101.353 8.32495 101.187 8.49292L90.1521 19.6277L90.1541 19.6296L88.699 21.0925C88.531 21.2605 88.2576 21.2605 88.0896 21.0945Z" fill="white" stroke="white" stroke-width="1.17188" stroke-miterlimit="10"/>
<defs>
<filter id="filter0_b_848_803" x="7.90909" y="2.25586" width="65.3597" height="22.9639" filterUnits="userSpaceOnUse" color-interpolation-filters="sRGB">
<feFlood flood-opacity="0" result="BackgroundImageFix"/>
<feGaussianBlur in="BackgroundImageFix" stdDeviation="2"/>
<feComposite in2="SourceAlpha" operator="in" result="effect1_backgroundBlur_848_803"/>
<feBlend mode="normal" in="SourceGraphic" in2="effect1_backgroundBlur_848_803" result="shape"/>
</filter>
</defs>
</svg>
