<svg width="236" height="39" viewBox="0 0 236 39" fill="none" xmlns="http://www.w3.org/2000/svg">
<path d="M51.8182 7.72727H55.1818L63.0909 27.0455H63.3636L71.2727 7.72727H74.6364V31H72V13.3182H71.7727L64.5 31H61.9545L54.6818 13.3182H54.4545V31H51.8182V7.72727ZM81.6506 37.5455C81.196 37.5455 80.7907 37.5076 80.4347 37.4318C80.0786 37.3636 79.8324 37.2955 79.696 37.2273L80.3778 34.8636C81.0294 35.0303 81.6051 35.0909 82.1051 35.0455C82.6051 35 83.0483 34.7765 83.4347 34.375C83.8286 33.9811 84.1884 33.3409 84.5142 32.4545L85.0142 31.0909L78.5597 13.5455H81.4688L86.2869 27.4545H86.4688L91.2869 13.5455H94.196L86.7869 33.5455C86.4536 34.447 86.0407 35.1932 85.5483 35.7841C85.0559 36.3826 84.4839 36.8258 83.8324 37.1136C83.1884 37.4015 82.4612 37.5455 81.6506 37.5455ZM106.736 31V13.5455H109.418V31H106.736ZM108.099 10.6364C107.577 10.6364 107.126 10.4583 106.747 10.1023C106.376 9.74621 106.19 9.31818 106.19 8.81818C106.19 8.31818 106.376 7.89015 106.747 7.53409C107.126 7.17803 107.577 7 108.099 7C108.622 7 109.069 7.17803 109.44 7.53409C109.819 7.89015 110.009 8.31818 110.009 8.81818C110.009 9.31818 109.819 9.74621 109.44 10.1023C109.069 10.4583 108.622 10.6364 108.099 10.6364ZM117.011 20.5V31H114.33V13.5455H116.92V16.2727H117.148C117.557 15.3864 118.178 14.6742 119.011 14.1364C119.845 13.5909 120.92 13.3182 122.239 13.3182C123.42 13.3182 124.455 13.5606 125.341 14.0455C126.227 14.5227 126.917 15.25 127.409 16.2273C127.902 17.197 128.148 18.4242 128.148 19.9091V31H125.466V20.0909C125.466 18.7197 125.11 17.6515 124.398 16.8864C123.686 16.1136 122.708 15.7273 121.466 15.7273C120.61 15.7273 119.845 15.9129 119.17 16.2841C118.504 16.6553 117.977 17.197 117.591 17.9091C117.205 18.6212 117.011 19.4848 117.011 20.5ZM140.639 13.5455V15.8182H131.594V13.5455H140.639ZM134.23 9.36364H136.912V26C136.912 26.7576 137.022 27.3258 137.241 27.7045C137.469 28.0758 137.757 28.3258 138.105 28.4545C138.461 28.5758 138.836 28.6364 139.23 28.6364C139.526 28.6364 139.768 28.6212 139.957 28.5909C140.147 28.553 140.298 28.5227 140.412 28.5L140.957 30.9091C140.776 30.9773 140.522 31.0455 140.196 31.1136C139.87 31.1894 139.457 31.2273 138.957 31.2273C138.2 31.2273 137.457 31.0644 136.73 30.7386C136.01 30.4129 135.412 29.9167 134.935 29.25C134.465 28.5833 134.23 27.7424 134.23 26.7273V9.36364ZM151.804 31.3636C150.122 31.3636 148.671 30.9924 147.452 30.25C146.24 29.5 145.304 28.4545 144.645 27.1136C143.993 25.7652 143.668 24.197 143.668 22.4091C143.668 20.6212 143.993 19.0455 144.645 17.6818C145.304 16.3106 146.221 15.2424 147.395 14.4773C148.577 13.7045 149.955 13.3182 151.531 13.3182C152.44 13.3182 153.338 13.4697 154.224 13.7727C155.111 14.0758 155.918 14.5682 156.645 15.25C157.372 15.9242 157.952 16.8182 158.384 17.9318C158.815 19.0455 159.031 20.4167 159.031 22.0455V23.1818H145.577V20.8636H156.304C156.304 19.8788 156.107 19 155.713 18.2273C155.327 17.4545 154.774 16.8447 154.054 16.3977C153.342 15.9508 152.501 15.7273 151.531 15.7273C150.463 15.7273 149.539 15.9924 148.759 16.5227C147.986 17.0455 147.391 17.7273 146.974 18.5682C146.558 19.4091 146.349 20.3106 146.349 21.2727V22.8182C146.349 24.1364 146.577 25.2538 147.031 26.1705C147.493 27.0795 148.134 27.7727 148.952 28.25C149.77 28.7197 150.721 28.9545 151.804 28.9545C152.509 28.9545 153.145 28.8561 153.713 28.6591C154.289 28.4545 154.785 28.1515 155.202 27.75C155.618 27.3409 155.94 26.8333 156.168 26.2273L158.759 26.9545C158.486 27.8333 158.027 28.6061 157.384 29.2727C156.74 29.9318 155.944 30.447 154.997 30.8182C154.05 31.1818 152.986 31.3636 151.804 31.3636ZM163.111 31V13.5455H165.702V16.1818H165.884C166.202 15.3182 166.777 14.6174 167.611 14.0795C168.444 13.5417 169.384 13.2727 170.429 13.2727C170.626 13.2727 170.872 13.2765 171.168 13.2841C171.463 13.2917 171.687 13.303 171.838 13.3182V16.0455C171.747 16.0227 171.539 15.9886 171.213 15.9432C170.895 15.8902 170.558 15.8636 170.202 15.8636C169.353 15.8636 168.596 16.0417 167.929 16.3977C167.27 16.7462 166.747 17.2311 166.361 17.8523C165.982 18.4659 165.793 19.1667 165.793 19.9545V31H163.111ZM181.804 31.3636C180.122 31.3636 178.671 30.9924 177.452 30.25C176.24 29.5 175.304 28.4545 174.645 27.1136C173.993 25.7652 173.668 24.197 173.668 22.4091C173.668 20.6212 173.993 19.0455 174.645 17.6818C175.304 16.3106 176.221 15.2424 177.395 14.4773C178.577 13.7045 179.955 13.3182 181.531 13.3182C182.44 13.3182 183.338 13.4697 184.224 13.7727C185.111 14.0758 185.918 14.5682 186.645 15.25C187.372 15.9242 187.952 16.8182 188.384 17.9318C188.815 19.0455 189.031 20.4167 189.031 22.0455V23.1818H175.577V20.8636H186.304C186.304 19.8788 186.107 19 185.713 18.2273C185.327 17.4545 184.774 16.8447 184.054 16.3977C183.342 15.9508 182.501 15.7273 181.531 15.7273C180.463 15.7273 179.539 15.9924 178.759 16.5227C177.986 17.0455 177.391 17.7273 176.974 18.5682C176.558 19.4091 176.349 20.3106 176.349 21.2727V22.8182C176.349 24.1364 176.577 25.2538 177.031 26.1705C177.493 27.0795 178.134 27.7727 178.952 28.25C179.77 28.7197 180.721 28.9545 181.804 28.9545C182.509 28.9545 183.145 28.8561 183.713 28.6591C184.289 28.4545 184.785 28.1515 185.202 27.75C185.618 27.3409 185.94 26.8333 186.168 26.2273L188.759 26.9545C188.486 27.8333 188.027 28.6061 187.384 29.2727C186.74 29.9318 185.944 30.447 184.997 30.8182C184.05 31.1818 182.986 31.3636 181.804 31.3636ZM205.474 17.4545L203.065 18.1364C202.914 17.7348 202.69 17.3447 202.395 16.9659C202.107 16.5795 201.713 16.2614 201.213 16.0114C200.713 15.7614 200.073 15.6364 199.293 15.6364C198.224 15.6364 197.334 15.8826 196.622 16.375C195.918 16.8598 195.565 17.4773 195.565 18.2273C195.565 18.8939 195.808 19.4205 196.293 19.8068C196.777 20.1932 197.535 20.5152 198.565 20.7727L201.156 21.4091C202.717 21.7879 203.88 22.3674 204.645 23.1477C205.41 23.9205 205.793 24.9167 205.793 26.1364C205.793 27.1364 205.505 28.0303 204.929 28.8182C204.361 29.6061 203.565 30.2273 202.543 30.6818C201.52 31.1364 200.33 31.3636 198.974 31.3636C197.194 31.3636 195.721 30.9773 194.554 30.2045C193.387 29.4318 192.649 28.303 192.338 26.8182L194.884 26.1818C195.126 27.1212 195.584 27.8258 196.259 28.2955C196.94 28.7652 197.83 29 198.929 29C200.179 29 201.171 28.7348 201.906 28.2045C202.649 27.6667 203.02 27.0227 203.02 26.2727C203.02 25.6667 202.808 25.1591 202.384 24.75C201.959 24.3333 201.308 24.0227 200.429 23.8182L197.52 23.1364C195.921 22.7576 194.747 22.1705 193.997 21.375C193.255 20.572 192.884 19.5682 192.884 18.3636C192.884 17.3788 193.16 16.5076 193.713 15.75C194.274 14.9924 195.035 14.3977 195.997 13.9659C196.967 13.5341 198.065 13.3182 199.293 13.3182C201.02 13.3182 202.376 13.697 203.361 14.4545C204.353 15.2121 205.058 16.2121 205.474 17.4545ZM217.42 13.5455V15.8182H208.375V13.5455H217.42ZM211.011 9.36364H213.693V26C213.693 26.7576 213.803 27.3258 214.023 27.7045C214.25 28.0758 214.538 28.3258 214.886 28.4545C215.242 28.5758 215.617 28.6364 216.011 28.6364C216.307 28.6364 216.549 28.6212 216.739 28.5909C216.928 28.553 217.08 28.5227 217.193 28.5L217.739 30.9091C217.557 30.9773 217.303 31.0455 216.977 31.1136C216.652 31.1894 216.239 31.2273 215.739 31.2273C214.981 31.2273 214.239 31.0644 213.511 30.7386C212.792 30.4129 212.193 29.9167 211.716 29.25C211.246 28.5833 211.011 27.7424 211.011 26.7273V9.36364ZM233.506 17.4545L231.097 18.1364C230.945 17.7348 230.722 17.3447 230.426 16.9659C230.138 16.5795 229.744 16.2614 229.244 16.0114C228.744 15.7614 228.104 15.6364 227.324 15.6364C226.256 15.6364 225.366 15.8826 224.653 16.375C223.949 16.8598 223.597 17.4773 223.597 18.2273C223.597 18.8939 223.839 19.4205 224.324 19.8068C224.809 20.1932 225.566 20.5152 226.597 20.7727L229.188 21.4091C230.748 21.7879 231.911 22.3674 232.676 23.1477C233.441 23.9205 233.824 24.9167 233.824 26.1364C233.824 27.1364 233.536 28.0303 232.96 28.8182C232.392 29.6061 231.597 30.2273 230.574 30.6818C229.551 31.1364 228.362 31.3636 227.006 31.3636C225.225 31.3636 223.752 30.9773 222.585 30.2045C221.419 29.4318 220.68 28.303 220.369 26.8182L222.915 26.1818C223.157 27.1212 223.616 27.8258 224.29 28.2955C224.972 28.7652 225.862 29 226.96 29C228.21 29 229.203 28.7348 229.938 28.2045C230.68 27.6667 231.051 27.0227 231.051 26.2727C231.051 25.6667 230.839 25.1591 230.415 24.75C229.991 24.3333 229.339 24.0227 228.46 23.8182L225.551 23.1364C223.953 22.7576 222.778 22.1705 222.028 21.375C221.286 20.572 220.915 19.5682 220.915 18.3636C220.915 17.3788 221.191 16.5076 221.744 15.75C222.305 14.9924 223.066 14.3977 224.028 13.9659C224.998 13.5341 226.097 13.3182 227.324 13.3182C229.051 13.3182 230.407 13.697 231.392 14.4545C232.384 15.2121 233.089 16.2121 233.506 17.4545Z" fill="black"/>
<path d="M23.3425 34C23.0994 33.9997 22.8601 33.9376 22.645 33.8191L14.9993 29.6039L7.35371 33.8191C7.10599 33.9557 6.82677 34.0169 6.54762 33.9957C6.26847 33.9746 6.00052 33.872 5.77408 33.6995C5.54764 33.527 5.37173 33.2916 5.26625 33.0198C5.16077 32.7479 5.12991 32.4506 5.17718 32.1613L6.6367 23.2339L0.452104 16.9111C0.251985 16.7062 0.110479 16.4467 0.0435641 16.162C-0.0233511 15.8773 -0.0130101 15.5786 0.0734194 15.2996C0.159849 15.0207 0.318924 14.7727 0.532683 14.5836C0.746442 14.3945 1.00637 14.2718 1.28312 14.2294L9.83175 12.9271L13.6538 4.80492C13.792 4.55972 13.9888 4.35653 14.2248 4.21538C14.4607 4.07423 14.7277 4 14.9993 4C15.271 4 15.5379 4.07423 15.7739 4.21538C16.0098 4.35653 16.2066 4.55972 16.3449 4.80492L20.1669 12.9271L28.7155 14.2294C28.9926 14.2716 29.2529 14.3942 29.4669 14.5834C29.6809 14.7727 29.8402 15.0209 29.9267 15.3001C30.0131 15.5793 30.0234 15.8783 29.9562 16.1633C29.889 16.4483 29.7471 16.7078 29.5466 16.9127L23.362 23.2339L24.8215 32.1613C24.8584 32.3872 24.8478 32.6187 24.7905 32.8398C24.7332 33.0608 24.6305 33.2661 24.4897 33.4412C24.3488 33.6164 24.1731 33.7571 23.975 33.8536C23.7768 33.9501 23.561 34.0001 23.3425 34Z" fill="black"/>
</svg>
