<svg width="186" height="39" viewBox="0 0 186 39" fill="none" xmlns="http://www.w3.org/2000/svg">
<path d="M50.7727 31H47.8182L56.3636 7.72727H59.2727L67.8182 31H64.8636L57.9091 11.4091H57.7273L50.7727 31ZM51.8636 21.9091H63.7727V24.4091H51.8636V21.9091ZM73.7614 7.72727V31H71.0795V7.72727H73.7614ZM81.3551 7.72727V31H78.6733V7.72727H81.3551ZM102.858 13.5455V15.8182H93.8125V13.5455H102.858ZM96.4489 9.36364H99.1307V26C99.1307 26.7576 99.2405 27.3258 99.4602 27.7045C99.6875 28.0758 99.9754 28.3258 100.324 28.4545C100.68 28.5758 101.055 28.6364 101.449 28.6364C101.744 28.6364 101.987 28.6212 102.176 28.5909C102.366 28.553 102.517 28.5227 102.631 28.5L103.176 30.9091C102.994 30.9773 102.741 31.0455 102.415 31.1136C102.089 31.1894 101.676 31.2273 101.176 31.2273C100.419 31.2273 99.6761 31.0644 98.9489 30.7386C98.2292 30.4129 97.6307 29.9167 97.1534 29.25C96.6837 28.5833 96.4489 27.7424 96.4489 26.7273V9.36364ZM113.795 31.3636C112.22 31.3636 110.837 30.9886 109.648 30.2386C108.466 29.4886 107.542 28.4394 106.875 27.0909C106.216 25.7424 105.886 24.1667 105.886 22.3636C105.886 20.5455 106.216 18.9583 106.875 17.6023C107.542 16.2462 108.466 15.1932 109.648 14.4432C110.837 13.6932 112.22 13.3182 113.795 13.3182C115.371 13.3182 116.75 13.6932 117.932 14.4432C119.121 15.1932 120.045 16.2462 120.705 17.6023C121.371 18.9583 121.705 20.5455 121.705 22.3636C121.705 24.1667 121.371 25.7424 120.705 27.0909C120.045 28.4394 119.121 29.4886 117.932 30.2386C116.75 30.9886 115.371 31.3636 113.795 31.3636ZM113.795 28.9545C114.992 28.9545 115.977 28.6477 116.75 28.0341C117.523 27.4205 118.095 26.6136 118.466 25.6136C118.837 24.6136 119.023 23.5303 119.023 22.3636C119.023 21.197 118.837 20.1098 118.466 19.1023C118.095 18.0947 117.523 17.2803 116.75 16.6591C115.977 16.0379 114.992 15.7273 113.795 15.7273C112.598 15.7273 111.614 16.0379 110.841 16.6591C110.068 17.2803 109.496 18.0947 109.125 19.1023C108.754 20.1098 108.568 21.197 108.568 22.3636C108.568 23.5303 108.754 24.6136 109.125 25.6136C109.496 26.6136 110.068 27.4205 110.841 28.0341C111.614 28.6477 112.598 28.9545 113.795 28.9545ZM125.798 37.5455V13.5455H128.389V16.3182H128.707C128.904 16.0152 129.177 15.6288 129.526 15.1591C129.882 14.6818 130.389 14.2576 131.048 13.8864C131.715 13.5076 132.616 13.3182 133.753 13.3182C135.223 13.3182 136.518 13.6856 137.639 14.4205C138.76 15.1553 139.635 16.197 140.264 17.5455C140.893 18.8939 141.207 20.4848 141.207 22.3182C141.207 24.1667 140.893 25.7689 140.264 27.125C139.635 28.4735 138.764 29.5189 137.651 30.2614C136.537 30.9962 135.253 31.3636 133.798 31.3636C132.677 31.3636 131.779 31.178 131.105 30.8068C130.431 30.428 129.912 30 129.548 29.5227C129.185 29.0379 128.904 28.6364 128.707 28.3182H128.48V37.5455H125.798ZM128.435 22.2727C128.435 23.5909 128.628 24.7538 129.014 25.7614C129.401 26.7614 129.965 27.5455 130.707 28.1136C131.45 28.6742 132.359 28.9545 133.435 28.9545C134.556 28.9545 135.491 28.6591 136.241 28.0682C136.999 27.4697 137.567 26.6667 137.946 25.6591C138.332 24.6439 138.526 23.5152 138.526 22.2727C138.526 21.0455 138.336 19.9394 137.957 18.9545C137.586 17.9621 137.022 17.178 136.264 16.6023C135.514 16.0189 134.571 15.7273 133.435 15.7273C132.344 15.7273 131.427 16.0038 130.685 16.5568C129.942 17.1023 129.382 17.8674 129.003 18.8523C128.624 19.8295 128.435 20.9697 128.435 22.2727ZM145.298 31V13.5455H147.98V31H145.298ZM146.662 10.6364C146.139 10.6364 145.688 10.4583 145.31 10.1023C144.938 9.74621 144.753 9.31818 144.753 8.81818C144.753 8.31818 144.938 7.89015 145.31 7.53409C145.688 7.17803 146.139 7 146.662 7C147.185 7 147.632 7.17803 148.003 7.53409C148.382 7.89015 148.571 8.31818 148.571 8.81818C148.571 9.31818 148.382 9.74621 148.003 10.1023C147.632 10.4583 147.185 10.6364 146.662 10.6364ZM159.983 31.3636C158.347 31.3636 156.938 30.9773 155.756 30.2045C154.574 29.4318 153.665 28.3674 153.028 27.0114C152.392 25.6553 152.074 24.1061 152.074 22.3636C152.074 20.5909 152.4 19.0265 153.051 17.6705C153.71 16.3068 154.627 15.2424 155.801 14.4773C156.983 13.7045 158.362 13.3182 159.938 13.3182C161.165 13.3182 162.271 13.5455 163.256 14C164.241 14.4545 165.047 15.0909 165.676 15.9091C166.305 16.7273 166.695 17.6818 166.847 18.7727H164.165C163.96 17.9773 163.506 17.2727 162.801 16.6591C162.104 16.0379 161.165 15.7273 159.983 15.7273C158.938 15.7273 158.021 16 157.233 16.5455C156.453 17.0833 155.843 17.8447 155.403 18.8295C154.972 19.8068 154.756 20.9545 154.756 22.2727C154.756 23.6212 154.968 24.7955 155.392 25.7955C155.824 26.7955 156.43 27.572 157.21 28.125C157.998 28.678 158.922 28.9545 159.983 28.9545C160.68 28.9545 161.312 28.8333 161.881 28.5909C162.449 28.3485 162.93 28 163.324 27.5455C163.718 27.0909 163.998 26.5455 164.165 25.9091H166.847C166.695 26.9394 166.32 27.8674 165.722 28.6932C165.131 29.5114 164.347 30.1629 163.369 30.6477C162.4 31.125 161.271 31.3636 159.983 31.3636ZM183.131 17.4545L180.722 18.1364C180.57 17.7348 180.347 17.3447 180.051 16.9659C179.763 16.5795 179.369 16.2614 178.869 16.0114C178.369 15.7614 177.729 15.6364 176.949 15.6364C175.881 15.6364 174.991 15.8826 174.278 16.375C173.574 16.8598 173.222 17.4773 173.222 18.2273C173.222 18.8939 173.464 19.4205 173.949 19.8068C174.434 20.1932 175.191 20.5152 176.222 20.7727L178.812 21.4091C180.373 21.7879 181.536 22.3674 182.301 23.1477C183.066 23.9205 183.449 24.9167 183.449 26.1364C183.449 27.1364 183.161 28.0303 182.585 28.8182C182.017 29.6061 181.222 30.2273 180.199 30.6818C179.176 31.1364 177.987 31.3636 176.631 31.3636C174.85 31.3636 173.377 30.9773 172.21 30.2045C171.044 29.4318 170.305 28.303 169.994 26.8182L172.54 26.1818C172.782 27.1212 173.241 27.8258 173.915 28.2955C174.597 28.7652 175.487 29 176.585 29C177.835 29 178.828 28.7348 179.562 28.2045C180.305 27.6667 180.676 27.0227 180.676 26.2727C180.676 25.6667 180.464 25.1591 180.04 24.75C179.616 24.3333 178.964 24.0227 178.085 23.8182L175.176 23.1364C173.578 22.7576 172.403 22.1705 171.653 21.375C170.911 20.572 170.54 19.5682 170.54 18.3636C170.54 17.3788 170.816 16.5076 171.369 15.75C171.93 14.9924 172.691 14.3977 173.653 13.9659C174.623 13.5341 175.722 13.3182 176.949 13.3182C178.676 13.3182 180.032 13.697 181.017 14.4545C182.009 15.2121 182.714 16.2121 183.131 17.4545Z" fill="black"/>
<path d="M5.15625 26.9688H24.8438M5.15625 19.4688H24.8438M5.15625 11.9688H24.8438" stroke="black" stroke-width="1.5" stroke-linecap="round" stroke-linejoin="round"/>
</svg>
