<svg width="22" height="22" viewBox="0 0 22 22" fill="none" xmlns="http://www.w3.org/2000/svg">
<path d="M18.9756 7.19253L14.028 2.3031L15.6578 0.673292C16.1041 0.227035 16.6524 0.00390625 17.3028 0.00390625C17.9523 0.00390625 18.5003 0.227035 18.9465 0.673292L20.5763 2.3031C21.0226 2.74936 21.2554 3.28797 21.2748 3.91894C21.2942 4.54913 21.0808 5.08736 20.6345 5.53362L18.9756 7.19253ZM1.16415 21.2496C0.834307 21.2496 0.558016 21.1379 0.335275 20.9144C0.111758 20.6916 0 20.4153 0 20.0855V16.7968C0 16.6415 0.0291038 16.4914 0.0873113 16.3462C0.145519 16.2003 0.23283 16.0692 0.349245 15.9528L12.34 3.96201L17.2876 8.90965L5.29688 20.9004C5.18046 21.0168 5.04969 21.1041 4.90456 21.1623C4.75865 21.2205 4.60809 21.2496 4.45287 21.2496H1.16415Z" fill="black"/>
</svg>
