<svg width="362" height="252" viewBox="0 0 362 252" fill="none" xmlns="http://www.w3.org/2000/svg">
<rect width="362" height="252" rx="10" fill="#F9D6AB"/>
<path d="M153.374 26.5455C153.237 25.3939 152.684 24.5 151.714 23.8636C150.745 23.2273 149.555 22.9091 148.146 22.9091C147.116 22.9091 146.214 23.0758 145.442 23.4091C144.677 23.7424 144.078 24.2008 143.646 24.7841C143.222 25.3674 143.01 26.0303 143.01 26.7727C143.01 27.3939 143.158 27.928 143.453 28.375C143.756 28.8144 144.143 29.1818 144.612 29.4773C145.082 29.7652 145.574 30.0038 146.089 30.1932C146.605 30.375 147.078 30.5227 147.51 30.6364L149.874 31.2727C150.48 31.4318 151.154 31.6515 151.896 31.9318C152.646 32.2121 153.362 32.5947 154.044 33.0795C154.733 33.5568 155.302 34.1705 155.749 34.9205C156.196 35.6705 156.419 36.5909 156.419 37.6818C156.419 38.9394 156.089 40.0758 155.43 41.0909C154.779 42.1061 153.824 42.9129 152.567 43.5114C151.317 44.1098 149.798 44.4091 148.01 44.4091C146.343 44.4091 144.9 44.1402 143.68 43.6023C142.468 43.0644 141.514 42.3144 140.817 41.3523C140.127 40.3902 139.737 39.2727 139.646 38H142.555C142.631 38.8788 142.927 39.6061 143.442 40.1818C143.964 40.75 144.624 41.1742 145.419 41.4545C146.222 41.7273 147.086 41.8636 148.01 41.8636C149.086 41.8636 150.052 41.6894 150.908 41.3409C151.764 40.9848 152.442 40.4924 152.942 39.8636C153.442 39.2273 153.692 38.4848 153.692 37.6364C153.692 36.8636 153.476 36.2348 153.044 35.75C152.612 35.2652 152.044 34.8712 151.339 34.5682C150.635 34.2652 149.874 34 149.055 33.7727L146.192 32.9545C144.374 32.4318 142.934 31.6856 141.874 30.7159C140.813 29.7462 140.283 28.4773 140.283 26.9091C140.283 25.6061 140.635 24.4697 141.339 23.5C142.052 22.5227 143.006 21.7652 144.203 21.2273C145.408 20.6818 146.752 20.4091 148.237 20.4091C149.737 20.4091 151.071 20.678 152.237 21.2159C153.404 21.7462 154.328 22.4735 155.01 23.3977C155.699 24.322 156.063 25.3712 156.101 26.5455H153.374ZM163.371 33.5V44H160.689V20.7273H163.371V29.2727H163.598C164.007 28.3712 164.621 27.6553 165.439 27.125C166.265 26.5871 167.363 26.3182 168.734 26.3182C169.924 26.3182 170.965 26.5568 171.859 27.0341C172.753 27.5038 173.446 28.2273 173.939 29.2045C174.439 30.1742 174.689 31.4091 174.689 32.9091V44H172.007V33.0909C172.007 31.7045 171.647 30.6326 170.928 29.875C170.215 29.1098 169.227 28.7273 167.962 28.7273C167.083 28.7273 166.295 28.9129 165.598 29.2841C164.909 29.6553 164.363 30.197 163.962 30.9091C163.568 31.6212 163.371 32.4848 163.371 33.5ZM184.732 44.4091C183.625 44.4091 182.622 44.2008 181.72 43.7841C180.819 43.3598 180.103 42.75 179.572 41.9545C179.042 41.1515 178.777 40.1818 178.777 39.0455C178.777 38.0455 178.974 37.2348 179.368 36.6136C179.762 35.9848 180.288 35.4924 180.947 35.1364C181.607 34.7803 182.334 34.5152 183.129 34.3409C183.932 34.1591 184.739 34.0152 185.55 33.9091C186.61 33.7727 187.47 33.6705 188.129 33.6023C188.796 33.5265 189.281 33.4015 189.584 33.2273C189.894 33.053 190.05 32.75 190.05 32.3182V32.2273C190.05 31.1061 189.743 30.2348 189.129 29.6136C188.523 28.9924 187.603 28.6818 186.368 28.6818C185.088 28.6818 184.084 28.9621 183.357 29.5227C182.629 30.0833 182.118 30.6818 181.822 31.3182L179.277 30.4091C179.732 29.3485 180.338 28.5227 181.095 27.9318C181.86 27.3333 182.694 26.9167 183.595 26.6818C184.504 26.4394 185.398 26.3182 186.277 26.3182C186.838 26.3182 187.482 26.3864 188.209 26.5227C188.944 26.6515 189.652 26.9205 190.334 27.3295C191.023 27.7386 191.595 28.3561 192.05 29.1818C192.504 30.0076 192.732 31.1136 192.732 32.5V44H190.05V41.6364H189.913C189.732 42.0152 189.429 42.4205 189.004 42.8523C188.58 43.2841 188.016 43.6515 187.311 43.9545C186.607 44.2576 185.747 44.4091 184.732 44.4091ZM185.141 42C186.201 42 187.095 41.7917 187.822 41.375C188.557 40.9583 189.11 40.4205 189.482 39.7614C189.86 39.1023 190.05 38.4091 190.05 37.6818V35.2273C189.936 35.3636 189.686 35.4886 189.3 35.6023C188.921 35.7083 188.482 35.803 187.982 35.8864C187.489 35.9621 187.008 36.0303 186.538 36.0909C186.076 36.1439 185.701 36.1894 185.413 36.2273C184.716 36.3182 184.065 36.4659 183.459 36.6705C182.86 36.8674 182.375 37.1667 182.004 37.5682C181.641 37.9621 181.459 38.5 181.459 39.1818C181.459 40.1136 181.804 40.8182 182.493 41.2955C183.19 41.7652 184.072 42 185.141 42ZM197.626 44V26.5455H200.217V29.1818H200.399C200.717 28.3182 201.293 27.6174 202.126 27.0795C202.96 26.5417 203.899 26.2727 204.945 26.2727C205.142 26.2727 205.388 26.2765 205.683 26.2841C205.979 26.2917 206.202 26.303 206.354 26.3182V29.0455C206.263 29.0227 206.054 28.9886 205.729 28.9432C205.411 28.8902 205.073 28.8636 204.717 28.8636C203.869 28.8636 203.111 29.0417 202.445 29.3977C201.786 29.7462 201.263 30.2311 200.876 30.8523C200.498 31.4659 200.308 32.1667 200.308 32.9545V44H197.626ZM216.32 44.3636C214.638 44.3636 213.187 43.9924 211.967 43.25C210.755 42.5 209.82 41.4545 209.161 40.1136C208.509 38.7652 208.183 37.197 208.183 35.4091C208.183 33.6212 208.509 32.0455 209.161 30.6818C209.82 29.3106 210.736 28.2424 211.911 27.4773C213.092 26.7045 214.471 26.3182 216.047 26.3182C216.956 26.3182 217.854 26.4697 218.74 26.7727C219.626 27.0758 220.433 27.5682 221.161 28.25C221.888 28.9242 222.467 29.8182 222.899 30.9318C223.331 32.0455 223.547 33.4167 223.547 35.0455V36.1818H210.092V33.8636H220.82C220.82 32.8788 220.623 32 220.229 31.2273C219.842 30.4545 219.289 29.8447 218.57 29.3977C217.857 28.9508 217.017 28.7273 216.047 28.7273C214.979 28.7273 214.054 28.9924 213.274 29.5227C212.501 30.0455 211.907 30.7273 211.49 31.5682C211.073 32.4091 210.865 33.3106 210.865 34.2727V35.8182C210.865 37.1364 211.092 38.2538 211.547 39.1705C212.009 40.0795 212.649 40.7727 213.467 41.25C214.286 41.7197 215.236 41.9545 216.32 41.9545C217.024 41.9545 217.661 41.8561 218.229 41.6591C218.804 41.4545 219.301 41.1515 219.717 40.75C220.134 40.3409 220.456 39.8333 220.683 39.2273L223.274 39.9545C223.001 40.8333 222.543 41.6061 221.899 42.2727C221.255 42.9318 220.46 43.447 219.513 43.8182C218.566 44.1818 217.501 44.3636 216.32 44.3636ZM170.716 83.4091C169.61 83.4091 168.606 83.2008 167.705 82.7841C166.803 82.3598 166.087 81.75 165.557 80.9545C165.027 80.1515 164.761 79.1818 164.761 78.0455C164.761 77.0455 164.958 76.2348 165.352 75.6136C165.746 74.9848 166.273 74.4924 166.932 74.1364C167.591 73.7803 168.318 73.5152 169.114 73.3409C169.917 73.1591 170.723 73.0152 171.534 72.9091C172.595 72.7727 173.455 72.6705 174.114 72.6023C174.78 72.5265 175.265 72.4015 175.568 72.2273C175.879 72.053 176.034 71.75 176.034 71.3182V71.2273C176.034 70.1061 175.727 69.2348 175.114 68.6136C174.508 67.9924 173.587 67.6818 172.352 67.6818C171.072 67.6818 170.068 67.9621 169.341 68.5227C168.614 69.0833 168.102 69.6818 167.807 70.3182L165.261 69.4091C165.716 68.3485 166.322 67.5227 167.08 66.9318C167.845 66.3333 168.678 65.9167 169.58 65.6818C170.489 65.4394 171.383 65.3182 172.261 65.3182C172.822 65.3182 173.466 65.3864 174.193 65.5227C174.928 65.6515 175.636 65.9205 176.318 66.3295C177.008 66.7386 177.58 67.3561 178.034 68.1818C178.489 69.0076 178.716 70.1136 178.716 71.5V83H176.034V80.6364H175.898C175.716 81.0152 175.413 81.4205 174.989 81.8523C174.564 82.2841 174 82.6515 173.295 82.9545C172.591 83.2576 171.731 83.4091 170.716 83.4091ZM171.125 81C172.186 81 173.08 80.7917 173.807 80.375C174.542 79.9583 175.095 79.4205 175.466 78.7614C175.845 78.1023 176.034 77.4091 176.034 76.6818V74.2273C175.92 74.3636 175.67 74.4886 175.284 74.6023C174.905 74.7083 174.466 74.803 173.966 74.8864C173.473 74.9621 172.992 75.0303 172.523 75.0909C172.061 75.1439 171.686 75.1894 171.398 75.2273C170.701 75.3182 170.049 75.4659 169.443 75.6705C168.845 75.8674 168.36 76.1667 167.989 76.5682C167.625 76.9621 167.443 77.5 167.443 78.1818C167.443 79.1136 167.788 79.8182 168.477 80.2955C169.174 80.7652 170.057 81 171.125 81ZM186.293 72.5V83H183.611V65.5455H186.202V68.2727H186.429C186.838 67.3864 187.459 66.6742 188.293 66.1364C189.126 65.5909 190.202 65.3182 191.52 65.3182C192.702 65.3182 193.736 65.5606 194.622 66.0455C195.509 66.5227 196.198 67.25 196.69 68.2273C197.183 69.197 197.429 70.4242 197.429 71.9091V83H194.747V72.0909C194.747 70.7197 194.391 69.6515 193.679 68.8864C192.967 68.1136 191.99 67.7273 190.747 67.7273C189.891 67.7273 189.126 67.9129 188.452 68.2841C187.785 68.6553 187.259 69.197 186.872 69.9091C186.486 70.6212 186.293 71.4848 186.293 72.5ZM141.678 122V98.7273H155.723V101.227H144.496V109.091H154.996V111.591H144.496V119.5H155.905V122H141.678ZM174.712 104.545L168.257 122H165.53L159.075 104.545H161.984L166.803 118.455H166.984L171.803 104.545H174.712ZM184.945 122.364C183.263 122.364 181.812 121.992 180.592 121.25C179.38 120.5 178.445 119.455 177.786 118.114C177.134 116.765 176.808 115.197 176.808 113.409C176.808 111.621 177.134 110.045 177.786 108.682C178.445 107.311 179.361 106.242 180.536 105.477C181.717 104.705 183.096 104.318 184.672 104.318C185.581 104.318 186.479 104.47 187.365 104.773C188.251 105.076 189.058 105.568 189.786 106.25C190.513 106.924 191.092 107.818 191.524 108.932C191.956 110.045 192.172 111.417 192.172 113.045V114.182H178.717V111.864H189.445C189.445 110.879 189.248 110 188.854 109.227C188.467 108.455 187.914 107.845 187.195 107.398C186.482 106.951 185.642 106.727 184.672 106.727C183.604 106.727 182.679 106.992 181.899 107.523C181.126 108.045 180.532 108.727 180.115 109.568C179.698 110.409 179.49 111.311 179.49 112.273V113.818C179.49 115.136 179.717 116.254 180.172 117.17C180.634 118.08 181.274 118.773 182.092 119.25C182.911 119.72 183.861 119.955 184.945 119.955C185.649 119.955 186.286 119.856 186.854 119.659C187.429 119.455 187.926 119.152 188.342 118.75C188.759 118.341 189.081 117.833 189.308 117.227L191.899 117.955C191.626 118.833 191.168 119.606 190.524 120.273C189.88 120.932 189.085 121.447 188.138 121.818C187.191 122.182 186.126 122.364 184.945 122.364ZM198.933 111.5V122H196.251V104.545H198.842V107.273H199.07C199.479 106.386 200.1 105.674 200.933 105.136C201.767 104.591 202.842 104.318 204.161 104.318C205.342 104.318 206.376 104.561 207.263 105.045C208.149 105.523 208.839 106.25 209.331 107.227C209.823 108.197 210.07 109.424 210.07 110.909V122H207.388V111.091C207.388 109.72 207.032 108.652 206.32 107.886C205.607 107.114 204.63 106.727 203.388 106.727C202.532 106.727 201.767 106.913 201.092 107.284C200.426 107.655 199.899 108.197 199.513 108.909C199.126 109.621 198.933 110.485 198.933 111.5ZM222.561 104.545V106.818H213.516V104.545H222.561ZM216.152 100.364H218.834V117C218.834 117.758 218.944 118.326 219.163 118.705C219.391 119.076 219.679 119.326 220.027 119.455C220.383 119.576 220.758 119.636 221.152 119.636C221.447 119.636 221.69 119.621 221.879 119.591C222.069 119.553 222.22 119.523 222.334 119.5L222.879 121.909C222.697 121.977 222.444 122.045 222.118 122.114C221.792 122.189 221.379 122.227 220.879 122.227C220.122 122.227 219.379 122.064 218.652 121.739C217.932 121.413 217.334 120.917 216.857 120.25C216.387 119.583 216.152 118.742 216.152 117.727V100.364Z" fill="black"/>
<path d="M153.374 26.5455L152.381 26.6631L152.485 27.5455H153.374V26.5455ZM151.714 23.8636L151.166 24.6997L151.714 23.8636ZM145.442 23.4091L145.046 22.4909L145.042 22.4923L145.442 23.4091ZM143.646 24.7841L142.843 24.1891L142.838 24.1959L143.646 24.7841ZM143.453 28.375L142.619 28.9264L142.624 28.9346L142.63 28.9427L143.453 28.375ZM144.612 29.4773L144.08 30.3238L144.09 30.3299L144.612 29.4773ZM146.089 30.1932L145.744 31.1318L145.757 31.1362L146.089 30.1932ZM147.51 30.6364L147.77 29.6707L147.764 29.6693L147.51 30.6364ZM149.874 31.2727L149.614 32.2384L149.62 32.24L149.874 31.2727ZM151.896 31.9318L151.543 32.8674L151.546 32.8685L151.896 31.9318ZM154.044 33.0795L153.464 33.8946L153.475 33.9017L154.044 33.0795ZM155.749 34.9205L156.608 34.4085H156.608L155.749 34.9205ZM155.43 41.0909L154.592 40.5464L154.589 40.5508L155.43 41.0909ZM152.567 43.5114L152.137 42.6084L152.135 42.6094L152.567 43.5114ZM143.68 43.6023L143.275 44.5163L143.277 44.5173L143.68 43.6023ZM140.817 41.3523L140.004 41.9347L140.007 41.9389L140.817 41.3523ZM139.646 38V37H138.572L138.649 38.0712L139.646 38ZM142.555 38L143.552 37.9141L143.473 37H142.555V38ZM143.442 40.1818L142.696 40.8487L142.706 40.8589L143.442 40.1818ZM145.419 41.4545L145.087 42.3978L145.097 42.4014L145.419 41.4545ZM150.908 41.3409L151.285 42.2671L151.292 42.2642L150.908 41.3409ZM152.942 39.8636L153.724 40.486L153.728 40.4815L152.942 39.8636ZM153.044 35.75L153.791 35.0849L153.044 35.75ZM151.339 34.5682L150.944 35.4868H150.944L151.339 34.5682ZM149.055 33.7727L148.781 34.7343L148.788 34.7362L149.055 33.7727ZM146.192 32.9545L145.915 33.9156L145.917 33.9161L146.192 32.9545ZM141.874 30.7159L141.199 31.4539L141.874 30.7159ZM141.339 23.5L140.531 22.9111L140.53 22.9122L141.339 23.5ZM144.203 21.2273L144.613 22.1394L144.616 22.1382L144.203 21.2273ZM152.237 21.2159L151.819 22.1241L151.823 22.1263L152.237 21.2159ZM155.01 23.3977L154.205 23.9914L154.208 23.9956L155.01 23.3977ZM156.101 26.5455V27.5455H157.134L157.1 26.5132L156.101 26.5455ZM154.367 26.4279C154.196 24.9829 153.48 23.826 152.263 23.0276L151.166 24.6997C151.889 25.174 152.279 25.805 152.381 26.6631L154.367 26.4279ZM152.263 23.0276C151.098 22.2632 149.708 21.9091 148.146 21.9091V23.9091C149.403 23.9091 150.391 24.1913 151.166 24.6997L152.263 23.0276ZM148.146 21.9091C147.01 21.9091 145.968 22.0929 145.046 22.4909L145.838 24.3273C146.461 24.0586 147.222 23.9091 148.146 23.9091V21.9091ZM145.042 22.4923C144.141 22.885 143.393 23.445 142.843 24.1891L144.45 25.3791C144.763 24.9565 145.212 24.5999 145.841 24.3259L145.042 22.4923ZM142.838 24.1959C142.285 24.9555 142.01 25.8256 142.01 26.7727H144.01C144.01 26.235 144.159 25.7794 144.455 25.3723L142.838 24.1959ZM142.01 26.7727C142.01 27.558 142.199 28.2911 142.619 28.9264L144.287 27.8236C144.116 27.565 144.01 27.2299 144.01 26.7727H142.01ZM142.63 28.9427C143.013 29.4982 143.5 29.959 144.08 30.3237L145.145 28.6308C144.785 28.4047 144.499 28.1306 144.276 27.8073L142.63 28.9427ZM144.09 30.3299C144.615 30.6521 145.167 30.9195 145.744 31.1318L146.435 29.2546C145.981 29.088 145.549 28.8782 145.135 28.6247L144.09 30.3299ZM145.757 31.1362C146.292 31.3252 146.792 31.4815 147.255 31.6034L147.764 29.6693C147.364 29.5639 146.917 29.4248 146.422 29.2502L145.757 31.1362ZM147.25 31.602L149.614 32.2383L150.134 30.3071L147.77 29.6707L147.25 31.602ZM149.62 32.24C150.185 32.3883 150.825 32.5963 151.543 32.8674L152.25 30.9963C151.483 30.7068 150.775 30.4754 150.127 30.3055L149.62 32.24ZM151.546 32.8685C152.211 33.1171 152.85 33.4578 153.465 33.8945L154.624 32.2646C153.874 31.7316 153.081 31.3072 152.246 30.9951L151.546 32.8685ZM153.475 33.9017C154.042 34.2942 154.513 34.8002 154.89 35.4324L156.608 34.4085C156.09 33.5407 155.425 32.8195 154.613 32.2574L153.475 33.9017ZM154.89 35.4324C155.224 35.9933 155.419 36.7266 155.419 37.6818H157.419C157.419 36.4552 157.167 35.3476 156.608 34.4085L154.89 35.4324ZM155.419 37.6818C155.419 38.7541 155.141 39.6999 154.592 40.5464L156.269 41.6355C157.038 40.4516 157.419 39.1247 157.419 37.6818H155.419ZM154.589 40.5508C154.053 41.3859 153.253 42.0774 152.137 42.6084L152.996 44.4143C154.396 43.7483 155.505 42.8262 156.272 41.631L154.589 40.5508ZM152.135 42.6094C151.053 43.1275 149.69 43.4091 148.01 43.4091V45.4091C149.905 45.4091 151.581 45.0922 152.999 44.4133L152.135 42.6094ZM148.01 43.4091C146.449 43.4091 145.149 43.1569 144.084 42.6873L143.277 44.5173C144.651 45.1234 146.238 45.4091 148.01 45.4091V43.4091ZM144.086 42.6882C143.016 42.2134 142.208 41.5688 141.627 40.7656L140.007 41.9389C140.819 43.06 141.921 43.9154 143.275 44.5163L144.086 42.6882ZM141.63 40.7698C141.056 39.9695 140.723 39.0322 140.644 37.9288L138.649 38.0712C138.752 39.5132 139.199 40.8108 140.004 41.9347L141.63 40.7698ZM139.646 39H142.555V37H139.646V39ZM141.559 38.0859C141.651 39.1485 142.017 40.0892 142.697 40.8486L144.187 39.515C143.836 39.123 143.612 38.6091 143.552 37.9141L141.559 38.0859ZM142.706 40.8589C143.349 41.5583 144.152 42.0682 145.087 42.3977L145.751 40.5114C145.096 40.2803 144.58 39.9417 144.178 39.5048L142.706 40.8589ZM145.097 42.4014C146.013 42.7123 146.986 42.8636 148.01 42.8636V40.8636C147.185 40.8636 146.431 40.7422 145.741 40.5077L145.097 42.4014ZM148.01 42.8636C149.194 42.8636 150.291 42.6716 151.285 42.2671L150.531 40.4147C149.812 40.7072 148.977 40.8636 148.01 40.8636V42.8636ZM151.292 42.2642C152.28 41.8533 153.104 41.2664 153.724 40.486L152.159 39.2412C151.78 39.7184 151.248 40.1164 150.524 40.4176L151.292 42.2642ZM153.728 40.4815C154.374 39.6599 154.692 38.6972 154.692 37.6364H152.692C152.692 38.2725 152.51 38.7946 152.155 39.2458L153.728 40.4815ZM154.692 37.6364C154.692 36.6676 154.416 35.7866 153.791 35.0849L152.297 36.4151C152.536 36.6831 152.692 37.0597 152.692 37.6364H154.692ZM153.791 35.0849C153.246 34.4728 152.549 34 151.735 33.6495L150.944 35.4868C151.539 35.7424 151.979 36.0575 152.297 36.4151L153.791 35.0849ZM151.735 33.6495C150.985 33.3269 150.18 33.0473 149.323 32.8092L148.788 34.7362C149.567 34.9527 150.285 35.2034 150.944 35.4868L151.735 33.6495ZM149.33 32.8112L146.466 31.993L145.917 33.9161L148.781 34.7343L149.33 32.8112ZM146.468 31.9935C144.753 31.5004 143.465 30.8159 142.548 29.9779L141.199 31.4539C142.403 32.5553 143.994 33.3632 145.915 33.9156L146.468 31.9935ZM142.548 29.9779C141.715 29.2161 141.283 28.2251 141.283 26.9091H139.283C139.283 28.7294 139.911 30.2763 141.199 31.4539L142.548 29.9779ZM141.283 26.9091C141.283 25.7978 141.579 24.8716 142.148 24.0878L140.53 22.9122C139.691 24.0678 139.283 25.4143 139.283 26.9091H141.283ZM142.148 24.0889C142.749 23.264 143.561 22.6123 144.613 22.1394L143.793 20.3151C142.452 20.918 141.354 21.7814 140.531 22.9111L142.148 24.0889ZM144.616 22.1382C145.675 21.6583 146.877 21.4091 148.237 21.4091V19.4091C146.628 19.4091 145.14 19.7053 143.791 20.3163L144.616 22.1382ZM148.237 21.4091C149.617 21.4091 150.803 21.656 151.819 22.124L152.656 20.3078C151.338 19.7001 149.858 19.4091 148.237 19.4091V21.4091ZM151.823 22.1263C152.853 22.5944 153.636 23.2196 154.205 23.9914L155.815 22.8041C155.02 21.7273 153.955 20.898 152.651 20.3055L151.823 22.1263ZM154.208 23.9956C154.773 24.7527 155.07 25.6037 155.101 26.5777L157.1 26.5132C157.056 25.1388 156.626 23.8912 155.812 22.7998L154.208 23.9956ZM156.101 25.5455H153.374V27.5455H156.101V25.5455ZM163.371 44V45H164.371V44H163.371ZM160.689 44H159.689V45H160.689V44ZM160.689 20.7273V19.7273H159.689V20.7273H160.689ZM163.371 20.7273H164.371V19.7273H163.371V20.7273ZM163.371 29.2727H162.371V30.2727H163.371V29.2727ZM163.598 29.2727V30.2727H164.242L164.509 29.686L163.598 29.2727ZM165.439 27.125L165.983 27.9642L165.985 27.9629L165.439 27.125ZM171.859 27.0341L171.388 27.9163L171.394 27.9193L171.859 27.0341ZM173.939 29.2045L173.046 29.6545L173.05 29.6628L173.939 29.2045ZM174.689 44V45H175.689V44H174.689ZM172.007 44H171.007V45H172.007V44ZM170.928 29.875L170.196 30.5563L170.203 30.5637L170.928 29.875ZM165.598 29.2841L165.128 28.4015L165.124 28.4036L165.598 29.2841ZM163.962 30.9091L163.091 30.4179L163.087 30.425L163.962 30.9091ZM162.371 33.5V44H164.371V33.5H162.371ZM163.371 43H160.689V45H163.371V43ZM161.689 44V20.7273H159.689V44H161.689ZM160.689 21.7273H163.371V19.7273H160.689V21.7273ZM162.371 20.7273V29.2727H164.371V20.7273H162.371ZM163.371 30.2727H163.598V28.2727H163.371V30.2727ZM164.509 29.686C164.84 28.9557 165.328 28.3888 165.983 27.9642L164.895 26.2858C163.914 26.9218 163.174 27.7867 162.687 28.8595L164.509 29.686ZM165.985 27.9629C166.596 27.5647 167.484 27.3182 168.734 27.3182V25.3182C167.242 25.3182 165.933 25.6096 164.893 26.2871L165.985 27.9629ZM168.734 27.3182C169.788 27.3182 170.663 27.5288 171.388 27.9162L172.33 26.1519C171.268 25.5849 170.059 25.3182 168.734 25.3182V27.3182ZM171.394 27.9193C172.088 28.2839 172.639 28.847 173.046 29.6545L174.832 28.7546C174.254 27.6076 173.419 26.7237 172.325 26.1488L171.394 27.9193ZM173.05 29.6628C173.455 30.4478 173.689 31.5119 173.689 32.9091H175.689C175.689 31.3063 175.423 29.9007 174.828 28.7463L173.05 29.6628ZM173.689 32.9091V44H175.689V32.9091H173.689ZM174.689 43H172.007V45H174.689V43ZM173.007 44V33.0909H171.007V44H173.007ZM173.007 33.0909C173.007 31.5342 172.6 30.1839 171.653 29.1863L170.203 30.5637C170.694 31.0813 171.007 31.8749 171.007 33.0909H173.007ZM171.66 29.1937C170.719 28.1833 169.441 27.7273 167.962 27.7273V29.7273C169.012 29.7273 169.712 30.0364 170.196 30.5563L171.66 29.1937ZM167.962 27.7273C166.938 27.7273 165.985 27.9448 165.128 28.4015L166.068 30.1667C166.605 29.881 167.228 29.7273 167.962 29.7273V27.7273ZM165.124 28.4036C164.26 28.8685 163.581 29.5488 163.091 30.4179L164.833 31.4002C165.146 30.8452 165.557 30.4421 166.072 30.1646L165.124 28.4036ZM163.087 30.425C162.593 31.3177 162.371 32.3568 162.371 33.5H164.371C164.371 32.6129 164.543 31.9248 164.837 31.3932L163.087 30.425ZM181.72 43.7841L181.294 44.6889L181.301 44.6918L181.72 43.7841ZM179.572 41.9545L178.738 42.5056L178.74 42.5092L179.572 41.9545ZM179.368 36.6136L180.212 37.1492L180.215 37.1446L179.368 36.6136ZM183.129 34.3409L183.343 35.3178L183.35 35.3162L183.129 34.3409ZM185.55 33.9091L185.422 32.9173L185.42 32.9175L185.55 33.9091ZM188.129 33.6023L188.232 34.597L188.242 34.5959L188.129 33.6023ZM189.584 33.2273L189.095 32.3551L189.085 32.3604L189.584 33.2273ZM189.129 29.6136L188.413 30.312L188.418 30.3164L189.129 29.6136ZM183.357 29.5227L183.967 30.3147L183.357 29.5227ZM181.822 31.3182L181.486 32.2599L182.345 32.5668L182.729 31.7393L181.822 31.3182ZM179.277 30.4091L178.358 30.0152L177.939 30.993L178.941 31.3508L179.277 30.4091ZM181.095 27.9318L181.71 28.7203L181.711 28.7195L181.095 27.9318ZM183.595 26.6818L183.847 27.6495L183.853 27.6481L183.595 26.6818ZM188.209 26.5227L188.025 27.5057L188.036 27.5077L188.209 26.5227ZM190.334 27.3295L189.819 28.187L189.823 28.1895L190.334 27.3295ZM192.05 29.1818L191.174 29.664L192.05 29.1818ZM192.732 44V45H193.732V44H192.732ZM190.05 44H189.05V45H190.05V44ZM190.05 41.6364H191.05V40.6364H190.05V41.6364ZM189.913 41.6364V40.6364H189.284L189.012 41.2036L189.913 41.6364ZM189.004 42.8523L189.718 43.5531L189.004 42.8523ZM187.311 43.9545L186.916 43.0359L187.311 43.9545ZM187.822 41.375L187.329 40.5051L187.325 40.5073L187.822 41.375ZM189.482 39.7614L188.614 39.2631L188.61 39.2706L189.482 39.7614ZM190.05 35.2273H191.05V32.4652L189.281 34.5871L190.05 35.2273ZM189.3 35.6023L189.569 36.5653L189.582 36.5616L189.3 35.6023ZM187.982 35.8864L188.134 36.8748L188.146 36.8728L187.982 35.8864ZM186.538 36.0909L186.652 37.0845L186.666 37.0827L186.538 36.0909ZM185.413 36.2273L185.543 37.2189L185.544 37.2187L185.413 36.2273ZM183.459 36.6705L183.771 37.6204L183.779 37.6179L183.459 36.6705ZM182.004 37.5682L181.27 36.8893L181.269 36.8899L182.004 37.5682ZM182.493 41.2955L181.924 42.1177L181.934 42.1247L182.493 41.2955ZM184.732 43.4091C183.754 43.4091 182.895 43.2256 182.14 42.8764L181.301 44.6918C182.348 45.1759 183.497 45.4091 184.732 45.4091V43.4091ZM182.146 42.8793C181.402 42.5291 180.829 42.0372 180.404 41.3998L178.74 42.5092C179.376 43.4628 180.235 44.1906 181.294 44.6889L182.146 42.8793ZM180.407 41.4035C180.003 40.7917 179.777 40.022 179.777 39.0455H177.777C177.777 40.3417 178.081 41.5113 178.738 42.5056L180.407 41.4035ZM179.777 39.0455C179.777 38.1691 179.95 37.5624 180.212 37.1492L178.523 36.0781C177.998 36.9073 177.777 37.9218 177.777 39.0455H179.777ZM180.215 37.1446C180.517 36.6637 180.914 36.2909 181.423 36.0162L180.472 34.2565C179.662 34.694 179.007 35.3059 178.52 36.0827L180.215 37.1446ZM181.423 36.0162C181.993 35.7082 182.631 35.4737 183.343 35.3177L182.915 33.3641C182.036 33.5566 181.22 33.8524 180.472 34.2565L181.423 36.0162ZM183.35 35.3162C184.123 35.1412 184.9 35.0027 185.679 34.9006L185.42 32.9175C184.579 33.0276 183.741 33.177 182.908 33.3656L183.35 35.3162ZM185.677 34.9009C186.734 34.7651 187.585 34.6639 188.232 34.597L188.026 32.6076C187.356 32.677 186.487 32.7804 185.422 32.9173L185.677 34.9009ZM188.242 34.5959C188.943 34.5163 189.596 34.3738 190.082 34.0942L189.085 32.3604C188.966 32.4292 188.649 32.5368 188.016 32.6087L188.242 34.5959ZM190.073 34.0994C190.771 33.7078 191.05 33.0208 191.05 32.3182H189.05C189.05 32.4169 189.032 32.4356 189.043 32.4132C189.049 32.4018 189.059 32.3874 189.072 32.3739C189.078 32.3676 189.084 32.3629 189.088 32.3596C189.092 32.3563 189.095 32.3549 189.095 32.3551L190.073 34.0994ZM191.05 32.3182V32.2273H189.05V32.3182H191.05ZM191.05 32.2273C191.05 30.921 190.688 29.7683 189.841 28.9109L188.418 30.3164C188.798 30.7014 189.05 31.2911 189.05 32.2273H191.05ZM189.845 28.9153C188.983 28.0318 187.757 27.6818 186.368 27.6818V29.6818C187.449 29.6818 188.063 29.953 188.413 30.312L189.845 28.9153ZM186.368 27.6818C184.952 27.6818 183.706 27.9911 182.746 28.7307L183.967 30.3147C184.462 29.9332 185.223 29.6818 186.368 29.6818V27.6818ZM182.746 28.7307C181.929 29.3601 181.296 30.0771 180.915 30.8971L182.729 31.7393C182.94 31.2865 183.329 30.8065 183.967 30.3147L182.746 28.7307ZM182.159 30.3764L179.613 29.4673L178.941 31.3508L181.486 32.2599L182.159 30.3764ZM180.196 30.803C180.598 29.8664 181.11 29.1885 181.71 28.7203L180.48 27.1433C179.565 27.857 178.866 28.8306 178.358 30.0152L180.196 30.803ZM181.711 28.7195C182.373 28.2016 183.084 27.8484 183.847 27.6495L183.343 25.7141C182.304 25.9849 181.347 26.4651 180.479 27.1441L181.711 28.7195ZM183.853 27.6481C184.684 27.4265 185.491 27.3182 186.277 27.3182V25.3182C185.305 25.3182 184.325 25.4523 183.338 25.7156L183.853 27.6481ZM186.277 27.3182C186.76 27.3182 187.34 27.3772 188.025 27.5056L188.393 25.5399C187.623 25.3955 186.915 25.3182 186.277 25.3182V27.3182ZM188.036 27.5077C188.642 27.614 189.236 27.8369 189.819 28.187L190.848 26.4721C190.068 26.004 189.245 25.6891 188.381 25.5377L188.036 27.5077ZM189.823 28.1895C190.334 28.4927 190.79 28.9668 191.174 29.664L192.926 28.6996C192.4 27.7453 191.712 26.9846 190.844 26.4696L189.823 28.1895ZM191.174 29.664C191.518 30.2887 191.732 31.2085 191.732 32.5H193.732C193.732 31.0188 193.491 29.7264 192.926 28.6996L191.174 29.664ZM191.732 32.5V44H193.732V32.5H191.732ZM192.732 43H190.05V45H192.732V43ZM191.05 44V41.6364H189.05V44H191.05ZM190.05 40.6364H189.913V42.6364H190.05V40.6364ZM189.012 41.2036C188.894 41.4501 188.669 41.7665 188.291 42.1515L189.718 43.5531C190.188 43.0744 190.57 42.5802 190.815 42.0691L189.012 41.2036ZM188.291 42.1515C187.978 42.4696 187.532 42.771 186.916 43.0359L187.706 44.8732C188.499 44.532 189.182 44.0986 189.718 43.5531L188.291 42.1515ZM186.916 43.0359C186.37 43.2709 185.653 43.4091 184.732 43.4091V45.4091C185.841 45.4091 186.843 45.2442 187.706 44.8732L186.916 43.0359ZM185.141 43C186.33 43 187.406 42.7662 188.32 42.2427L187.325 40.5073C186.785 40.8172 186.072 41 185.141 41V43ZM188.316 42.2449C189.19 41.7493 189.882 41.0876 190.353 40.2521L188.61 39.2706C188.338 39.7533 187.925 40.1674 187.329 40.5051L188.316 42.2449ZM190.349 40.2596C190.81 39.4561 191.05 38.592 191.05 37.6818H189.05C189.05 38.2262 188.91 38.7485 188.615 39.2631L190.349 40.2596ZM191.05 37.6818V35.2273H189.05V37.6818H191.05ZM189.281 34.5871C189.319 34.542 189.349 34.5198 189.355 34.5154C189.362 34.5105 189.356 34.5158 189.33 34.5289C189.275 34.5561 189.176 34.5962 189.018 34.6429L189.582 36.5616C189.809 36.4947 190.029 36.4155 190.224 36.3177C190.409 36.2251 190.637 36.085 190.818 35.8675L189.281 34.5871ZM189.03 34.6393C188.694 34.7334 188.291 34.821 187.817 34.9L188.146 36.8728C188.672 36.7851 189.148 36.6833 189.569 36.5652L189.03 34.6393ZM187.829 34.898C187.345 34.9726 186.872 35.0396 186.41 35.0991L186.666 37.0827C187.144 37.021 187.634 36.9517 188.134 36.8747L187.829 34.898ZM186.424 35.0974C185.96 35.1508 185.578 35.1969 185.283 35.2358L185.544 37.2187C185.824 37.1819 186.193 37.1371 186.652 37.0844L186.424 35.0974ZM185.284 35.2357C184.529 35.3342 183.813 35.4956 183.139 35.723L183.779 37.6179C184.317 37.4362 184.904 37.3022 185.543 37.2189L185.284 35.2357ZM183.146 35.7206C182.411 35.9625 181.773 36.3453 181.27 36.8893L182.739 38.247C182.978 37.9881 183.309 37.7724 183.771 37.6203L183.146 35.7206ZM181.269 36.8899C180.693 37.5148 180.459 38.3195 180.459 39.1818H182.459C182.459 38.6805 182.589 38.4095 182.739 38.2465L181.269 36.8899ZM180.459 39.1818C180.459 40.3991 180.931 41.4306 181.924 42.1176L183.062 40.4733C182.676 40.2058 182.459 39.8282 182.459 39.1818H180.459ZM181.934 42.1247C182.836 42.7324 183.927 43 185.141 43V41C184.218 41 183.544 40.7979 183.052 40.4662L181.934 42.1247ZM197.626 44H196.626V45H197.626V44ZM197.626 26.5455V25.5455H196.626V26.5455H197.626ZM200.217 26.5455H201.217V25.5455H200.217V26.5455ZM200.217 29.1818H199.217V30.1818H200.217V29.1818ZM200.399 29.1818V30.1818H201.096L201.337 29.5275L200.399 29.1818ZM202.126 27.0795L201.584 26.2394L202.126 27.0795ZM206.354 26.3182H207.354V25.4132L206.453 25.3231L206.354 26.3182ZM206.354 29.0455L206.111 30.0156L207.354 30.3262V29.0455H206.354ZM205.729 28.9432L205.564 29.9296L205.577 29.9318L205.59 29.9336L205.729 28.9432ZM202.445 29.3977L202.912 30.2818L202.916 30.2798L202.445 29.3977ZM200.876 30.8523L200.027 30.3241L200.025 30.327L200.876 30.8523ZM200.308 44V45H201.308V44H200.308ZM198.626 44V26.5455H196.626V44H198.626ZM197.626 27.5455H200.217V25.5455H197.626V27.5455ZM199.217 26.5455V29.1818H201.217V26.5455H199.217ZM200.217 30.1818H200.399V28.1818H200.217V30.1818ZM201.337 29.5275C201.575 28.8834 202.002 28.3498 202.669 27.9197L201.584 26.2394C200.584 26.8851 199.86 27.7529 199.461 28.8361L201.337 29.5275ZM202.669 27.9197C203.331 27.4919 204.081 27.2727 204.945 27.2727V25.2727C203.718 25.2727 202.588 25.5914 201.584 26.2394L202.669 27.9197ZM204.945 27.2727C205.13 27.2727 205.367 27.2763 205.658 27.2838L205.709 25.2844C205.409 25.2767 205.153 25.2727 204.945 25.2727V27.2727ZM205.658 27.2838C205.947 27.2912 206.14 27.3018 206.254 27.3132L206.453 25.3231C206.264 25.3042 206.011 25.2922 205.709 25.2844L205.658 27.2838ZM205.354 26.3182V29.0455H207.354V26.3182H205.354ZM206.596 28.0753C206.443 28.0371 206.178 27.9961 205.867 27.9528L205.59 29.9336C205.749 29.9558 205.874 29.9744 205.968 29.9897C206.014 29.9973 206.05 30.0037 206.077 30.0087C206.106 30.0142 206.115 30.0165 206.111 30.0156L206.596 28.0753ZM205.893 27.9568C205.515 27.8938 205.123 27.8636 204.717 27.8636V29.8636C205.024 29.8636 205.306 29.8865 205.564 29.9296L205.893 27.9568ZM204.717 27.8636C203.725 27.8636 202.802 28.0731 201.973 28.5157L202.916 30.2798C203.42 30.0103 204.013 29.8636 204.717 29.8636V27.8636ZM201.977 28.5137C201.165 28.9433 200.509 29.5496 200.027 30.3241L201.726 31.3804C202.017 30.9125 202.406 30.5492 202.912 30.2818L201.977 28.5137ZM200.025 30.327C199.54 31.113 199.308 31.9989 199.308 32.9545H201.308C201.308 32.3344 201.455 31.8188 201.727 31.3775L200.025 30.327ZM199.308 32.9545V44H201.308V32.9545H199.308ZM200.308 43H197.626V45H200.308V43ZM211.967 43.25L211.441 44.1004L211.447 44.1042L211.967 43.25ZM209.161 40.1136L208.26 40.5487L208.263 40.5548L209.161 40.1136ZM209.161 30.6818L208.259 30.2486L208.258 30.2507L209.161 30.6818ZM211.911 27.4773L212.456 28.3151L212.458 28.3142L211.911 27.4773ZM218.74 26.7727L219.064 25.8265L218.74 26.7727ZM221.161 28.25L220.477 28.9795L220.481 28.9833L221.161 28.25ZM222.899 30.9318L223.832 30.5703V30.5703L222.899 30.9318ZM223.547 36.1818V37.1818H224.547V36.1818H223.547ZM210.092 36.1818H209.092V37.1818H210.092V36.1818ZM210.092 33.8636V32.8636H209.092V33.8636H210.092ZM220.82 33.8636V34.8636H221.82V33.8636H220.82ZM220.229 31.2273L219.334 31.6745L219.338 31.6815L220.229 31.2273ZM218.57 29.3977L218.038 30.2447L218.042 30.2472L218.57 29.3977ZM213.274 29.5227L213.834 30.351L213.836 30.3498L213.274 29.5227ZM211.49 31.5682L210.594 31.1242L211.49 31.5682ZM211.547 39.1705L210.651 39.6147L210.655 39.6236L211.547 39.1705ZM213.467 41.25L212.963 42.1138L212.969 42.1173L213.467 41.25ZM218.229 41.6591L218.556 42.604L218.563 42.6014L218.229 41.6591ZM219.717 40.75L220.411 41.4701L220.418 41.4636L219.717 40.75ZM220.683 39.2273L220.953 38.2645L220.069 38.0163L219.747 38.8761L220.683 39.2273ZM223.274 39.9545L224.229 40.2509L224.534 39.2695L223.544 38.9918L223.274 39.9545ZM221.899 42.2727L222.614 42.9716L222.618 42.9675L221.899 42.2727ZM219.513 43.8182L219.871 44.7517L219.878 44.7492L219.513 43.8182ZM216.32 43.3636C214.788 43.3636 213.524 43.0271 212.487 42.3958L211.447 44.1042C212.85 44.9578 214.487 45.3636 216.32 45.3636V43.3636ZM212.493 42.3996C211.449 41.7533 210.638 40.8534 210.058 39.6725L208.263 40.5548C209.001 42.0557 210.061 43.2467 211.441 44.1004L212.493 42.3996ZM210.061 39.6786C209.486 38.4896 209.183 37.0752 209.183 35.4091H207.183C207.183 37.3188 207.532 39.0407 208.26 40.5487L210.061 39.6786ZM209.183 35.4091C209.183 33.7433 209.486 32.3195 210.063 31.1129L208.258 30.2507C207.532 31.7714 207.183 33.4991 207.183 35.4091H209.183ZM210.062 31.115C210.649 29.8941 211.448 28.9719 212.456 28.3151L211.365 26.6394C210.024 27.5129 208.991 28.7272 208.259 30.2486L210.062 31.115ZM212.458 28.3142C213.458 27.66 214.642 27.3182 216.047 27.3182V25.3182C214.3 25.3182 212.726 25.7491 211.363 26.6403L212.458 28.3142ZM216.047 27.3182C216.843 27.3182 217.631 27.4504 218.417 27.719L219.064 25.8265C218.076 25.489 217.069 25.3182 216.047 25.3182V27.3182ZM218.417 27.719C219.16 27.9732 219.846 28.3883 220.477 28.9795L221.844 27.5205C221.021 26.748 220.093 26.1783 219.064 25.8265L218.417 27.719ZM220.481 28.9833C221.076 29.5354 221.579 30.2927 221.967 31.2933L223.832 30.5703C223.356 29.3437 222.699 28.313 221.84 27.5167L220.481 28.9833ZM221.967 31.2933C222.341 32.2581 222.547 33.4983 222.547 35.0455H224.547C224.547 33.335 224.321 31.8328 223.832 30.5703L221.967 31.2933ZM222.547 35.0455V36.1818H224.547V35.0455H222.547ZM223.547 35.1818H210.092V37.1818H223.547V35.1818ZM211.092 36.1818V33.8636H209.092V36.1818H211.092ZM210.092 34.8636H220.82V32.8636H210.092V34.8636ZM221.82 33.8636C221.82 32.7425 221.594 31.7045 221.12 30.7731L219.338 31.6815C219.651 32.2955 219.82 33.0151 219.82 33.8636H221.82ZM221.123 30.7801C220.656 29.8453 219.977 29.0948 219.097 28.5482L218.042 30.2472C218.601 30.5946 219.029 31.0638 219.334 31.6745L221.123 30.7801ZM219.101 28.5507C218.207 27.9892 217.175 27.7273 216.047 27.7273V29.7273C216.858 29.7273 217.508 29.9123 218.038 30.2447L219.101 28.5507ZM216.047 27.7273C214.806 27.7273 213.679 28.0382 212.712 28.6957L213.836 30.3498C214.429 29.9467 215.152 29.7273 216.047 29.7273V27.7273ZM212.714 28.6944C211.797 29.3147 211.087 30.1293 210.594 31.1242L212.386 32.0122C212.726 31.3253 213.206 30.7762 213.834 30.351L212.714 28.6944ZM210.594 31.1242C210.107 32.1067 209.865 33.1606 209.865 34.2727H211.865C211.865 33.4606 212.04 32.7115 212.386 32.0122L210.594 31.1242ZM209.865 34.2727V35.8182H211.865V34.2727H209.865ZM209.865 35.8182C209.865 37.2475 210.111 38.526 210.651 39.6147L212.443 38.7262C212.074 37.9815 211.865 37.0252 211.865 35.8182H209.865ZM210.655 39.6236C211.198 40.6903 211.967 41.5322 212.963 42.1138L213.971 40.3862C213.332 40.0132 212.82 39.4688 212.438 38.7173L210.655 39.6236ZM212.969 42.1173C213.96 42.6861 215.088 42.9545 216.32 42.9545V40.9545C215.385 40.9545 214.611 40.7533 213.965 40.3827L212.969 42.1173ZM216.32 42.9545C217.117 42.9545 217.866 42.8431 218.556 42.6039L217.901 40.7143C217.455 40.869 216.931 40.9545 216.32 40.9545V42.9545ZM218.563 42.6014C219.266 42.3519 219.886 41.9759 220.411 41.4701L219.023 40.0299C218.715 40.3272 218.343 40.5572 217.894 40.7168L218.563 42.6014ZM220.418 41.4636C220.949 40.9417 221.347 40.3061 221.62 39.5784L219.747 38.8761C219.565 39.3606 219.319 39.7401 219.017 40.0364L220.418 41.4636ZM220.413 40.1901L223.004 40.9173L223.544 38.9918L220.953 38.2645L220.413 40.1901ZM222.319 39.6581C222.093 40.3864 221.716 41.023 221.18 41.578L222.618 42.9675C223.37 42.1891 223.91 41.2803 224.229 40.2509L222.319 39.6581ZM221.184 41.5739C220.649 42.1216 219.977 42.5622 219.148 42.8872L219.878 44.7492C220.943 44.3317 221.862 43.7421 222.614 42.9716L221.184 41.5739ZM219.154 42.8846C218.339 43.1977 217.399 43.3636 216.32 43.3636V45.3636C217.604 45.3636 218.793 45.1659 219.871 44.7517L219.154 42.8846ZM167.705 82.7841L167.279 83.6889L167.285 83.6918L167.705 82.7841ZM165.557 80.9545L164.722 81.5056L164.725 81.5092L165.557 80.9545ZM165.352 75.6136L166.197 76.1492L166.2 76.1446L165.352 75.6136ZM169.114 73.3409L169.328 74.3178L169.334 74.3162L169.114 73.3409ZM171.534 72.9091L171.407 71.9173L171.404 71.9175L171.534 72.9091ZM174.114 72.6023L174.217 73.597L174.227 73.5959L174.114 72.6023ZM175.568 72.2273L175.079 71.3551L175.07 71.3604L175.568 72.2273ZM175.114 68.6136L174.398 69.312L174.402 69.3164L175.114 68.6136ZM169.341 68.5227L169.951 69.3147V69.3147L169.341 68.5227ZM167.807 70.3182L167.47 71.2599L168.33 71.5668L168.714 70.7393L167.807 70.3182ZM165.261 69.4091L164.342 69.0152L163.923 69.993L164.925 70.3508L165.261 69.4091ZM167.08 66.9318L167.695 67.7203L167.696 67.7195L167.08 66.9318ZM169.58 65.6818L169.832 66.6495L169.837 66.6481L169.58 65.6818ZM174.193 65.5227L174.009 66.5057L174.021 66.5077L174.193 65.5227ZM176.318 66.3295L175.804 67.187L175.808 67.1895L176.318 66.3295ZM178.034 68.1818L177.158 68.664V68.664L178.034 68.1818ZM178.716 83V84H179.716V83H178.716ZM176.034 83H175.034V84H176.034V83ZM176.034 80.6364H177.034V79.6364H176.034V80.6364ZM175.898 80.6364V79.6364H175.268L174.996 80.2036L175.898 80.6364ZM174.989 81.8523L175.702 82.5531L174.989 81.8523ZM173.295 82.9545L172.9 82.0359L173.295 82.9545ZM173.807 80.375L173.314 79.5051L173.31 79.5073L173.807 80.375ZM175.466 78.7614L174.599 78.2631L174.595 78.2706L175.466 78.7614ZM176.034 74.2273H177.034V71.4652L175.266 73.5871L176.034 74.2273ZM175.284 74.6023L175.554 75.5653L175.566 75.5616L175.284 74.6023ZM173.966 74.8864L174.118 75.8748L174.13 75.8728L173.966 74.8864ZM172.523 75.0909L172.637 76.0845L172.651 76.0827L172.523 75.0909ZM171.398 75.2273L171.527 76.2189L171.528 76.2187L171.398 75.2273ZM169.443 75.6705L169.756 76.6204L169.763 76.6179L169.443 75.6705ZM167.989 76.5682L167.254 75.8893L167.254 75.8899L167.989 76.5682ZM168.477 80.2955L167.908 81.1177L167.918 81.1247L168.477 80.2955ZM170.716 82.4091C169.738 82.4091 168.88 82.2256 168.124 81.8764L167.285 83.6918C168.332 84.1759 169.482 84.4091 170.716 84.4091V82.4091ZM168.13 81.8793C167.386 81.5291 166.814 81.0372 166.389 80.3998L164.725 81.5092C165.36 82.4628 166.22 83.1906 167.279 83.6889L168.13 81.8793ZM166.391 80.4035C165.987 79.7917 165.761 79.022 165.761 78.0455H163.761C163.761 79.3417 164.066 80.5113 164.722 81.5056L166.391 80.4035ZM165.761 78.0455C165.761 77.1691 165.935 76.5624 166.197 76.1492L164.508 75.0781C163.982 75.9073 163.761 76.9218 163.761 78.0455H165.761ZM166.2 76.1446C166.501 75.6637 166.899 75.2909 167.407 75.0162L166.457 73.2565C165.647 73.694 164.992 74.306 164.505 75.0827L166.2 76.1446ZM167.407 75.0162C167.977 74.7082 168.615 74.4737 169.328 74.3177L168.9 72.3641C168.021 72.5566 167.205 72.8524 166.457 73.2565L167.407 75.0162ZM169.334 74.3162C170.108 74.1412 170.884 74.0027 171.664 73.9006L171.404 71.9175C170.563 72.0276 169.726 72.177 168.893 72.3656L169.334 74.3162ZM171.662 73.9009C172.718 73.7651 173.569 73.6639 174.217 73.597L174.011 71.6076C173.34 71.677 172.471 71.7804 171.407 71.9173L171.662 73.9009ZM174.227 73.5959C174.927 73.5163 175.58 73.3738 176.067 73.0942L175.07 71.3604C174.95 71.4292 174.634 71.5368 174.001 71.6087L174.227 73.5959ZM176.057 73.0994C176.756 72.7078 177.034 72.0208 177.034 71.3182H175.034C175.034 71.4169 175.016 71.4356 175.028 71.4132C175.034 71.4018 175.043 71.3874 175.056 71.3739C175.063 71.3676 175.068 71.3629 175.073 71.3596C175.077 71.3563 175.079 71.3549 175.079 71.3551L176.057 73.0994ZM177.034 71.3182V71.2273H175.034V71.3182H177.034ZM177.034 71.2273C177.034 69.921 176.672 68.7683 175.825 67.9109L174.402 69.3164C174.783 69.7014 175.034 70.2911 175.034 71.2273H177.034ZM175.829 67.9153C174.967 67.0318 173.741 66.6818 172.352 66.6818V68.6818C173.433 68.6818 174.048 68.953 174.398 69.312L175.829 67.9153ZM172.352 66.6818C170.936 66.6818 169.69 66.9911 168.73 67.7307L169.951 69.3147C170.446 68.9332 171.207 68.6818 172.352 68.6818V66.6818ZM168.73 67.7307C167.914 68.3601 167.281 69.0771 166.9 69.8971L168.714 70.7393C168.924 70.2865 169.313 69.8065 169.951 69.3147L168.73 67.7307ZM168.143 69.3764L165.598 68.4674L164.925 70.3508L167.47 71.2599L168.143 69.3764ZM166.181 69.803C166.582 68.8664 167.094 68.1885 167.695 67.7203L166.465 66.1433C165.55 66.857 164.85 67.8306 164.342 69.0152L166.181 69.803ZM167.696 67.7195C168.358 67.2016 169.068 66.8484 169.832 66.6495L169.327 64.7141C168.288 64.9849 167.332 65.4651 166.463 66.1441L167.696 67.7195ZM169.837 66.6481C170.668 66.4265 171.475 66.3182 172.261 66.3182V64.3182C171.29 64.3182 170.309 64.4523 169.322 64.7156L169.837 66.6481ZM172.261 66.3182C172.744 66.3182 173.324 66.3773 174.009 66.5056L174.377 64.5399C173.607 64.3955 172.9 64.3182 172.261 64.3182V66.3182ZM174.021 66.5077C174.627 66.614 175.22 66.8369 175.804 67.187L176.833 65.472C176.053 65.004 175.229 64.6891 174.366 64.5377L174.021 66.5077ZM175.808 67.1895C176.319 67.4927 176.774 67.9668 177.158 68.664L178.91 67.6996C178.385 66.7453 177.696 65.9846 176.829 65.4696L175.808 67.1895ZM177.158 68.664C177.502 69.2887 177.716 70.2085 177.716 71.5H179.716C179.716 70.0188 179.475 68.7264 178.91 67.6996L177.158 68.664ZM177.716 71.5V83H179.716V71.5H177.716ZM178.716 82H176.034V84H178.716V82ZM177.034 83V80.6364H175.034V83H177.034ZM176.034 79.6364H175.898V81.6364H176.034V79.6364ZM174.996 80.2036C174.878 80.4501 174.653 80.7665 174.275 81.1515L175.702 82.5531C176.172 82.0744 176.554 81.5802 176.799 81.0691L174.996 80.2036ZM174.275 81.1515C173.963 81.4696 173.516 81.771 172.9 82.0359L173.691 83.8732C174.484 83.532 175.166 83.0986 175.702 82.5531L174.275 81.1515ZM172.9 82.0359C172.354 82.2709 171.637 82.4091 170.716 82.4091V84.4091C171.825 84.4091 172.828 84.2442 173.691 83.8732L172.9 82.0359ZM171.125 82C172.314 82 173.39 81.7662 174.304 81.2427L173.31 79.5073C172.769 79.8172 172.057 80 171.125 80V82ZM174.3 81.2449C175.174 80.7493 175.867 80.0876 176.337 79.2521L174.595 78.2706C174.323 78.7533 173.909 79.1674 173.314 79.5051L174.3 81.2449ZM176.333 79.2597C176.795 78.4561 177.034 77.592 177.034 76.6818H175.034C175.034 77.2262 174.895 77.7485 174.599 78.2631L176.333 79.2597ZM177.034 76.6818V74.2273H175.034V76.6818H177.034ZM175.266 73.5871C175.303 73.542 175.334 73.5198 175.34 73.5154C175.346 73.5105 175.34 73.5158 175.314 73.5289C175.26 73.5561 175.161 73.5962 175.002 73.6429L175.566 75.5616C175.794 75.4947 176.013 75.4155 176.209 75.3177C176.394 75.2251 176.621 75.085 176.802 74.8675L175.266 73.5871ZM175.014 73.6393C174.679 73.7334 174.276 73.821 173.802 73.9L174.13 75.8728C174.656 75.7851 175.132 75.6833 175.554 75.5652L175.014 73.6393ZM173.814 73.898C173.329 73.9726 172.856 74.0396 172.395 74.0991L172.651 76.0827C173.129 76.021 173.618 75.9517 174.118 75.8747L173.814 73.898ZM172.409 74.0974C171.944 74.1508 171.563 74.1969 171.267 74.2358L171.528 76.2187C171.808 76.1819 172.177 76.1371 172.637 76.0844L172.409 74.0974ZM171.268 74.2357C170.513 74.3342 169.797 74.4956 169.123 74.723L169.763 76.6179C170.301 76.4362 170.889 76.3022 171.527 76.2189L171.268 74.2357ZM169.131 74.7206C168.396 74.9625 167.757 75.3453 167.254 75.8893L168.723 77.247C168.962 76.9881 169.294 76.7724 169.756 76.6203L169.131 74.7206ZM167.254 75.8899C166.677 76.5148 166.443 77.3195 166.443 78.1818H168.443C168.443 77.6805 168.573 77.4095 168.723 77.2465L167.254 75.8899ZM166.443 78.1818C166.443 79.3991 166.916 80.4306 167.908 81.1176L169.046 79.4733C168.66 79.2058 168.443 78.8282 168.443 78.1818H166.443ZM167.918 81.1247C168.82 81.7324 169.911 82 171.125 82V80C170.202 80 169.528 79.7979 169.036 79.4662L167.918 81.1247ZM186.293 83V84H187.293V83H186.293ZM183.611 83H182.611V84H183.611V83ZM183.611 65.5455V64.5455H182.611V65.5455H183.611ZM186.202 65.5455H187.202V64.5455H186.202V65.5455ZM186.202 68.2727H185.202V69.2727H186.202V68.2727ZM186.429 68.2727V69.2727H187.069L187.337 68.6918L186.429 68.2727ZM188.293 66.1364L188.835 66.9766L188.84 66.9731L188.293 66.1364ZM194.622 66.0455L194.142 66.9228L194.148 66.9259L194.622 66.0455ZM196.69 68.2273L195.797 68.6773L195.799 68.68L196.69 68.2273ZM197.429 83V84H198.429V83H197.429ZM194.747 83H193.747V84H194.747V83ZM193.679 68.8864L192.944 69.5641L192.947 69.5676L193.679 68.8864ZM188.452 68.2841L187.969 67.4081L187.965 67.4104L188.452 68.2841ZM186.872 69.9091L185.993 69.4322L186.872 69.9091ZM185.293 72.5V83H187.293V72.5H185.293ZM186.293 82H183.611V84H186.293V82ZM184.611 83V65.5455H182.611V83H184.611ZM183.611 66.5455H186.202V64.5455H183.611V66.5455ZM185.202 65.5455V68.2727H187.202V65.5455H185.202ZM186.202 69.2727H186.429V67.2727H186.202V69.2727ZM187.337 68.6918C187.665 67.9805 188.158 67.4133 188.835 66.9765L187.75 65.2962C186.76 65.9352 186.011 66.7922 185.521 67.8537L187.337 68.6918ZM188.84 66.9731C189.466 66.5636 190.335 66.3182 191.52 66.3182V64.3182C190.069 64.3182 188.786 64.6183 187.745 65.2997L188.84 66.9731ZM191.52 66.3182C192.563 66.3182 193.426 66.5311 194.142 66.9228L195.102 65.1681C194.045 64.5901 192.841 64.3182 191.52 64.3182V66.3182ZM194.148 66.9259C194.838 67.2975 195.389 67.8663 195.797 68.6773L197.583 67.7773C197.007 66.6337 196.179 65.748 195.096 65.165L194.148 66.9259ZM195.799 68.68C196.199 69.4678 196.429 70.527 196.429 71.9091H198.429C198.429 70.3214 198.167 68.9262 197.582 67.7745L195.799 68.68ZM196.429 71.9091V83H198.429V71.9091H196.429ZM197.429 82H194.747V84H197.429V82ZM195.747 83V72.0909H193.747V83H195.747ZM195.747 72.0909C195.747 70.5479 195.344 69.2071 194.411 68.2051L192.947 69.5676C193.439 70.0959 193.747 70.8915 193.747 72.0909H195.747ZM194.414 68.2087C193.478 67.193 192.213 66.7273 190.747 66.7273V68.7273C191.766 68.7273 192.455 69.0343 192.944 69.564L194.414 68.2087ZM190.747 66.7273C189.742 66.7273 188.807 66.9467 187.969 67.4081L188.934 69.1601C189.444 68.8791 190.04 68.7273 190.747 68.7273V66.7273ZM187.965 67.4104C187.122 67.8797 186.464 68.564 185.993 69.4322L187.751 70.386C188.053 69.8299 188.448 69.4309 188.938 69.1578L187.965 67.4104ZM185.993 69.4322C185.51 70.3232 185.293 71.3597 185.293 72.5H187.293C187.293 71.61 187.462 70.9192 187.751 70.386L185.993 69.4322ZM141.678 122H140.678V123H141.678V122ZM141.678 98.7273V97.7273H140.678V98.7273H141.678ZM155.723 98.7273H156.723V97.7273H155.723V98.7273ZM155.723 101.227V102.227H156.723V101.227H155.723ZM144.496 101.227V100.227H143.496V101.227H144.496ZM144.496 109.091H143.496V110.091H144.496V109.091ZM154.996 109.091H155.996V108.091H154.996V109.091ZM154.996 111.591V112.591H155.996V111.591H154.996ZM144.496 111.591V110.591H143.496V111.591H144.496ZM144.496 119.5H143.496V120.5H144.496V119.5ZM155.905 119.5H156.905V118.5H155.905V119.5ZM155.905 122V123H156.905V122H155.905ZM142.678 122V98.7273H140.678V122H142.678ZM141.678 99.7273H155.723V97.7273H141.678V99.7273ZM154.723 98.7273V101.227H156.723V98.7273H154.723ZM155.723 100.227H144.496V102.227H155.723V100.227ZM143.496 101.227V109.091H145.496V101.227H143.496ZM144.496 110.091H154.996V108.091H144.496V110.091ZM153.996 109.091V111.591H155.996V109.091H153.996ZM154.996 110.591H144.496V112.591H154.996V110.591ZM143.496 111.591V119.5H145.496V111.591H143.496ZM144.496 120.5H155.905V118.5H144.496V120.5ZM154.905 119.5V122H156.905V119.5H154.905ZM155.905 121H141.678V123H155.905V121ZM174.712 104.545L175.65 104.892L176.148 103.545H174.712V104.545ZM168.257 122V123H168.953L169.195 122.347L168.257 122ZM165.53 122L164.592 122.347L164.833 123H165.53V122ZM159.075 104.545V103.545H157.639L158.137 104.892L159.075 104.545ZM161.984 104.545L162.929 104.218L162.696 103.545H161.984V104.545ZM166.803 118.455L165.858 118.782L166.091 119.455H166.803V118.455ZM166.984 118.455V119.455H167.696L167.929 118.782L166.984 118.455ZM171.803 104.545V103.545H171.091L170.858 104.218L171.803 104.545ZM173.774 104.199L167.319 121.653L169.195 122.347L175.65 104.892L173.774 104.199ZM168.257 121H165.53V123H168.257V121ZM166.468 121.653L160.013 104.199L158.137 104.892L164.592 122.347L166.468 121.653ZM159.075 105.545H161.984V103.545H159.075V105.545ZM161.039 104.873L165.858 118.782L167.747 118.127L162.929 104.218L161.039 104.873ZM166.803 119.455H166.984V117.455H166.803V119.455ZM167.929 118.782L172.747 104.873L170.858 104.218L166.039 118.127L167.929 118.782ZM171.803 105.545H174.712V103.545H171.803V105.545ZM180.592 121.25L180.066 122.1L180.072 122.104L180.592 121.25ZM177.786 118.114L176.885 118.549L176.888 118.555L177.786 118.114ZM177.786 108.682L176.884 108.249L176.883 108.251L177.786 108.682ZM180.536 105.477L181.081 106.315L181.083 106.314L180.536 105.477ZM187.365 104.773L187.689 103.826L187.365 104.773ZM189.786 106.25L189.102 106.98L189.106 106.983L189.786 106.25ZM191.524 108.932L192.457 108.57L191.524 108.932ZM192.172 114.182V115.182H193.172V114.182H192.172ZM178.717 114.182H177.717V115.182H178.717V114.182ZM178.717 111.864V110.864H177.717V111.864H178.717ZM189.445 111.864V112.864H190.445V111.864H189.445ZM188.854 109.227L187.959 109.674L187.963 109.681L188.854 109.227ZM187.195 107.398L186.663 108.245L186.667 108.247L187.195 107.398ZM181.899 107.523L182.459 108.351L182.461 108.35L181.899 107.523ZM180.115 109.568L179.219 109.124L180.115 109.568ZM180.172 117.17L179.276 117.615L179.28 117.624L180.172 117.17ZM182.092 119.25L181.588 120.114L181.594 120.117L182.092 119.25ZM186.854 119.659L187.181 120.604L187.188 120.601L186.854 119.659ZM188.342 118.75L189.036 119.47L189.043 119.464L188.342 118.75ZM189.308 117.227L189.578 116.264L188.694 116.016L188.372 116.876L189.308 117.227ZM191.899 117.955L192.854 118.251L193.159 117.269L192.169 116.992L191.899 117.955ZM190.524 120.273L191.239 120.972L191.243 120.967L190.524 120.273ZM188.138 121.818L188.496 122.752L188.503 122.749L188.138 121.818ZM184.945 121.364C183.413 121.364 182.149 121.027 181.112 120.396L180.072 122.104C181.475 122.958 183.112 123.364 184.945 123.364V121.364ZM181.118 120.4C180.074 119.753 179.263 118.853 178.683 117.673L176.888 118.555C177.626 120.056 178.686 121.247 180.066 122.1L181.118 120.4ZM178.686 117.679C178.111 116.49 177.808 115.075 177.808 113.409H175.808C175.808 115.319 176.157 117.041 176.885 118.549L178.686 117.679ZM177.808 113.409C177.808 111.743 178.111 110.319 178.688 109.113L176.883 108.251C176.157 109.771 175.808 111.499 175.808 113.409H177.808ZM178.687 109.115C179.274 107.894 180.073 106.972 181.081 106.315L179.99 104.639C178.649 105.513 177.616 106.727 176.884 108.249L178.687 109.115ZM181.083 106.314C182.083 105.66 183.267 105.318 184.672 105.318V103.318C182.925 103.318 181.351 103.749 179.988 104.64L181.083 106.314ZM184.672 105.318C185.468 105.318 186.256 105.45 187.042 105.719L187.689 103.826C186.701 103.489 185.694 103.318 184.672 103.318V105.318ZM187.042 105.719C187.785 105.973 188.471 106.388 189.102 106.98L190.469 105.52C189.646 104.748 188.718 104.178 187.689 103.826L187.042 105.719ZM189.106 106.983C189.701 107.535 190.204 108.293 190.592 109.293L192.457 108.57C191.981 107.344 191.324 106.313 190.465 105.517L189.106 106.983ZM190.592 109.293C190.966 110.258 191.172 111.498 191.172 113.045H193.172C193.172 111.335 192.946 109.833 192.457 108.57L190.592 109.293ZM191.172 113.045V114.182H193.172V113.045H191.172ZM192.172 113.182H178.717V115.182H192.172V113.182ZM179.717 114.182V111.864H177.717V114.182H179.717ZM178.717 112.864H189.445V110.864H178.717V112.864ZM190.445 111.864C190.445 110.742 190.219 109.704 189.745 108.773L187.963 109.681C188.276 110.296 188.445 111.015 188.445 111.864H190.445ZM189.748 108.78C189.281 107.845 188.602 107.095 187.722 106.548L186.667 108.247C187.226 108.595 187.654 109.064 187.959 109.674L189.748 108.78ZM187.726 106.551C186.832 105.989 185.8 105.727 184.672 105.727V107.727C185.483 107.727 186.133 107.912 186.663 108.245L187.726 106.551ZM184.672 105.727C183.431 105.727 182.304 106.038 181.337 106.696L182.461 108.35C183.054 107.947 183.777 107.727 184.672 107.727V105.727ZM181.339 106.694C180.422 107.315 179.712 108.129 179.219 109.124L181.011 110.012C181.351 109.325 181.831 108.776 182.459 108.351L181.339 106.694ZM179.219 109.124C178.732 110.107 178.49 111.161 178.49 112.273H180.49C180.49 111.461 180.665 110.712 181.011 110.012L179.219 109.124ZM178.49 112.273V113.818H180.49V112.273H178.49ZM178.49 113.818C178.49 115.248 178.736 116.526 179.276 117.615L181.068 116.726C180.699 115.982 180.49 115.025 180.49 113.818H178.49ZM179.28 117.624C179.823 118.69 180.592 119.532 181.588 120.114L182.596 118.386C181.957 118.013 181.445 117.469 181.063 116.717L179.28 117.624ZM181.594 120.117C182.585 120.686 183.713 120.955 184.945 120.955V118.955C184.01 118.955 183.236 118.753 182.59 118.383L181.594 120.117ZM184.945 120.955C185.742 120.955 186.491 120.843 187.181 120.604L186.526 118.714C186.08 118.869 185.556 118.955 184.945 118.955V120.955ZM187.188 120.601C187.891 120.352 188.511 119.976 189.036 119.47L187.648 118.03C187.34 118.327 186.968 118.557 186.519 118.717L187.188 120.601ZM189.043 119.464C189.574 118.942 189.972 118.306 190.245 117.578L188.372 116.876C188.19 117.361 187.944 117.74 187.642 118.036L189.043 119.464ZM189.038 118.19L191.629 118.917L192.169 116.992L189.578 116.264L189.038 118.19ZM190.944 117.658C190.718 118.386 190.341 119.023 189.805 119.578L191.243 120.967C191.995 120.189 192.535 119.28 192.854 118.251L190.944 117.658ZM189.809 119.574C189.274 120.122 188.602 120.562 187.773 120.887L188.503 122.749C189.568 122.332 190.487 121.742 191.239 120.972L189.809 119.574ZM187.779 120.885C186.964 121.198 186.024 121.364 184.945 121.364V123.364C186.229 123.364 187.418 123.166 188.496 122.752L187.779 120.885ZM198.933 122V123H199.933V122H198.933ZM196.251 122H195.251V123H196.251V122ZM196.251 104.545V103.545H195.251V104.545H196.251ZM198.842 104.545H199.842V103.545H198.842V104.545ZM198.842 107.273H197.842V108.273H198.842V107.273ZM199.07 107.273V108.273H199.709L199.978 107.692L199.07 107.273ZM200.933 105.136L201.476 105.977L201.481 105.973L200.933 105.136ZM207.263 105.045L206.783 105.923L206.789 105.926L207.263 105.045ZM209.331 107.227L208.438 107.677L208.439 107.68L209.331 107.227ZM210.07 122V123H211.07V122H210.07ZM207.388 122H206.388V123H207.388V122ZM206.32 107.886L205.584 108.564L205.588 108.568L206.32 107.886ZM201.092 107.284L200.61 106.408L200.606 106.41L201.092 107.284ZM199.513 108.909L198.634 108.432L199.513 108.909ZM197.933 111.5V122H199.933V111.5H197.933ZM198.933 121H196.251V123H198.933V121ZM197.251 122V104.545H195.251V122H197.251ZM196.251 105.545H198.842V103.545H196.251V105.545ZM197.842 104.545V107.273H199.842V104.545H197.842ZM198.842 108.273H199.07V106.273H198.842V108.273ZM199.978 107.692C200.306 106.981 200.799 106.413 201.476 105.977L200.391 104.296C199.401 104.935 198.652 105.792 198.162 106.854L199.978 107.692ZM201.481 105.973C202.107 105.564 202.975 105.318 204.161 105.318V103.318C202.71 103.318 201.427 103.618 200.386 104.3L201.481 105.973ZM204.161 105.318C205.203 105.318 206.067 105.531 206.783 105.923L207.743 104.168C206.686 103.59 205.481 103.318 204.161 103.318V105.318ZM206.789 105.926C207.479 106.298 208.029 106.866 208.438 107.677L210.224 106.777C209.648 105.634 208.82 104.748 207.737 104.165L206.789 105.926ZM208.439 107.68C208.839 108.468 209.07 109.527 209.07 110.909H211.07C211.07 109.321 210.807 107.926 210.223 106.774L208.439 107.68ZM209.07 110.909V122H211.07V110.909H209.07ZM210.07 121H207.388V123H210.07V121ZM208.388 122V111.091H206.388V122H208.388ZM208.388 111.091C208.388 109.548 207.984 108.207 207.052 107.205L205.588 108.568C206.079 109.096 206.388 109.891 206.388 111.091H208.388ZM207.055 107.209C206.119 106.193 204.854 105.727 203.388 105.727V107.727C204.406 107.727 205.096 108.034 205.584 108.564L207.055 107.209ZM203.388 105.727C202.382 105.727 201.448 105.947 200.61 106.408L201.575 108.16C202.085 107.879 202.681 107.727 203.388 107.727V105.727ZM200.606 106.41C199.763 106.88 199.105 107.564 198.634 108.432L200.392 109.386C200.693 108.83 201.088 108.431 201.579 108.158L200.606 106.41ZM198.634 108.432C198.15 109.323 197.933 110.36 197.933 111.5H199.933C199.933 110.61 200.102 109.919 200.392 109.386L198.634 108.432ZM222.561 104.545H223.561V103.545H222.561V104.545ZM222.561 106.818V107.818H223.561V106.818H222.561ZM213.516 106.818H212.516V107.818H213.516V106.818ZM213.516 104.545V103.545H212.516V104.545H213.516ZM216.152 100.364V99.3636H215.152V100.364H216.152ZM218.834 100.364H219.834V99.3636H218.834V100.364ZM219.163 118.705L218.298 119.206L218.304 119.217L218.311 119.227L219.163 118.705ZM220.027 119.455L219.68 120.393L219.692 120.397L219.705 120.401L220.027 119.455ZM221.879 119.591L222.037 120.578L222.056 120.575L222.075 120.571L221.879 119.591ZM222.334 119.5L223.309 119.279L223.094 118.328L222.138 118.519L222.334 119.5ZM222.879 121.909L223.23 122.845L224.047 122.539L223.855 121.688L222.879 121.909ZM222.118 122.114L221.913 121.135L221.902 121.137L221.891 121.14L222.118 122.114ZM218.652 121.739L218.24 122.65L218.243 122.651L218.652 121.739ZM216.857 120.25L216.039 120.826L216.043 120.832L216.857 120.25ZM221.561 104.545V106.818H223.561V104.545H221.561ZM222.561 105.818H213.516V107.818H222.561V105.818ZM214.516 106.818V104.545H212.516V106.818H214.516ZM213.516 105.545H222.561V103.545H213.516V105.545ZM216.152 101.364H218.834V99.3636H216.152V101.364ZM217.834 100.364V117H219.834V100.364H217.834ZM217.834 117C217.834 117.821 217.947 118.601 218.298 119.206L220.028 118.203C219.94 118.051 219.834 117.694 219.834 117H217.834ZM218.311 119.227C218.634 119.755 219.086 120.173 219.68 120.393L220.374 118.517C220.271 118.478 220.147 118.396 220.016 118.182L218.311 119.227ZM219.705 120.401C220.169 120.559 220.654 120.636 221.152 120.636V118.636C220.862 118.636 220.597 118.592 220.349 118.508L219.705 120.401ZM221.152 120.636C221.475 120.636 221.776 120.62 222.037 120.578L221.721 118.603C221.604 118.622 221.42 118.636 221.152 118.636V120.636ZM222.075 120.571C222.265 120.534 222.416 120.503 222.53 120.481L222.138 118.519C222.024 118.542 221.873 118.572 221.683 118.61L222.075 120.571ZM221.358 119.721L221.904 122.13L223.855 121.688L223.309 119.279L221.358 119.721ZM222.528 120.973C222.416 121.015 222.219 121.071 221.913 121.135L222.323 123.092C222.669 123.02 222.979 122.94 223.23 122.845L222.528 120.973ZM221.891 121.14C221.667 121.192 221.337 121.227 220.879 121.227V123.227C221.422 123.227 221.918 123.187 222.344 123.088L221.891 121.14ZM220.879 121.227C220.27 121.227 219.666 121.097 219.061 120.826L218.243 122.651C219.092 123.032 219.974 123.227 220.879 123.227V121.227ZM219.064 120.828C218.511 120.577 218.049 120.197 217.67 119.668L216.043 120.832C216.619 121.636 217.354 122.249 218.24 122.65L219.064 120.828ZM217.674 119.674C217.349 119.213 217.152 118.587 217.152 117.727H215.152C215.152 118.898 215.424 119.953 216.039 120.826L217.674 119.674ZM217.152 117.727V100.364H215.152V117.727H217.152Z" fill="black"/>
<rect x="10" y="168" width="343" height="54" rx="10" fill="#3B82F7"/>
<g filter="url(#filter0_d_559_861)">
<path d="M96.9361 189.545C96.7997 188.394 96.2467 187.5 95.277 186.864C94.3073 186.227 93.1179 185.909 91.7088 185.909C90.6785 185.909 89.777 186.076 89.0043 186.409C88.2391 186.742 87.6406 187.201 87.2088 187.784C86.7846 188.367 86.5724 189.03 86.5724 189.773C86.5724 190.394 86.7202 190.928 87.0156 191.375C87.3187 191.814 87.705 192.182 88.1747 192.477C88.6444 192.765 89.1368 193.004 89.652 193.193C90.1671 193.375 90.6406 193.523 91.0724 193.636L93.4361 194.273C94.0421 194.432 94.7164 194.652 95.4588 194.932C96.2088 195.212 96.9247 195.595 97.6065 196.08C98.2959 196.557 98.8641 197.17 99.3111 197.92C99.7581 198.67 99.9815 199.591 99.9815 200.682C99.9815 201.939 99.652 203.076 98.9929 204.091C98.3414 205.106 97.3868 205.913 96.1293 206.511C94.8793 207.11 93.3603 207.409 91.5724 207.409C89.9058 207.409 88.4626 207.14 87.2429 206.602C86.0308 206.064 85.0762 205.314 84.3793 204.352C83.6899 203.39 83.2997 202.273 83.2088 201H86.1179C86.1937 201.879 86.4891 202.606 87.0043 203.182C87.527 203.75 88.1861 204.174 88.9815 204.455C89.7846 204.727 90.6482 204.864 91.5724 204.864C92.6482 204.864 93.6141 204.689 94.4702 204.341C95.3262 203.985 96.0043 203.492 96.5043 202.864C97.0043 202.227 97.2543 201.485 97.2543 200.636C97.2543 199.864 97.0384 199.235 96.6065 198.75C96.1747 198.265 95.6065 197.871 94.902 197.568C94.1974 197.265 93.4361 197 92.6179 196.773L89.7543 195.955C87.9361 195.432 86.4967 194.686 85.4361 193.716C84.3755 192.746 83.8452 191.477 83.8452 189.909C83.8452 188.606 84.1974 187.47 84.902 186.5C85.6141 185.523 86.5687 184.765 87.7656 184.227C88.9702 183.682 90.3149 183.409 91.7997 183.409C93.2997 183.409 94.633 183.678 95.7997 184.216C96.9664 184.746 97.8906 185.473 98.5724 186.398C99.2618 187.322 99.6255 188.371 99.6634 189.545H96.9361ZM115.251 199.864V189.545H117.933V207H115.251V204.045H115.07C114.661 204.932 114.024 205.686 113.161 206.307C112.297 206.92 111.206 207.227 109.888 207.227C108.797 207.227 107.827 206.989 106.979 206.511C106.13 206.027 105.464 205.299 104.979 204.33C104.494 203.352 104.251 202.121 104.251 200.636V189.545H106.933V200.455C106.933 201.727 107.289 202.742 108.001 203.5C108.721 204.258 109.638 204.636 110.751 204.636C111.418 204.636 112.096 204.466 112.786 204.125C113.482 203.784 114.066 203.261 114.536 202.557C115.013 201.852 115.251 200.955 115.251 199.864ZM123.209 207V183.727H125.891V192.318H126.118C126.315 192.015 126.588 191.629 126.936 191.159C127.292 190.682 127.8 190.258 128.459 189.886C129.125 189.508 130.027 189.318 131.163 189.318C132.633 189.318 133.929 189.686 135.05 190.42C136.171 191.155 137.046 192.197 137.675 193.545C138.304 194.894 138.618 196.485 138.618 198.318C138.618 200.167 138.304 201.769 137.675 203.125C137.046 204.473 136.175 205.519 135.061 206.261C133.947 206.996 132.663 207.364 131.209 207.364C130.088 207.364 129.19 207.178 128.516 206.807C127.841 206.428 127.322 206 126.959 205.523C126.595 205.038 126.315 204.636 126.118 204.318H125.8V207H123.209ZM125.845 198.273C125.845 199.591 126.038 200.754 126.425 201.761C126.811 202.761 127.375 203.545 128.118 204.114C128.86 204.674 129.769 204.955 130.845 204.955C131.966 204.955 132.902 204.659 133.652 204.068C134.41 203.47 134.978 202.667 135.357 201.659C135.743 200.644 135.936 199.515 135.936 198.273C135.936 197.045 135.747 195.939 135.368 194.955C134.997 193.962 134.432 193.178 133.675 192.602C132.925 192.019 131.982 191.727 130.845 191.727C129.754 191.727 128.838 192.004 128.095 192.557C127.353 193.102 126.792 193.867 126.413 194.852C126.035 195.83 125.845 196.97 125.845 198.273ZM142.72 207V189.545H145.311V192.273H145.538C145.902 191.341 146.489 190.617 147.3 190.102C148.11 189.58 149.084 189.318 150.22 189.318C151.372 189.318 152.33 189.58 153.095 190.102C153.868 190.617 154.47 191.341 154.902 192.273H155.084C155.531 191.371 156.201 190.655 157.095 190.125C157.989 189.587 159.061 189.318 160.311 189.318C161.872 189.318 163.148 189.807 164.141 190.784C165.133 191.754 165.629 193.265 165.629 195.318V207H162.947V195.318C162.947 194.03 162.595 193.11 161.891 192.557C161.186 192.004 160.357 191.727 159.402 191.727C158.175 191.727 157.224 192.098 156.55 192.841C155.875 193.576 155.538 194.508 155.538 195.636V207H152.811V195.045C152.811 194.053 152.489 193.254 151.845 192.648C151.201 192.034 150.372 191.727 149.357 191.727C148.66 191.727 148.008 191.913 147.402 192.284C146.804 192.655 146.319 193.17 145.947 193.83C145.584 194.481 145.402 195.235 145.402 196.091V207H142.72ZM170.533 207V189.545H173.214V207H170.533ZM171.896 186.636C171.374 186.636 170.923 186.458 170.544 186.102C170.173 185.746 169.987 185.318 169.987 184.818C169.987 184.318 170.173 183.89 170.544 183.534C170.923 183.178 171.374 183 171.896 183C172.419 183 172.866 183.178 173.237 183.534C173.616 183.89 173.805 184.318 173.805 184.818C173.805 185.318 173.616 185.746 173.237 186.102C172.866 186.458 172.419 186.636 171.896 186.636ZM185.717 189.545V191.818H176.672V189.545H185.717ZM179.308 185.364H181.99V202C181.99 202.758 182.1 203.326 182.32 203.705C182.547 204.076 182.835 204.326 183.183 204.455C183.539 204.576 183.914 204.636 184.308 204.636C184.604 204.636 184.846 204.621 185.036 204.591C185.225 204.553 185.376 204.523 185.49 204.5L186.036 206.909C185.854 206.977 185.6 207.045 185.274 207.114C184.948 207.189 184.536 207.227 184.036 207.227C183.278 207.227 182.536 207.064 181.808 206.739C181.089 206.413 180.49 205.917 180.013 205.25C179.543 204.583 179.308 203.742 179.308 202.727V185.364ZM199.115 207V183.727H213.07V186.227H201.933V194.091H212.024V196.591H201.933V207H199.115ZM223.342 207.364C221.767 207.364 220.384 206.989 219.195 206.239C218.013 205.489 217.089 204.439 216.422 203.091C215.763 201.742 215.433 200.167 215.433 198.364C215.433 196.545 215.763 194.958 216.422 193.602C217.089 192.246 218.013 191.193 219.195 190.443C220.384 189.693 221.767 189.318 223.342 189.318C224.918 189.318 226.297 189.693 227.479 190.443C228.668 191.193 229.592 192.246 230.251 193.602C230.918 194.958 231.251 196.545 231.251 198.364C231.251 200.167 230.918 201.742 230.251 203.091C229.592 204.439 228.668 205.489 227.479 206.239C226.297 206.989 224.918 207.364 223.342 207.364ZM223.342 204.955C224.539 204.955 225.524 204.648 226.297 204.034C227.07 203.42 227.642 202.614 228.013 201.614C228.384 200.614 228.57 199.53 228.57 198.364C228.57 197.197 228.384 196.11 228.013 195.102C227.642 194.095 227.07 193.28 226.297 192.659C225.524 192.038 224.539 191.727 223.342 191.727C222.145 191.727 221.161 192.038 220.388 192.659C219.615 193.28 219.043 194.095 218.672 195.102C218.301 196.11 218.115 197.197 218.115 198.364C218.115 199.53 218.301 200.614 218.672 201.614C219.043 202.614 219.615 203.42 220.388 204.034C221.161 204.648 222.145 204.955 223.342 204.955ZM235.345 207V189.545H237.936V192.182H238.118C238.436 191.318 239.012 190.617 239.845 190.08C240.679 189.542 241.618 189.273 242.663 189.273C242.86 189.273 243.107 189.277 243.402 189.284C243.697 189.292 243.921 189.303 244.072 189.318V192.045C243.982 192.023 243.773 191.989 243.447 191.943C243.129 191.89 242.792 191.864 242.436 191.864C241.588 191.864 240.83 192.042 240.163 192.398C239.504 192.746 238.982 193.231 238.595 193.852C238.216 194.466 238.027 195.167 238.027 195.955V207H235.345ZM247.251 207V189.545H249.842V192.273H250.07C250.433 191.341 251.02 190.617 251.831 190.102C252.642 189.58 253.615 189.318 254.751 189.318C255.903 189.318 256.861 189.58 257.626 190.102C258.399 190.617 259.001 191.341 259.433 192.273H259.615C260.062 191.371 260.732 190.655 261.626 190.125C262.52 189.587 263.592 189.318 264.842 189.318C266.403 189.318 267.679 189.807 268.672 190.784C269.664 191.754 270.161 193.265 270.161 195.318V207H267.479V195.318C267.479 194.03 267.126 193.11 266.422 192.557C265.717 192.004 264.888 191.727 263.933 191.727C262.706 191.727 261.755 192.098 261.081 192.841C260.407 193.576 260.07 194.508 260.07 195.636V207H257.342V195.045C257.342 194.053 257.02 193.254 256.376 192.648C255.732 192.034 254.903 191.727 253.888 191.727C253.191 191.727 252.539 191.913 251.933 192.284C251.335 192.655 250.85 193.17 250.479 193.83C250.115 194.481 249.933 195.235 249.933 196.091V207H247.251Z" fill="white"/>
</g>
<defs>
<filter id="filter0_d_559_861" x="79.2088" y="183" width="194.952" height="32.4092" filterUnits="userSpaceOnUse" color-interpolation-filters="sRGB">
<feFlood flood-opacity="0" result="BackgroundImageFix"/>
<feColorMatrix in="SourceAlpha" type="matrix" values="0 0 0 0 0 0 0 0 0 0 0 0 0 0 0 0 0 0 127 0" result="hardAlpha"/>
<feOffset dy="4"/>
<feGaussianBlur stdDeviation="2"/>
<feComposite in2="hardAlpha" operator="out"/>
<feColorMatrix type="matrix" values="0 0 0 0 0 0 0 0 0 0 0 0 0 0 0 0 0 0 0.25 0"/>
<feBlend mode="normal" in2="BackgroundImageFix" result="effect1_dropShadow_559_861"/>
<feBlend mode="normal" in="SourceGraphic" in2="effect1_dropShadow_559_861" result="shape"/>
</filter>
</defs>
</svg>
