<svg width="115" height="30" viewBox="0 0 115 30" fill="none" xmlns="http://www.w3.org/2000/svg">
<path d="M0 10C0 4.47715 4.47715 0 10 0H105C110.523 0 115 4.47715 115 10V20C115 25.5228 110.523 30 105 30H10C4.47715 30 0 25.5228 0 20V10Z" fill="black"/>
<g filter="url(#filter0_b_551_853)">
<path d="M19.3636 21H14.4347V6.45455H19.4631C20.9072 6.45455 22.1477 6.74574 23.1847 7.32812C24.2263 7.90578 25.0265 8.73674 25.5852 9.82102C26.1439 10.9053 26.4233 12.2027 26.4233 13.7131C26.4233 15.2282 26.1416 16.5303 25.5781 17.6193C25.0194 18.7083 24.2121 19.544 23.1562 20.1264C22.1051 20.7088 20.8409 21 19.3636 21ZM17.0696 18.7202H19.2358C20.2491 18.7202 21.0942 18.5355 21.7713 18.1662C22.4484 17.7921 22.9574 17.2358 23.2983 16.4972C23.6392 15.7538 23.8097 14.8258 23.8097 13.7131C23.8097 12.6004 23.6392 11.6771 23.2983 10.9432C22.9574 10.2045 22.4531 9.65294 21.7855 9.28835C21.1226 8.91903 20.2988 8.73438 19.3139 8.73438H17.0696V18.7202ZM33.6428 21.2131C32.549 21.2131 31.6044 20.9858 30.8089 20.5312C30.0182 20.072 29.4098 19.4233 28.9837 18.5852C28.5575 17.7424 28.3445 16.7505 28.3445 15.6094C28.3445 14.4872 28.5575 13.5024 28.9837 12.6548C29.4145 11.8026 30.0159 11.1397 30.7876 10.6662C31.5594 10.188 32.4661 9.94886 33.5078 9.94886C34.1802 9.94886 34.8146 10.0578 35.4112 10.2756C36.0125 10.4886 36.5429 10.8201 37.0021 11.2699C37.4661 11.7197 37.8307 12.2926 38.0959 12.9886C38.361 13.6799 38.4936 14.5038 38.4936 15.4602V16.2486H29.5518V14.5156H36.0291C36.0244 14.0232 35.9179 13.5852 35.7095 13.2017C35.5012 12.8134 35.21 12.508 34.8359 12.2855C34.4666 12.063 34.0357 11.9517 33.5433 11.9517C33.0178 11.9517 32.5561 12.0795 32.1584 12.3352C31.7607 12.5862 31.4505 12.9176 31.228 13.3295C31.0102 13.7367 30.8989 14.1842 30.8942 14.6719V16.1847C30.8942 16.8191 31.0102 17.3636 31.2422 17.8182C31.4742 18.268 31.7985 18.6136 32.2152 18.8551C32.6319 19.0919 33.1196 19.2102 33.6783 19.2102C34.0523 19.2102 34.3909 19.1581 34.6939 19.054C34.9969 18.9451 35.2597 18.7865 35.4822 18.5781C35.7048 18.3698 35.8729 18.1117 35.9865 17.804L38.3871 18.0739C38.2356 18.7083 37.9467 19.2623 37.5206 19.7358C37.0992 20.2045 36.5594 20.5691 35.9013 20.8295C35.2431 21.0852 34.4903 21.2131 33.6428 21.2131ZM43.2397 6.45455V21H40.6687V6.45455H43.2397ZM50.7131 21.2131C49.6193 21.2131 48.6747 20.9858 47.8793 20.5312C47.0885 20.072 46.4801 19.4233 46.054 18.5852C45.6278 17.7424 45.4148 16.7505 45.4148 15.6094C45.4148 14.4872 45.6278 13.5024 46.054 12.6548C46.4848 11.8026 47.0862 11.1397 47.858 10.6662C48.6297 10.188 49.5365 9.94886 50.5781 9.94886C51.2505 9.94886 51.8849 10.0578 52.4815 10.2756C53.0829 10.4886 53.6132 10.8201 54.0724 11.2699C54.5365 11.7197 54.901 12.2926 55.1662 12.9886C55.4313 13.6799 55.5639 14.5038 55.5639 15.4602V16.2486H46.6222V14.5156H53.0994C53.0947 14.0232 52.9882 13.5852 52.7798 13.2017C52.5715 12.8134 52.2803 12.508 51.9062 12.2855C51.5369 12.063 51.1061 11.9517 50.6136 11.9517C50.0881 11.9517 49.6264 12.0795 49.2287 12.3352C48.831 12.5862 48.5208 12.9176 48.2983 13.3295C48.0805 13.7367 47.9692 14.1842 47.9645 14.6719V16.1847C47.9645 16.8191 48.0805 17.3636 48.3125 17.8182C48.5445 18.268 48.8688 18.6136 49.2855 18.8551C49.7022 19.0919 50.1899 19.2102 50.7486 19.2102C51.1226 19.2102 51.4612 19.1581 51.7642 19.054C52.0672 18.9451 52.33 18.7865 52.5526 18.5781C52.7751 18.3698 52.9432 18.1117 53.0568 17.804L55.4574 18.0739C55.3059 18.7083 55.017 19.2623 54.5909 19.7358C54.1695 20.2045 53.6297 20.5691 52.9716 20.8295C52.3134 21.0852 51.5606 21.2131 50.7131 21.2131ZM63.1864 10.0909V12.0795H56.9151V10.0909H63.1864ZM58.4634 7.47727H61.0344V17.7188C61.0344 18.0644 61.0865 18.3295 61.1907 18.5142C61.2996 18.6941 61.4416 18.8172 61.6168 18.8835C61.792 18.9498 61.9862 18.983 62.1992 18.983C62.3602 18.983 62.507 18.9711 62.6396 18.9474C62.7769 18.9238 62.881 18.9025 62.9521 18.8835L63.3853 20.8935C63.248 20.9408 63.0515 20.9929 62.7958 21.0497C62.5449 21.1065 62.2371 21.1397 61.8725 21.1491C61.2286 21.1681 60.6486 21.071 60.1325 20.858C59.6164 20.6402 59.2068 20.304 58.9038 19.8494C58.6055 19.3949 58.4587 18.8267 58.4634 18.1449V7.47727ZM70.049 21.2131C68.9553 21.2131 68.0107 20.9858 67.2152 20.5312C66.4245 20.072 65.8161 19.4233 65.3899 18.5852C64.9638 17.7424 64.7507 16.7505 64.7507 15.6094C64.7507 14.4872 64.9638 13.5024 65.3899 12.6548C65.8208 11.8026 66.4221 11.1397 67.1939 10.6662C67.9657 10.188 68.8724 9.94886 69.9141 9.94886C70.5864 9.94886 71.2209 10.0578 71.8175 10.2756C72.4188 10.4886 72.9491 10.8201 73.4084 11.2699C73.8724 11.7197 74.237 12.2926 74.5021 12.9886C74.7673 13.6799 74.8999 14.5038 74.8999 15.4602V16.2486H65.9581V14.5156H72.4354C72.4306 14.0232 72.3241 13.5852 72.1158 13.2017C71.9074 12.8134 71.6162 12.508 71.2422 12.2855C70.8729 12.063 70.442 11.9517 69.9496 11.9517C69.424 11.9517 68.9624 12.0795 68.5646 12.3352C68.1669 12.5862 67.8568 12.9176 67.6342 13.3295C67.4164 13.7367 67.3052 14.1842 67.3004 14.6719V16.1847C67.3004 16.8191 67.4164 17.3636 67.6484 17.8182C67.8804 18.268 68.2048 18.6136 68.6214 18.8551C69.0381 19.0919 69.5258 19.2102 70.0845 19.2102C70.4586 19.2102 70.7971 19.1581 71.1001 19.054C71.4032 18.9451 71.666 18.7865 71.8885 18.5781C72.111 18.3698 72.2791 18.1117 72.3928 17.804L74.7933 18.0739C74.6418 18.7083 74.353 19.2623 73.9268 19.7358C73.5054 20.2045 72.9657 20.5691 72.3075 20.8295C71.6494 21.0852 70.8965 21.2131 70.049 21.2131Z" fill="white"/>
</g>
<path d="M101 6H97.5L96.5 5H91.5L90.5 6H87V8H101M88 21C88 21.5304 88.2107 22.0391 88.5858 22.4142C88.9609 22.7893 89.4696 23 90 23H98C98.5304 23 99.0391 22.7893 99.4142 22.4142C99.7893 22.0391 100 21.5304 100 21V9H88V21Z" fill="white"/>
<defs>
<filter id="filter0_b_551_853" x="10.4347" y="2.4541" width="68.4652" height="22.7588" filterUnits="userSpaceOnUse" color-interpolation-filters="sRGB">
<feFlood flood-opacity="0" result="BackgroundImageFix"/>
<feGaussianBlur in="BackgroundImageFix" stdDeviation="2"/>
<feComposite in2="SourceAlpha" operator="in" result="effect1_backgroundBlur_551_853"/>
<feBlend mode="normal" in="SourceGraphic" in2="effect1_backgroundBlur_551_853" result="shape"/>
</filter>
</defs>
</svg>
