<svg width="30" height="30" viewBox="0 0 30 30" fill="none" xmlns="http://www.w3.org/2000/svg">
<path fill-rule="evenodd" clip-rule="evenodd" d="M2.5 13.1251C2.50014 11.4308 2.90546 9.76115 3.68212 8.25539C4.45878 6.74963 5.58427 5.45144 6.96469 4.46912C8.34511 3.4868 9.94043 2.84884 11.6176 2.60846C13.2947 2.36808 15.005 2.53226 16.6057 3.0873C18.2065 3.64233 19.6513 4.57213 20.8197 5.79912C21.988 7.02611 22.846 8.5147 23.322 10.1407C23.798 11.7667 23.8783 13.483 23.5561 15.1463C23.234 16.8097 22.5187 18.3719 21.47 19.7026L26.035 24.2676C26.2627 24.5033 26.3887 24.8191 26.3858 25.1468C26.383 25.4746 26.2515 25.7881 26.0198 26.0198C25.788 26.2516 25.4745 26.3831 25.1468 26.3859C24.819 26.3888 24.5033 26.2628 24.2675 26.0351L19.7025 21.4701C18.1358 22.7051 16.253 23.474 14.2697 23.6889C12.2863 23.9039 10.2825 23.5561 8.48762 22.6854C6.69271 21.8146 5.1792 20.4562 4.12029 18.7654C3.06138 17.0747 2.49987 15.12 2.5 13.1251V13.1251ZM13.125 7.50007C12.7935 7.50007 12.4755 7.63177 12.2411 7.86619C12.0067 8.10061 11.875 8.41855 11.875 8.75007C11.875 9.08159 12.0067 9.39954 12.2411 9.63396C12.4755 9.86838 12.7935 10.0001 13.125 10.0001C13.9538 10.0001 14.7487 10.3293 15.3347 10.9154C15.9208 11.5014 16.25 12.2963 16.25 13.1251C16.25 13.4566 16.3817 13.7745 16.6161 14.009C16.8505 14.2434 17.1685 14.3751 17.5 14.3751C17.8315 14.3751 18.1495 14.2434 18.3839 14.009C18.6183 13.7745 18.75 13.4566 18.75 13.1251C18.75 11.6332 18.1574 10.2025 17.1025 9.1476C16.0476 8.09271 14.6168 7.50007 13.125 7.50007V7.50007Z" fill="black"/>
</svg>
