<svg width="33" height="33" viewBox="0 0 33 33" fill="none" xmlns="http://www.w3.org/2000/svg">
<g filter="url(#filter0_d_242_1593)">
<path d="M16.5 17.5C16.8542 17.5 17.1513 17.38 17.3913 17.14C17.6304 16.9008 17.75 16.6042 17.75 16.25V12.25L18.875 13.375C19.1042 13.6042 19.3958 13.7188 19.75 13.7188C20.1042 13.7188 20.3958 13.6042 20.625 13.375C20.8542 13.1458 20.9687 12.8542 20.9687 12.5C20.9687 12.1458 20.8542 11.8542 20.625 11.625L17.375 8.375C17.25 8.25 17.1146 8.16125 16.9688 8.10875C16.8229 8.05708 16.6667 8.03125 16.5 8.03125C16.3333 8.03125 16.1771 8.05708 16.0312 8.10875C15.8854 8.16125 15.75 8.25 15.625 8.375L12.375 11.625C12.1458 11.8542 12.0313 12.1458 12.0313 12.5C12.0313 12.8542 12.1458 13.1458 12.375 13.375C12.6042 13.6042 12.8958 13.7188 13.25 13.7188C13.6042 13.7188 13.8958 13.6042 14.125 13.375L15.25 12.25V16.25C15.25 16.6042 15.37 16.9008 15.61 17.14C15.8492 17.38 16.1458 17.5 16.5 17.5ZM16.5 25C14.7708 25 13.1458 24.6717 11.625 24.015C10.1042 23.3592 8.78125 22.4688 7.65625 21.3438C6.53125 20.2188 5.64083 18.8958 4.985 17.375C4.32833 15.8542 4 14.2292 4 12.5C4 10.7708 4.32833 9.14583 4.985 7.625C5.64083 6.10417 6.53125 4.78125 7.65625 3.65625C8.78125 2.53125 10.1042 1.64042 11.625 0.98375C13.1458 0.327917 14.7708 0 16.5 0C18.2292 0 19.8542 0.327917 21.375 0.98375C22.8958 1.64042 24.2188 2.53125 25.3438 3.65625C26.4688 4.78125 27.3592 6.10417 28.015 7.625C28.6717 9.14583 29 10.7708 29 12.5C29 14.2292 28.6717 15.8542 28.015 17.375C27.3592 18.8958 26.4688 20.2188 25.3438 21.3438C24.2188 22.4688 22.8958 23.3592 21.375 24.015C19.8542 24.6717 18.2292 25 16.5 25Z" fill="white"/>
</g>
<defs>
<filter id="filter0_d_242_1593" x="0" y="0" width="33" height="33" filterUnits="userSpaceOnUse" color-interpolation-filters="sRGB">
<feFlood flood-opacity="0" result="BackgroundImageFix"/>
<feColorMatrix in="SourceAlpha" type="matrix" values="0 0 0 0 0 0 0 0 0 0 0 0 0 0 0 0 0 0 127 0" result="hardAlpha"/>
<feOffset dy="4"/>
<feGaussianBlur stdDeviation="2"/>
<feComposite in2="hardAlpha" operator="out"/>
<feColorMatrix type="matrix" values="0 0 0 0 0 0 0 0 0 0 0 0 0 0 0 0 0 0 0.25 0"/>
<feBlend mode="normal" in2="BackgroundImageFix" result="effect1_dropShadow_242_1593"/>
<feBlend mode="normal" in="SourceGraphic" in2="effect1_dropShadow_242_1593" result="shape"/>
</filter>
</defs>
</svg>
