<svg width="118" height="30" viewBox="0 0 118 30" fill="none" xmlns="http://www.w3.org/2000/svg">
<rect width="118" height="30" rx="10" fill="black"/>
<g filter="url(#filter0_b_548_882)">
<path d="M28.3395 10.4531C28.2732 9.83286 27.9938 9.34991 27.5014 9.00426C27.0137 8.65862 26.3793 8.4858 25.598 8.4858C25.0488 8.4858 24.5777 8.56866 24.1847 8.73438C23.7917 8.90009 23.491 9.125 23.2827 9.40909C23.0743 9.69318 22.9678 10.0175 22.9631 10.3821C22.9631 10.6851 23.0317 10.9479 23.169 11.1705C23.3111 11.393 23.5028 11.5824 23.7443 11.7386C23.9858 11.8902 24.2533 12.018 24.5469 12.1222C24.8404 12.2263 25.1364 12.3139 25.4347 12.3849L26.7983 12.7259C27.3475 12.8537 27.8755 13.0265 28.3821 13.2443C28.8935 13.4621 29.3504 13.7367 29.7528 14.0682C30.16 14.3996 30.482 14.7997 30.7188 15.2685C30.9555 15.7372 31.0739 16.2865 31.0739 16.9162C31.0739 17.7685 30.8561 18.5189 30.4205 19.1676C29.9848 19.8116 29.3551 20.3158 28.5312 20.6804C27.7121 21.0402 26.7202 21.2202 25.5554 21.2202C24.4238 21.2202 23.4413 21.045 22.608 20.6946C21.7794 20.3442 21.1307 19.8329 20.6619 19.1605C20.1979 18.4882 19.947 17.669 19.9091 16.7031H22.5014C22.5393 17.2098 22.6955 17.6312 22.9702 17.9673C23.2448 18.3035 23.6023 18.5545 24.0426 18.7202C24.4877 18.8859 24.9848 18.9688 25.5341 18.9688C26.107 18.9688 26.6089 18.8835 27.0398 18.7131C27.4754 18.5379 27.8163 18.2964 28.0625 17.9886C28.3087 17.6761 28.4342 17.3116 28.4389 16.8949C28.4342 16.5161 28.3229 16.2036 28.1051 15.9574C27.8873 15.7064 27.5819 15.4981 27.1889 15.3324C26.8007 15.1619 26.3461 15.0104 25.8253 14.8778L24.1705 14.4517C22.9725 14.1439 22.0256 13.6776 21.3295 13.0526C20.6383 12.4228 20.2926 11.5871 20.2926 10.5455C20.2926 9.68845 20.5246 8.93797 20.9886 8.29403C21.4574 7.65009 22.0942 7.15057 22.8991 6.79545C23.7041 6.43561 24.6155 6.25568 25.6335 6.25568C26.6657 6.25568 27.5701 6.43561 28.3466 6.79545C29.1278 7.15057 29.741 7.64536 30.1861 8.27983C30.6312 8.90956 30.8608 9.634 30.875 10.4531H28.3395ZM36.4485 21.2202C35.7572 21.2202 35.1346 21.0971 34.5806 20.8509C34.0314 20.5999 33.5958 20.2306 33.2738 19.7429C32.9566 19.2552 32.7979 18.6539 32.7979 17.9389C32.7979 17.3234 32.9116 16.8144 33.1388 16.4119C33.3661 16.0095 33.6763 15.6875 34.0692 15.446C34.4622 15.2045 34.9049 15.0223 35.3974 14.8991C35.8945 14.7713 36.4083 14.679 36.9386 14.6222C37.5778 14.5559 38.0962 14.4967 38.494 14.4446C38.8917 14.3878 39.1805 14.3026 39.3604 14.1889C39.5451 14.0705 39.6374 13.8883 39.6374 13.642V13.5994C39.6374 13.0644 39.4788 12.6501 39.1616 12.3565C38.8443 12.063 38.3874 11.9162 37.7908 11.9162C37.1611 11.9162 36.6616 12.0535 36.2923 12.3281C35.9277 12.6027 35.6815 12.9271 35.5536 13.3011L33.1531 12.9602C33.3424 12.2973 33.6549 11.7434 34.0906 11.2983C34.5262 10.8485 35.0588 10.5123 35.6886 10.2898C36.3183 10.0625 37.0143 9.94886 37.7766 9.94886C38.3022 9.94886 38.8254 10.0104 39.3462 10.1335C39.8671 10.2566 40.3429 10.4602 40.7738 10.7443C41.2047 11.0237 41.5503 11.4048 41.8107 11.8878C42.0759 12.3707 42.2085 12.9744 42.2085 13.6989V21H39.7369V19.5014H39.6516C39.4954 19.8045 39.2752 20.0885 38.9911 20.3537C38.7118 20.6141 38.359 20.8248 37.9329 20.9858C37.5115 21.142 37.0167 21.2202 36.4485 21.2202ZM37.1161 19.331C37.6322 19.331 38.0797 19.2292 38.4585 19.0256C38.8372 18.8172 39.1284 18.5426 39.332 18.2017C39.5404 17.8608 39.6445 17.4891 39.6445 17.0866V15.8011C39.564 15.8674 39.4267 15.929 39.2326 15.9858C39.0432 16.0426 38.8301 16.0923 38.5934 16.1349C38.3567 16.1776 38.1223 16.2154 37.8903 16.2486C37.6583 16.2817 37.457 16.3101 37.2866 16.3338C36.9031 16.3859 36.5598 16.4711 36.2567 16.5895C35.9537 16.7079 35.7146 16.8736 35.5394 17.0866C35.3642 17.295 35.2766 17.5649 35.2766 17.8963C35.2766 18.3698 35.4495 18.7273 35.7951 18.9688C36.1407 19.2102 36.5811 19.331 37.1161 19.331ZM54.1474 10.0909L50.2624 21H47.4215L43.5366 10.0909H46.2781L48.7852 18.1946H48.8988L51.413 10.0909H54.1474ZM60.3849 21.2131C59.2912 21.2131 58.3466 20.9858 57.5511 20.5312C56.7604 20.072 56.152 19.4233 55.7259 18.5852C55.2997 17.7424 55.0866 16.7505 55.0866 15.6094C55.0866 14.4872 55.2997 13.5024 55.7259 12.6548C56.1567 11.8026 56.758 11.1397 57.5298 10.6662C58.3016 10.188 59.2083 9.94886 60.25 9.94886C60.9223 9.94886 61.5568 10.0578 62.1534 10.2756C62.7547 10.4886 63.285 10.8201 63.7443 11.2699C64.2083 11.7197 64.5729 12.2926 64.8381 12.9886C65.1032 13.6799 65.2358 14.5038 65.2358 15.4602V16.2486H56.294V14.5156H62.7713C62.7666 14.0232 62.66 13.5852 62.4517 13.2017C62.2434 12.8134 61.9522 12.508 61.5781 12.2855C61.2088 12.063 60.7779 11.9517 60.2855 11.9517C59.7599 11.9517 59.2983 12.0795 58.9006 12.3352C58.5028 12.5862 58.1927 12.9176 57.9702 13.3295C57.7524 13.7367 57.6411 14.1842 57.6364 14.6719V16.1847C57.6364 16.8191 57.7524 17.3636 57.9844 17.8182C58.2164 18.268 58.5407 18.6136 58.9574 18.8551C59.3741 19.0919 59.8617 19.2102 60.4205 19.2102C60.7945 19.2102 61.133 19.1581 61.4361 19.054C61.7391 18.9451 62.0019 18.7865 62.2244 18.5781C62.447 18.3698 62.6151 18.1117 62.7287 17.804L65.1293 18.0739C64.9777 18.7083 64.6889 19.2623 64.2628 19.7358C63.8414 20.2045 63.3016 20.5691 62.6435 20.8295C61.9853 21.0852 61.2325 21.2131 60.3849 21.2131Z" fill="white"/>
</g>
<g clip-path="url(#clip0_548_882)">
<path d="M77.7484 16.2516C77.7484 16.2516 77.7516 16.8391 77.7563 16.9469C77.7641 17.1562 77.8797 17.2516 78.1078 17.2469C78.3359 17.2406 84.6828 17.3141 84.6828 17.3141L84.7859 15.3219L77.7484 16.2516V16.2516ZM88.7797 15.9812L89.1781 17.2641C89.1781 17.2641 95.5938 17.2641 95.8297 17.2766C96.0656 17.2891 96.1906 17.2016 96.2031 16.9781C96.2156 16.7531 96.2375 15.85 96.2375 15.85L91.7438 15.2344L88.7797 15.9812ZM84.4063 22.825C84.4063 22.825 84.4016 23.6844 84.4 23.8594C84.3969 24.1891 84.4813 24.4641 85.1422 24.4641C85.8031 24.4641 88.4813 24.4516 88.7547 24.4391C89.0281 24.4266 89.2453 24.2781 89.2578 23.9672C89.2703 23.6562 89.3406 22.4719 89.2156 22.4844C89.0906 22.4969 86.3125 22.4969 86.3125 22.4969L84.4063 22.825V22.825Z" fill="white"/>
<path d="M78.2297 12.5928C77.8562 12.6068 77.7562 12.7428 77.7437 13.1537C77.7312 13.5646 77.7437 15.8568 77.7437 16.0693C77.7437 16.2818 77.7562 16.5928 78.0297 16.6053C78.3031 16.6178 84.4078 16.6178 84.4078 16.6178V22.8209C84.4078 23.1568 84.6562 23.5803 85.3297 23.6303C86.0031 23.6803 87.9578 23.6553 88.4187 23.6553C88.8797 23.6553 89.2531 23.4803 89.2781 23.0818C89.3031 22.6834 89.3031 16.6162 89.3031 16.6162C89.3031 16.6162 95.3937 16.5803 95.6937 16.5787C96.1172 16.5771 96.2297 16.3428 96.2422 15.7693C96.2547 15.1959 96.2172 13.4146 96.2172 13.1037C96.2172 12.7928 96.0172 12.6053 95.5437 12.6303C95.0703 12.6553 89.2406 12.6053 89.2406 12.6053V6.05683C89.2406 5.7584 89.125 5.58808 88.6172 5.59277C88.2687 5.5959 85.1875 5.58652 84.925 5.58027C84.5937 5.57246 84.4422 5.80371 84.4453 6.17715C84.4484 6.53808 84.4203 12.6178 84.4203 12.6178C84.4203 12.6178 78.5656 12.5803 78.2297 12.5928Z" fill="white"/>
<path d="M78.5156 13.3028C78.2672 13.5763 78.2172 15.1966 78.6656 15.1966C79.1672 15.1966 79.0015 14.4122 79.6875 14.1497C80.3734 13.8872 80.6937 13.7513 80.7093 13.4653C80.7328 13.0028 78.7906 12.9997 78.5156 13.3028ZM87.2343 6.40907C87.2547 6.73876 86.4062 6.87939 86.0734 7.19814C85.739 7.51689 85.5265 8.02626 85.2765 8.01845C85.0265 8.01064 84.8515 7.54032 84.9125 7.00907C84.9734 6.47782 85.4218 6.15907 86.089 6.11376C86.7562 6.06845 87.2187 6.15907 87.2343 6.40907Z" fill="white"/>
</g>
<defs>
<filter id="filter0_b_548_882" x="15.9091" y="2.25586" width="53.3267" height="22.9639" filterUnits="userSpaceOnUse" color-interpolation-filters="sRGB">
<feFlood flood-opacity="0" result="BackgroundImageFix"/>
<feGaussianBlur in="BackgroundImageFix" stdDeviation="2"/>
<feComposite in2="SourceAlpha" operator="in" result="effect1_backgroundBlur_548_882"/>
<feBlend mode="normal" in="SourceGraphic" in2="effect1_backgroundBlur_548_882" result="shape"/>
</filter>
<clipPath id="clip0_548_882">
<rect width="20" height="20" fill="white" transform="translate(77 5)"/>
</clipPath>
</defs>
</svg>
