<svg width="362" height="252" viewBox="0 0 362 252" fill="none" xmlns="http://www.w3.org/2000/svg">
<rect width="362" height="252" rx="10" fill="#F9D6AB"/>
<path d="M152.358 28H149.54C149.373 27.1894 149.081 26.4773 148.665 25.8636C148.256 25.25 147.756 24.7348 147.165 24.3182C146.581 23.8939 145.934 23.5758 145.222 23.3636C144.509 23.1515 143.767 23.0455 142.994 23.0455C141.585 23.0455 140.309 23.4015 139.165 24.1136C138.028 24.8258 137.123 25.875 136.449 27.2614C135.782 28.6477 135.449 30.3485 135.449 32.3636C135.449 34.3788 135.782 36.0795 136.449 37.4659C137.123 38.8523 138.028 39.9015 139.165 40.6136C140.309 41.3258 141.585 41.6818 142.994 41.6818C143.767 41.6818 144.509 41.5758 145.222 41.3636C145.934 41.1515 146.581 40.8371 147.165 40.4205C147.756 39.9962 148.256 39.4773 148.665 38.8636C149.081 38.2424 149.373 37.5303 149.54 36.7273H152.358C152.146 37.9167 151.759 38.9811 151.199 39.9205C150.638 40.8598 149.941 41.6591 149.108 42.3182C148.275 42.9697 147.339 43.4659 146.301 43.8068C145.271 44.1477 144.169 44.3182 142.994 44.3182C141.009 44.3182 139.244 43.8333 137.699 42.8636C136.153 41.8939 134.938 40.5152 134.051 38.7273C133.165 36.9394 132.722 34.8182 132.722 32.3636C132.722 29.9091 133.165 27.7879 134.051 26C134.938 24.2121 136.153 22.8333 137.699 21.8636C139.244 20.8939 141.009 20.4091 142.994 20.4091C144.169 20.4091 145.271 20.5795 146.301 20.9205C147.339 21.2614 148.275 21.7614 149.108 22.4205C149.941 23.072 150.638 23.8674 151.199 24.8068C151.759 25.7386 152.146 26.803 152.358 28ZM156.548 44V26.5455H159.139V29.1818H159.321C159.639 28.3182 160.215 27.6174 161.048 27.0795C161.882 26.5417 162.821 26.2727 163.866 26.2727C164.063 26.2727 164.31 26.2765 164.605 26.2841C164.901 26.2917 165.124 26.303 165.276 26.3182V29.0455C165.185 29.0227 164.976 28.9886 164.651 28.9432C164.332 28.8902 163.995 28.8636 163.639 28.8636C162.791 28.8636 162.033 29.0417 161.366 29.3977C160.707 29.7462 160.185 30.2311 159.798 30.8523C159.42 31.4659 159.23 32.1667 159.23 32.9545V44H156.548ZM175.241 44.3636C173.56 44.3636 172.109 43.9924 170.889 43.25C169.677 42.5 168.741 41.4545 168.082 40.1136C167.431 38.7652 167.105 37.197 167.105 35.4091C167.105 33.6212 167.431 32.0455 168.082 30.6818C168.741 29.3106 169.658 28.2424 170.832 27.4773C172.014 26.7045 173.393 26.3182 174.969 26.3182C175.878 26.3182 176.776 26.4697 177.662 26.7727C178.548 27.0758 179.355 27.5682 180.082 28.25C180.81 28.9242 181.389 29.8182 181.821 30.9318C182.253 32.0455 182.469 33.4167 182.469 35.0455V36.1818H169.014V33.8636H179.741C179.741 32.8788 179.545 32 179.151 31.2273C178.764 30.4545 178.211 29.8447 177.491 29.3977C176.779 28.9508 175.938 28.7273 174.969 28.7273C173.901 28.7273 172.976 28.9924 172.196 29.5227C171.423 30.0455 170.829 30.7273 170.412 31.5682C169.995 32.4091 169.787 33.3106 169.787 34.2727V35.8182C169.787 37.1364 170.014 38.2538 170.469 39.1705C170.931 40.0795 171.571 40.7727 172.389 41.25C173.207 41.7197 174.158 41.9545 175.241 41.9545C175.946 41.9545 176.582 41.8561 177.151 41.6591C177.726 41.4545 178.223 41.1515 178.639 40.75C179.056 40.3409 179.378 39.8333 179.605 39.2273L182.196 39.9545C181.923 40.8333 181.465 41.6061 180.821 42.2727C180.177 42.9318 179.382 43.447 178.435 43.8182C177.488 44.1818 176.423 44.3636 175.241 44.3636ZM191.685 44.4091C190.579 44.4091 189.575 44.2008 188.673 43.7841C187.772 43.3598 187.056 42.75 186.526 41.9545C185.995 41.1515 185.73 40.1818 185.73 39.0455C185.73 38.0455 185.927 37.2348 186.321 36.6136C186.715 35.9848 187.241 35.4924 187.901 35.1364C188.56 34.7803 189.287 34.5152 190.082 34.3409C190.885 34.1591 191.692 34.0152 192.503 33.9091C193.563 33.7727 194.423 33.6705 195.082 33.6023C195.749 33.5265 196.234 33.4015 196.537 33.2273C196.848 33.053 197.003 32.75 197.003 32.3182V32.2273C197.003 31.1061 196.696 30.2348 196.082 29.6136C195.476 28.9924 194.556 28.6818 193.321 28.6818C192.041 28.6818 191.037 28.9621 190.31 29.5227C189.582 30.0833 189.071 30.6818 188.776 31.3182L186.23 30.4091C186.685 29.3485 187.291 28.5227 188.048 27.9318C188.813 27.3333 189.647 26.9167 190.548 26.6818C191.457 26.4394 192.351 26.3182 193.23 26.3182C193.791 26.3182 194.435 26.3864 195.162 26.5227C195.897 26.6515 196.605 26.9205 197.287 27.3295C197.976 27.7386 198.548 28.3561 199.003 29.1818C199.457 30.0076 199.685 31.1136 199.685 32.5V44H197.003V41.6364H196.866C196.685 42.0152 196.382 42.4205 195.957 42.8523C195.533 43.2841 194.969 43.6515 194.264 43.9545C193.56 44.2576 192.7 44.4091 191.685 44.4091ZM192.094 42C193.154 42 194.048 41.7917 194.776 41.375C195.51 40.9583 196.063 40.4205 196.435 39.7614C196.813 39.1023 197.003 38.4091 197.003 37.6818V35.2273C196.889 35.3636 196.639 35.4886 196.253 35.6023C195.874 35.7083 195.435 35.803 194.935 35.8864C194.442 35.9621 193.961 36.0303 193.491 36.0909C193.029 36.1439 192.654 36.1894 192.366 36.2273C191.67 36.3182 191.018 36.4659 190.412 36.6705C189.813 36.8674 189.329 37.1667 188.957 37.5682C188.594 37.9621 188.412 38.5 188.412 39.1818C188.412 40.1136 188.757 40.8182 189.446 41.2955C190.143 41.7652 191.026 42 192.094 42ZM212.17 26.5455V28.8182H203.125V26.5455H212.17ZM205.761 22.3636H208.443V39C208.443 39.7576 208.553 40.3258 208.773 40.7045C209 41.0758 209.288 41.3258 209.636 41.4545C209.992 41.5758 210.367 41.6364 210.761 41.6364C211.057 41.6364 211.299 41.6212 211.489 41.5909C211.678 41.553 211.83 41.5227 211.943 41.5L212.489 43.9091C212.307 43.9773 212.053 44.0455 211.727 44.1136C211.402 44.1894 210.989 44.2273 210.489 44.2273C209.731 44.2273 208.989 44.0644 208.261 43.7386C207.542 43.4129 206.943 42.9167 206.466 42.25C205.996 41.5833 205.761 40.7424 205.761 39.7273V22.3636ZM223.335 44.3636C221.653 44.3636 220.203 43.9924 218.983 43.25C217.771 42.5 216.835 41.4545 216.176 40.1136C215.525 38.7652 215.199 37.197 215.199 35.4091C215.199 33.6212 215.525 32.0455 216.176 30.6818C216.835 29.3106 217.752 28.2424 218.926 27.4773C220.108 26.7045 221.487 26.3182 223.062 26.3182C223.972 26.3182 224.869 26.4697 225.756 26.7727C226.642 27.0758 227.449 27.5682 228.176 28.25C228.903 28.9242 229.483 29.8182 229.915 30.9318C230.347 32.0455 230.562 33.4167 230.562 35.0455V36.1818H217.108V33.8636H227.835C227.835 32.8788 227.638 32 227.244 31.2273C226.858 30.4545 226.305 29.8447 225.585 29.3977C224.873 28.9508 224.032 28.7273 223.062 28.7273C221.994 28.7273 221.07 28.9924 220.29 29.5227C219.517 30.0455 218.922 30.7273 218.506 31.5682C218.089 32.4091 217.881 33.3106 217.881 34.2727V35.8182C217.881 37.1364 218.108 38.2538 218.562 39.1705C219.025 40.0795 219.665 40.7727 220.483 41.25C221.301 41.7197 222.252 41.9545 223.335 41.9545C224.04 41.9545 224.676 41.8561 225.244 41.6591C225.82 41.4545 226.316 41.1515 226.733 40.75C227.15 40.3409 227.472 39.8333 227.699 39.2273L230.29 39.9545C230.017 40.8333 229.559 41.6061 228.915 42.2727C228.271 42.9318 227.475 43.447 226.528 43.8182C225.581 44.1818 224.517 44.3636 223.335 44.3636ZM148.115 59.7273H151.342L157.797 70.5909H158.07L164.524 59.7273H167.751L159.342 73.4091V83H156.524V73.4091L148.115 59.7273ZM175.655 83.3636C174.079 83.3636 172.696 82.9886 171.507 82.2386C170.325 81.4886 169.401 80.4394 168.734 79.0909C168.075 77.7424 167.746 76.1667 167.746 74.3636C167.746 72.5455 168.075 70.9583 168.734 69.6023C169.401 68.2462 170.325 67.1932 171.507 66.4432C172.696 65.6932 174.079 65.3182 175.655 65.3182C177.231 65.3182 178.609 65.6932 179.791 66.4432C180.981 67.1932 181.905 68.2462 182.564 69.6023C183.231 70.9583 183.564 72.5455 183.564 74.3636C183.564 76.1667 183.231 77.7424 182.564 79.0909C181.905 80.4394 180.981 81.4886 179.791 82.2386C178.609 82.9886 177.231 83.3636 175.655 83.3636ZM175.655 80.9545C176.852 80.9545 177.837 80.6477 178.609 80.0341C179.382 79.4205 179.954 78.6136 180.325 77.6136C180.696 76.6136 180.882 75.5303 180.882 74.3636C180.882 73.197 180.696 72.1098 180.325 71.1023C179.954 70.0947 179.382 69.2803 178.609 68.6591C177.837 68.0379 176.852 67.7273 175.655 67.7273C174.458 67.7273 173.473 68.0379 172.7 68.6591C171.928 69.2803 171.356 70.0947 170.984 71.1023C170.613 72.1098 170.428 73.197 170.428 74.3636C170.428 75.5303 170.613 76.6136 170.984 77.6136C171.356 78.6136 171.928 79.4205 172.7 80.0341C173.473 80.6477 174.458 80.9545 175.655 80.9545ZM198.658 75.8636V65.5455H201.339V83H198.658V80.0455H198.476C198.067 80.9318 197.43 81.6856 196.567 82.3068C195.703 82.9205 194.612 83.2273 193.294 83.2273C192.203 83.2273 191.233 82.9886 190.385 82.5114C189.536 82.0265 188.87 81.2992 188.385 80.3295C187.9 79.3523 187.658 78.1212 187.658 76.6364V65.5455H190.339V76.4545C190.339 77.7273 190.696 78.7424 191.408 79.5C192.127 80.2576 193.044 80.6364 194.158 80.6364C194.824 80.6364 195.502 80.4659 196.192 80.125C196.889 79.7841 197.472 79.2614 197.942 78.5568C198.419 77.8523 198.658 76.9545 198.658 75.8636ZM206.251 83V65.5455H208.842V68.1818H209.024C209.342 67.3182 209.918 66.6174 210.751 66.0795C211.585 65.5417 212.524 65.2727 213.57 65.2727C213.767 65.2727 214.013 65.2765 214.308 65.2841C214.604 65.2917 214.827 65.303 214.979 65.3182V68.0455C214.888 68.0227 214.679 67.9886 214.354 67.9432C214.036 67.8902 213.698 67.8636 213.342 67.8636C212.494 67.8636 211.736 68.0417 211.07 68.3977C210.411 68.7462 209.888 69.2311 209.501 69.8523C209.123 70.4659 208.933 71.1667 208.933 71.9545V83H206.251ZM141.678 122V98.7273H155.723V101.227H144.496V109.091H154.996V111.591H144.496V119.5H155.905V122H141.678ZM174.712 104.545L168.257 122H165.53L159.075 104.545H161.984L166.803 118.455H166.984L171.803 104.545H174.712ZM184.945 122.364C183.263 122.364 181.812 121.992 180.592 121.25C179.38 120.5 178.445 119.455 177.786 118.114C177.134 116.765 176.808 115.197 176.808 113.409C176.808 111.621 177.134 110.045 177.786 108.682C178.445 107.311 179.361 106.242 180.536 105.477C181.717 104.705 183.096 104.318 184.672 104.318C185.581 104.318 186.479 104.47 187.365 104.773C188.251 105.076 189.058 105.568 189.786 106.25C190.513 106.924 191.092 107.818 191.524 108.932C191.956 110.045 192.172 111.417 192.172 113.045V114.182H178.717V111.864H189.445C189.445 110.879 189.248 110 188.854 109.227C188.467 108.455 187.914 107.845 187.195 107.398C186.482 106.951 185.642 106.727 184.672 106.727C183.604 106.727 182.679 106.992 181.899 107.523C181.126 108.045 180.532 108.727 180.115 109.568C179.698 110.409 179.49 111.311 179.49 112.273V113.818C179.49 115.136 179.717 116.254 180.172 117.17C180.634 118.08 181.274 118.773 182.092 119.25C182.911 119.72 183.861 119.955 184.945 119.955C185.649 119.955 186.286 119.856 186.854 119.659C187.429 119.455 187.926 119.152 188.342 118.75C188.759 118.341 189.081 117.833 189.308 117.227L191.899 117.955C191.626 118.833 191.168 119.606 190.524 120.273C189.88 120.932 189.085 121.447 188.138 121.818C187.191 122.182 186.126 122.364 184.945 122.364ZM198.933 111.5V122H196.251V104.545H198.842V107.273H199.07C199.479 106.386 200.1 105.674 200.933 105.136C201.767 104.591 202.842 104.318 204.161 104.318C205.342 104.318 206.376 104.561 207.263 105.045C208.149 105.523 208.839 106.25 209.331 107.227C209.823 108.197 210.07 109.424 210.07 110.909V122H207.388V111.091C207.388 109.72 207.032 108.652 206.32 107.886C205.607 107.114 204.63 106.727 203.388 106.727C202.532 106.727 201.767 106.913 201.092 107.284C200.426 107.655 199.899 108.197 199.513 108.909C199.126 109.621 198.933 110.485 198.933 111.5ZM222.561 104.545V106.818H213.516V104.545H222.561ZM216.152 100.364H218.834V117C218.834 117.758 218.944 118.326 219.163 118.705C219.391 119.076 219.679 119.326 220.027 119.455C220.383 119.576 220.758 119.636 221.152 119.636C221.447 119.636 221.69 119.621 221.879 119.591C222.069 119.553 222.22 119.523 222.334 119.5L222.879 121.909C222.697 121.977 222.444 122.045 222.118 122.114C221.792 122.189 221.379 122.227 220.879 122.227C220.122 122.227 219.379 122.064 218.652 121.739C217.932 121.413 217.334 120.917 216.857 120.25C216.387 119.583 216.152 118.742 216.152 117.727V100.364Z" fill="black"/>
<path d="M152.358 28V29H153.551L153.343 27.8255L152.358 28ZM149.54 28L148.56 28.2014L148.724 29H149.54V28ZM148.665 25.8636L147.833 26.4184L147.837 26.4254L148.665 25.8636ZM147.165 24.3182L146.577 25.1269L146.583 25.1312L146.589 25.1354L147.165 24.3182ZM145.222 23.3636L144.936 24.322L145.222 23.3636ZM139.165 24.1136L138.636 23.2647L138.634 23.2663L139.165 24.1136ZM136.449 27.2614L135.55 26.824L135.548 26.828L136.449 27.2614ZM136.449 37.4659L135.548 37.8993L135.55 37.9033L136.449 37.4659ZM139.165 40.6136L138.634 41.461L138.636 41.4626L139.165 40.6136ZM145.222 41.3636L144.936 40.4053L145.222 41.3636ZM147.165 40.4205L147.746 41.2342L147.748 41.2328L147.165 40.4205ZM148.665 38.8636L147.834 38.3066L147.833 38.3089L148.665 38.8636ZM149.54 36.7273V35.7273H148.726L148.561 36.5241L149.54 36.7273ZM152.358 36.7273L153.342 36.9028L153.552 35.7273H152.358V36.7273ZM151.199 39.9205L150.34 39.408L151.199 39.9205ZM149.108 42.3182L149.724 43.106L149.728 43.1025L149.108 42.3182ZM146.301 43.8068L145.989 42.8568L145.987 42.8574L146.301 43.8068ZM137.699 42.8636L137.167 43.7107L137.699 42.8636ZM134.051 38.7273L134.947 38.2831L134.051 38.7273ZM134.051 26L133.155 25.5558L134.051 26ZM146.301 20.9205L145.987 21.8698L145.989 21.8705L146.301 20.9205ZM149.108 22.4205L148.488 23.2048L148.492 23.2083L149.108 22.4205ZM151.199 24.8068L150.34 25.3193L150.342 25.3223L151.199 24.8068ZM152.358 27H149.54V29H152.358V27ZM150.519 27.7986C150.329 26.874 149.991 26.0364 149.492 25.3019L147.837 26.4254C148.172 26.9182 148.417 27.5048 148.56 28.2014L150.519 27.7986ZM149.497 25.3089C149.021 24.5949 148.435 23.99 147.741 23.5009L146.589 25.1354C147.077 25.4797 147.491 25.9051 147.833 26.4183L149.497 25.3089ZM147.753 23.5094C147.075 23.0165 146.325 22.6487 145.507 22.4053L144.936 24.322C145.543 24.5028 146.088 24.7714 146.577 25.1269L147.753 23.5094ZM145.507 22.4053C144.699 22.1644 143.86 22.0455 142.994 22.0455V24.0455C143.674 24.0455 144.32 24.1386 144.936 24.322L145.507 22.4053ZM142.994 22.0455C141.407 22.0455 139.946 22.4492 138.636 23.2647L139.693 24.9626C140.671 24.3538 141.763 24.0455 142.994 24.0455V22.0455ZM138.634 23.2663C137.316 24.092 136.293 25.2949 135.55 26.824L137.348 27.6987C137.953 26.4551 138.741 25.5595 139.696 24.961L138.634 23.2663ZM135.548 26.828C134.799 28.3847 134.449 30.2431 134.449 32.3636H136.449C136.449 30.4539 136.765 28.9107 137.35 27.6947L135.548 26.828ZM134.449 32.3636C134.449 34.4842 134.799 36.3425 135.548 37.8993L137.35 37.0325C136.765 35.8165 136.449 34.2734 136.449 32.3636H134.449ZM135.55 37.9033C136.293 39.4324 137.316 40.6352 138.634 41.461L139.696 39.7663C138.741 39.1678 137.953 38.2722 137.348 37.0286L135.55 37.9033ZM138.636 41.4626C139.946 42.2781 141.407 42.6818 142.994 42.6818V40.6818C141.763 40.6818 140.671 40.3735 139.693 39.7647L138.636 41.4626ZM142.994 42.6818C143.86 42.6818 144.699 42.5628 145.507 42.322L144.936 40.4053C144.32 40.5887 143.674 40.6818 142.994 40.6818V42.6818ZM145.507 42.322C146.321 42.0795 147.069 41.7174 147.746 41.2342L146.584 39.6067C146.093 39.9568 145.546 40.2235 144.936 40.4053L145.507 42.322ZM147.748 41.2328C148.438 40.7374 149.022 40.1307 149.497 39.4183L147.833 38.3089C147.489 38.8238 147.073 39.2551 146.582 39.6081L147.748 41.2328ZM149.495 39.4207C149.991 38.6823 150.329 37.8477 150.519 36.9305L148.561 36.5241C148.418 37.2129 148.172 37.8025 147.834 38.3066L149.495 39.4207ZM149.54 37.7273H152.358V35.7273H149.54V37.7273ZM151.373 36.5517C151.18 37.6345 150.833 38.5827 150.34 39.408L152.058 40.4329C152.686 39.3795 153.111 38.1988 153.342 36.9028L151.373 36.5517ZM150.34 39.408C149.84 40.2462 149.223 40.9524 148.488 41.5338L149.728 43.1025C150.66 42.3658 151.437 41.4735 152.058 40.4329L150.34 39.408ZM148.492 41.5304C147.753 42.1083 146.921 42.5507 145.989 42.8568L146.613 44.7569C147.757 44.3811 148.796 43.8311 149.724 43.106L148.492 41.5304ZM145.987 42.8574C145.066 43.1622 144.071 43.3182 142.994 43.3182V45.3182C144.267 45.3182 145.476 45.1333 146.615 44.7562L145.987 42.8574ZM142.994 43.3182C141.18 43.3182 139.603 42.8776 138.23 42.0166L137.167 43.7107C138.886 44.7891 140.839 45.3182 142.994 45.3182V43.3182ZM138.23 42.0166C136.856 41.1541 135.759 39.9217 134.947 38.2831L133.155 39.1714C134.116 41.1086 135.451 42.6338 137.167 43.7107L138.23 42.0166ZM134.947 38.2831C134.143 36.6614 133.722 34.6989 133.722 32.3636H131.722C131.722 34.9375 132.186 37.2174 133.155 39.1714L134.947 38.2831ZM133.722 32.3636C133.722 30.0284 134.143 28.0659 134.947 26.4442L133.155 25.5558C132.186 27.5099 131.722 29.7898 131.722 32.3636H133.722ZM134.947 26.4442C135.759 24.8056 136.856 23.5732 138.23 22.7107L137.167 21.0166C135.451 22.0935 134.116 23.6186 133.155 25.5558L134.947 26.4442ZM138.23 22.7107C139.603 21.8497 141.18 21.4091 142.994 21.4091V19.4091C140.839 19.4091 138.886 19.9382 137.167 21.0166L138.23 22.7107ZM142.994 21.4091C144.071 21.4091 145.066 21.5651 145.987 21.8698L146.615 19.9711C145.476 19.594 144.267 19.4091 142.994 19.4091V21.4091ZM145.989 21.8705C146.918 22.1758 147.749 22.6207 148.488 23.2048L149.728 21.6361C148.8 20.902 147.76 20.3469 146.613 19.9704L145.989 21.8705ZM148.492 23.2083C149.225 23.7812 149.841 24.4822 150.34 25.3193L152.058 24.2944C151.436 23.2527 150.658 22.3628 149.724 21.6326L148.492 23.2083ZM150.342 25.3223C150.832 26.1376 151.18 27.0839 151.373 28.1745L153.343 27.8255C153.112 26.5221 152.686 25.3397 152.056 24.2913L150.342 25.3223ZM156.548 44H155.548V45H156.548V44ZM156.548 26.5455V25.5455H155.548V26.5455H156.548ZM159.139 26.5455H160.139V25.5455H159.139V26.5455ZM159.139 29.1818H158.139V30.1818H159.139V29.1818ZM159.321 29.1818V30.1818H160.018L160.259 29.5275L159.321 29.1818ZM161.048 27.0795L160.506 26.2394L161.048 27.0795ZM165.276 26.3182H166.276V25.4132L165.375 25.3231L165.276 26.3182ZM165.276 29.0455L165.033 30.0156L166.276 30.3262V29.0455H165.276ZM164.651 28.9432L164.486 29.9296L164.499 29.9318L164.512 29.9336L164.651 28.9432ZM161.366 29.3977L161.834 30.2818L161.838 30.2798L161.366 29.3977ZM159.798 30.8523L158.949 30.3241L158.947 30.327L159.798 30.8523ZM159.23 44V45H160.23V44H159.23ZM157.548 44V26.5455H155.548V44H157.548ZM156.548 27.5455H159.139V25.5455H156.548V27.5455ZM158.139 26.5455V29.1818H160.139V26.5455H158.139ZM159.139 30.1818H159.321V28.1818H159.139V30.1818ZM160.259 29.5275C160.497 28.8834 160.924 28.3498 161.591 27.9197L160.506 26.2394C159.506 26.8851 158.782 27.7529 158.383 28.8361L160.259 29.5275ZM161.591 27.9197C162.253 27.4919 163.002 27.2727 163.866 27.2727V25.2727C162.64 25.2727 161.51 25.5914 160.506 26.2394L161.591 27.9197ZM163.866 27.2727C164.052 27.2727 164.289 27.2763 164.579 27.2838L164.631 25.2844C164.331 25.2767 164.075 25.2727 163.866 25.2727V27.2727ZM164.579 27.2838C164.869 27.2912 165.062 27.3018 165.176 27.3132L165.375 25.3231C165.186 25.3042 164.933 25.2922 164.631 25.2844L164.579 27.2838ZM164.276 26.3182V29.0455H166.276V26.3182H164.276ZM165.518 28.0753C165.365 28.0371 165.1 27.9961 164.789 27.9528L164.512 29.9336C164.671 29.9558 164.796 29.9744 164.89 29.9897C164.936 29.9973 164.972 30.0037 164.999 30.0087C165.027 30.0142 165.037 30.0165 165.033 30.0156L165.518 28.0753ZM164.815 27.9568C164.437 27.8938 164.045 27.8636 163.639 27.8636V29.8636C163.946 29.8636 164.228 29.8865 164.486 29.9296L164.815 27.9568ZM163.639 27.8636C162.647 27.8636 161.724 28.0731 160.895 28.5157L161.838 30.2798C162.342 30.0103 162.935 29.8636 163.639 29.8636V27.8636ZM160.899 28.5137C160.087 28.9433 159.431 29.5496 158.949 30.3241L160.647 31.3804C160.938 30.9125 161.328 30.5492 161.834 30.2818L160.899 28.5137ZM158.947 30.327C158.462 31.113 158.23 31.9989 158.23 32.9545H160.23C160.23 32.3344 160.377 31.8188 160.649 31.3775L158.947 30.327ZM158.23 32.9545V44H160.23V32.9545H158.23ZM159.23 43H156.548V45H159.23V43ZM170.889 43.25L170.363 44.1004L170.369 44.1042L170.889 43.25ZM168.082 40.1136L167.182 40.5487L167.185 40.5548L168.082 40.1136ZM168.082 30.6818L167.181 30.2486L167.18 30.2507L168.082 30.6818ZM170.832 27.4773L171.378 28.3151L171.38 28.3142L170.832 27.4773ZM177.662 26.7727L177.985 25.8265L177.662 26.7727ZM180.082 28.25L179.398 28.9795L179.403 28.9833L180.082 28.25ZM181.821 30.9318L182.753 30.5703V30.5703L181.821 30.9318ZM182.469 36.1818V37.1818H183.469V36.1818H182.469ZM169.014 36.1818H168.014V37.1818H169.014V36.1818ZM169.014 33.8636V32.8636H168.014V33.8636H169.014ZM179.741 33.8636V34.8636H180.741V33.8636H179.741ZM179.151 31.2273L178.256 31.6745L178.26 31.6815L179.151 31.2273ZM177.491 29.3977L176.96 30.2447L176.964 30.2472L177.491 29.3977ZM172.196 29.5227L172.756 30.351L172.758 30.3498L172.196 29.5227ZM170.412 31.5682L169.516 31.1242L170.412 31.5682ZM170.469 39.1705L169.573 39.6147L169.577 39.6236L170.469 39.1705ZM172.389 41.25L171.885 42.1138L171.891 42.1173L172.389 41.25ZM177.151 41.6591L177.478 42.604L177.485 42.6014L177.151 41.6591ZM178.639 40.75L179.333 41.4701L179.34 41.4636L178.639 40.75ZM179.605 39.2273L179.875 38.2645L178.991 38.0163L178.669 38.8761L179.605 39.2273ZM182.196 39.9545L183.151 40.2509L183.456 39.2695L182.466 38.9918L182.196 39.9545ZM180.821 42.2727L181.536 42.9716L181.54 42.9675L180.821 42.2727ZM178.435 43.8182L178.793 44.7517L178.8 44.7492L178.435 43.8182ZM175.241 43.3636C173.71 43.3636 172.446 43.0271 171.409 42.3958L170.369 44.1042C171.772 44.9578 173.409 45.3636 175.241 45.3636V43.3636ZM171.415 42.3996C170.371 41.7533 169.56 40.8534 168.98 39.6725L167.185 40.5548C167.923 42.0557 168.983 43.2467 170.363 44.1004L171.415 42.3996ZM168.983 39.6786C168.408 38.4896 168.105 37.0752 168.105 35.4091H166.105C166.105 37.3188 166.453 39.0407 167.182 40.5487L168.983 39.6786ZM168.105 35.4091C168.105 33.7433 168.408 32.3195 168.985 31.1129L167.18 30.2507C166.454 31.7714 166.105 33.4991 166.105 35.4091H168.105ZM168.984 31.115C169.571 29.8941 170.37 28.9719 171.378 28.3151L170.286 26.6394C168.946 27.5129 167.912 28.7272 167.181 30.2486L168.984 31.115ZM171.38 28.3142C172.38 27.66 173.564 27.3182 174.969 27.3182V25.3182C173.222 25.3182 171.648 25.7491 170.285 26.6403L171.38 28.3142ZM174.969 27.3182C175.764 27.3182 176.553 27.4504 177.338 27.719L177.985 25.8265C176.998 25.489 175.991 25.3182 174.969 25.3182V27.3182ZM177.338 27.719C178.082 27.9732 178.768 28.3883 179.398 28.9795L180.766 27.5205C179.942 26.748 179.014 26.1783 177.985 25.8265L177.338 27.719ZM179.403 28.9833C179.998 29.5354 180.501 30.2927 180.889 31.2933L182.753 30.5703C182.278 29.3437 181.621 28.313 180.762 27.5167L179.403 28.9833ZM180.889 31.2933C181.263 32.2581 181.469 33.4983 181.469 35.0455H183.469C183.469 33.335 183.243 31.8328 182.753 30.5703L180.889 31.2933ZM181.469 35.0455V36.1818H183.469V35.0455H181.469ZM182.469 35.1818H169.014V37.1818H182.469V35.1818ZM170.014 36.1818V33.8636H168.014V36.1818H170.014ZM169.014 34.8636H179.741V32.8636H169.014V34.8636ZM180.741 33.8636C180.741 32.7425 180.516 31.7045 180.041 30.7731L178.26 31.6815C178.573 32.2955 178.741 33.0151 178.741 33.8636H180.741ZM180.045 30.7801C179.578 29.8453 178.899 29.0948 178.019 28.5482L176.964 30.2472C177.523 30.5946 177.951 31.0638 178.256 31.6745L180.045 30.7801ZM178.023 28.5507C177.128 27.9892 176.097 27.7273 174.969 27.7273V29.7273C175.78 29.7273 176.43 29.9123 176.96 30.2447L178.023 28.5507ZM174.969 27.7273C173.728 27.7273 172.601 28.0382 171.634 28.6957L172.758 30.3498C173.351 29.9467 174.074 29.7273 174.969 29.7273V27.7273ZM171.636 28.6944C170.719 29.3147 170.009 30.1293 169.516 31.1242L171.308 32.0122C171.648 31.3253 172.128 30.7762 172.756 30.351L171.636 28.6944ZM169.516 31.1242C169.029 32.1067 168.787 33.1606 168.787 34.2727H170.787C170.787 33.4606 170.961 32.7115 171.308 32.0122L169.516 31.1242ZM168.787 34.2727V35.8182H170.787V34.2727H168.787ZM168.787 35.8182C168.787 37.2475 169.033 38.526 169.573 39.6147L171.365 38.7262C170.995 37.9815 170.787 37.0252 170.787 35.8182H168.787ZM169.577 39.6236C170.12 40.6903 170.888 41.5322 171.885 42.1138L172.893 40.3862C172.254 40.0132 171.742 39.4688 171.36 38.7173L169.577 39.6236ZM171.891 42.1173C172.882 42.6861 174.01 42.9545 175.241 42.9545V40.9545C174.307 40.9545 173.532 40.7533 172.887 40.3827L171.891 42.1173ZM175.241 42.9545C176.039 42.9545 176.788 42.8431 177.478 42.6039L176.823 40.7143C176.377 40.869 175.853 40.9545 175.241 40.9545V42.9545ZM177.485 42.6014C178.188 42.3519 178.808 41.9759 179.333 41.4701L177.945 40.0299C177.637 40.3272 177.265 40.5572 176.816 40.7168L177.485 42.6014ZM179.34 41.4636C179.871 40.9417 180.269 40.3061 180.541 39.5784L178.669 38.8761C178.487 39.3606 178.24 39.7401 177.939 40.0364L179.34 41.4636ZM179.335 40.1901L181.926 40.9173L182.466 38.9918L179.875 38.2645L179.335 40.1901ZM181.241 39.6581C181.015 40.3864 180.638 41.023 180.102 41.578L181.54 42.9675C182.292 42.1891 182.832 41.2803 183.151 40.2509L181.241 39.6581ZM180.106 41.5739C179.571 42.1216 178.899 42.5622 178.07 42.8872L178.8 44.7492C179.865 44.3317 180.783 43.7421 181.536 42.9716L180.106 41.5739ZM178.076 42.8846C177.261 43.1977 176.321 43.3636 175.241 43.3636V45.3636C176.526 45.3636 177.715 45.1659 178.793 44.7517L178.076 42.8846ZM188.673 43.7841L188.247 44.6889L188.254 44.6918L188.673 43.7841ZM186.526 41.9545L185.691 42.5056L185.694 42.5092L186.526 41.9545ZM186.321 36.6136L187.166 37.1492L187.168 37.1446L186.321 36.6136ZM190.082 34.3409L190.296 35.3178L190.303 35.3162L190.082 34.3409ZM192.503 33.9091L192.375 32.9173L192.373 32.9175L192.503 33.9091ZM195.082 33.6023L195.185 34.597L195.195 34.5959L195.082 33.6023ZM196.537 33.2273L196.048 32.3551L196.038 32.3604L196.537 33.2273ZM196.082 29.6136L195.367 30.312L195.371 30.3164L196.082 29.6136ZM190.31 29.5227L190.92 30.3147L190.31 29.5227ZM188.776 31.3182L188.439 32.2599L189.298 32.5668L189.683 31.7393L188.776 31.3182ZM186.23 30.4091L185.311 30.0152L184.892 30.993L185.894 31.3508L186.23 30.4091ZM188.048 27.9318L188.663 28.7203L188.664 28.7195L188.048 27.9318ZM190.548 26.6818L190.8 27.6495L190.806 27.6481L190.548 26.6818ZM195.162 26.5227L194.978 27.5057L194.989 27.5077L195.162 26.5227ZM197.287 27.3295L196.772 28.187L196.777 28.1895L197.287 27.3295ZM199.003 29.1818L198.127 29.664L199.003 29.1818ZM199.685 44V45H200.685V44H199.685ZM197.003 44H196.003V45H197.003V44ZM197.003 41.6364H198.003V40.6364H197.003V41.6364ZM196.866 41.6364V40.6364H196.237L195.965 41.2036L196.866 41.6364ZM195.957 42.8523L196.671 43.5531L195.957 42.8523ZM194.264 43.9545L193.869 43.0359L194.264 43.9545ZM194.776 41.375L194.282 40.5051L194.278 40.5073L194.776 41.375ZM196.435 39.7614L195.568 39.2631L195.563 39.2706L196.435 39.7614ZM197.003 35.2273H198.003V32.4652L196.235 34.5871L197.003 35.2273ZM196.253 35.6023L196.522 36.5653L196.535 36.5616L196.253 35.6023ZM194.935 35.8864L195.087 36.8748L195.099 36.8728L194.935 35.8864ZM193.491 36.0909L193.605 37.0845L193.619 37.0827L193.491 36.0909ZM192.366 36.2273L192.496 37.2189L192.497 37.2187L192.366 36.2273ZM190.412 36.6705L190.725 37.6204L190.732 37.6179L190.412 36.6705ZM188.957 37.5682L188.223 36.8893L188.223 36.8899L188.957 37.5682ZM189.446 41.2955L188.877 42.1177L188.887 42.1247L189.446 41.2955ZM191.685 43.4091C190.707 43.4091 189.849 43.2256 189.093 42.8764L188.254 44.6918C189.301 45.1759 190.45 45.4091 191.685 45.4091V43.4091ZM189.099 42.8793C188.355 42.5291 187.783 42.0372 187.358 41.3998L185.694 42.5092C186.329 43.4628 187.188 44.1906 188.247 44.6889L189.099 42.8793ZM187.36 41.4035C186.956 40.7917 186.73 40.022 186.73 39.0455H184.73C184.73 40.3417 185.035 41.5113 185.691 42.5056L187.36 41.4035ZM186.73 39.0455C186.73 38.1691 186.904 37.5624 187.166 37.1492L185.477 36.0781C184.951 36.9073 184.73 37.9218 184.73 39.0455H186.73ZM187.168 37.1446C187.47 36.6637 187.867 36.2909 188.376 36.0162L187.425 34.2565C186.616 34.694 185.96 35.3059 185.474 36.0827L187.168 37.1446ZM188.376 36.0162C188.946 35.7082 189.584 35.4737 190.296 35.3177L189.868 33.3641C188.99 33.5566 188.173 33.8524 187.425 34.2565L188.376 36.0162ZM190.303 35.3162C191.076 35.1412 191.853 35.0027 192.633 34.9006L192.373 32.9175C191.532 33.0276 190.694 33.177 189.862 33.3656L190.303 35.3162ZM192.63 34.9009C193.687 34.7651 194.538 34.6639 195.185 34.597L194.979 32.6076C194.309 32.677 193.44 32.7804 192.375 32.9173L192.63 34.9009ZM195.195 34.5959C195.896 34.5163 196.549 34.3738 197.035 34.0942L196.038 32.3604C195.919 32.4292 195.602 32.5368 194.969 32.6087L195.195 34.5959ZM197.026 34.0994C197.724 33.7078 198.003 33.0208 198.003 32.3182H196.003C196.003 32.4169 195.985 32.4356 195.996 32.4132C196.002 32.4018 196.012 32.3874 196.025 32.3739C196.031 32.3676 196.037 32.3629 196.041 32.3596C196.046 32.3563 196.048 32.3549 196.048 32.3551L197.026 34.0994ZM198.003 32.3182V32.2273H196.003V32.3182H198.003ZM198.003 32.2273C198.003 30.921 197.641 29.7683 196.794 28.9109L195.371 30.3164C195.751 30.7014 196.003 31.2911 196.003 32.2273H198.003ZM196.798 28.9153C195.936 28.0318 194.71 27.6818 193.321 27.6818V29.6818C194.402 29.6818 195.016 29.953 195.367 30.312L196.798 28.9153ZM193.321 27.6818C191.905 27.6818 190.659 27.9911 189.699 28.7307L190.92 30.3147C191.415 29.9332 192.176 29.6818 193.321 29.6818V27.6818ZM189.699 28.7307C188.883 29.3601 188.249 30.0771 187.869 30.8971L189.683 31.7393C189.893 31.2865 190.282 30.8065 190.92 30.3147L189.699 28.7307ZM189.112 30.3764L186.566 29.4673L185.894 31.3508L188.439 32.2599L189.112 30.3764ZM187.149 30.803C187.551 29.8664 188.063 29.1885 188.663 28.7203L187.433 27.1433C186.518 27.857 185.819 28.8306 185.311 30.0152L187.149 30.803ZM188.664 28.7195C189.326 28.2016 190.037 27.8484 190.8 27.6495L190.296 25.7141C189.257 25.9849 188.3 26.4651 187.432 27.1441L188.664 28.7195ZM190.806 27.6481C191.637 27.4265 192.444 27.3182 193.23 27.3182V25.3182C192.258 25.3182 191.278 25.4523 190.291 25.7156L190.806 27.6481ZM193.23 27.3182C193.713 27.3182 194.293 27.3772 194.978 27.5056L195.346 25.5399C194.576 25.3955 193.869 25.3182 193.23 25.3182V27.3182ZM194.989 27.5077C195.596 27.614 196.189 27.8369 196.772 28.187L197.801 26.4721C197.021 26.004 196.198 25.6891 195.335 25.5377L194.989 27.5077ZM196.777 28.1895C197.287 28.4927 197.743 28.9668 198.127 29.664L199.879 28.6996C199.354 27.7453 198.665 26.9846 197.797 26.4696L196.777 28.1895ZM198.127 29.664C198.471 30.2887 198.685 31.2085 198.685 32.5H200.685C200.685 31.0188 200.444 29.7264 199.879 28.6996L198.127 29.664ZM198.685 32.5V44H200.685V32.5H198.685ZM199.685 43H197.003V45H199.685V43ZM198.003 44V41.6364H196.003V44H198.003ZM197.003 40.6364H196.866V42.6364H197.003V40.6364ZM195.965 41.2036C195.847 41.4501 195.622 41.7665 195.244 42.1515L196.671 43.5531C197.141 43.0744 197.523 42.5802 197.768 42.0691L195.965 41.2036ZM195.244 42.1515C194.931 42.4696 194.485 42.771 193.869 43.0359L194.659 44.8732C195.452 44.532 196.135 44.0986 196.671 43.5531L195.244 42.1515ZM193.869 43.0359C193.323 43.2709 192.606 43.4091 191.685 43.4091V45.4091C192.794 45.4091 193.797 45.2442 194.659 44.8732L193.869 43.0359ZM192.094 43C193.283 43 194.359 42.7662 195.273 42.2427L194.278 40.5073C193.738 40.8172 193.025 41 192.094 41V43ZM195.269 42.2449C196.143 41.7493 196.835 41.0876 197.306 40.2521L195.563 39.2706C195.291 39.7533 194.878 40.1674 194.282 40.5051L195.269 42.2449ZM197.302 40.2596C197.763 39.4561 198.003 38.592 198.003 37.6818H196.003C196.003 38.2262 195.863 38.7485 195.568 39.2631L197.302 40.2596ZM198.003 37.6818V35.2273H196.003V37.6818H198.003ZM196.235 34.5871C196.272 34.542 196.302 34.5198 196.308 34.5154C196.315 34.5105 196.309 34.5158 196.283 34.5289C196.228 34.5561 196.13 34.5962 195.971 34.6429L196.535 36.5616C196.763 36.4947 196.982 36.4155 197.177 36.3177C197.363 36.2251 197.59 36.085 197.771 35.8675L196.235 34.5871ZM195.983 34.6393C195.647 34.7334 195.244 34.821 194.77 34.9L195.099 36.8728C195.625 36.7851 196.101 36.6833 196.522 36.5652L195.983 34.6393ZM194.783 34.898C194.298 34.9726 193.825 35.0396 193.364 35.0991L193.619 37.0827C194.098 37.021 194.587 36.9517 195.087 36.8747L194.783 34.898ZM193.377 35.0974C192.913 35.1508 192.532 35.1969 192.236 35.2358L192.497 37.2187C192.777 37.1819 193.146 37.1371 193.605 37.0844L193.377 35.0974ZM192.237 35.2357C191.482 35.3342 190.766 35.4956 190.092 35.723L190.732 37.6179C191.27 37.4362 191.857 37.3022 192.496 37.2189L192.237 35.2357ZM190.099 35.7206C189.364 35.9625 188.726 36.3453 188.223 36.8893L189.692 38.247C189.931 37.9881 190.263 37.7724 190.725 37.6203L190.099 35.7206ZM188.223 36.8899C187.646 37.5148 187.412 38.3195 187.412 39.1818H189.412C189.412 38.6805 189.542 38.4095 189.692 38.2465L188.223 36.8899ZM187.412 39.1818C187.412 40.3991 187.884 41.4306 188.877 42.1176L190.015 40.4733C189.629 40.2058 189.412 39.8282 189.412 39.1818H187.412ZM188.887 42.1247C189.789 42.7324 190.88 43 192.094 43V41C191.171 41 190.497 40.7979 190.005 40.4662L188.887 42.1247ZM212.17 26.5455H213.17V25.5455H212.17V26.5455ZM212.17 28.8182V29.8182H213.17V28.8182H212.17ZM203.125 28.8182H202.125V29.8182H203.125V28.8182ZM203.125 26.5455V25.5455H202.125V26.5455H203.125ZM205.761 22.3636V21.3636H204.761V22.3636H205.761ZM208.443 22.3636H209.443V21.3636H208.443V22.3636ZM208.773 40.7045L207.908 41.2063L207.914 41.2166L207.92 41.2267L208.773 40.7045ZM209.636 41.4545L209.29 42.3925L209.302 42.397L209.314 42.4012L209.636 41.4545ZM211.489 41.5909L211.647 42.5784L211.666 42.5753L211.685 42.5715L211.489 41.5909ZM211.943 41.5L212.919 41.2792L212.703 40.3282L211.747 40.5194L211.943 41.5ZM212.489 43.9091L212.84 44.8454L213.657 44.5391L213.464 43.6883L212.489 43.9091ZM211.727 44.1136L211.522 43.1348L211.512 43.1371L211.501 43.1396L211.727 44.1136ZM208.261 43.7386L207.849 44.6497L207.853 44.6513L208.261 43.7386ZM206.466 42.25L205.648 42.826L205.653 42.8321L206.466 42.25ZM211.17 26.5455V28.8182H213.17V26.5455H211.17ZM212.17 27.8182H203.125V29.8182H212.17V27.8182ZM204.125 28.8182V26.5455H202.125V28.8182H204.125ZM203.125 27.5455H212.17V25.5455H203.125V27.5455ZM205.761 23.3636H208.443V21.3636H205.761V23.3636ZM207.443 22.3636V39H209.443V22.3636H207.443ZM207.443 39C207.443 39.8215 207.557 40.6008 207.908 41.2063L209.638 40.2028C209.55 40.0507 209.443 39.6937 209.443 39H207.443ZM207.92 41.2267C208.243 41.7552 208.696 42.173 209.29 42.3925L209.983 40.5166C209.88 40.4785 209.757 40.3963 209.626 40.1824L207.92 41.2267ZM209.314 42.4012C209.779 42.5594 210.263 42.6364 210.761 42.6364V40.6364C210.472 40.6364 210.206 40.5921 209.959 40.5079L209.314 42.4012ZM210.761 42.6364C211.085 42.6364 211.385 42.6202 211.647 42.5784L211.331 40.6035C211.213 40.6222 211.029 40.6364 210.761 40.6364V42.6364ZM211.685 42.5715C211.874 42.5336 212.026 42.5033 212.139 42.4806L211.747 40.5194C211.633 40.5421 211.482 40.5724 211.293 40.6103L211.685 42.5715ZM210.968 41.7208L211.513 44.1299L213.464 43.6883L212.919 41.2792L210.968 41.7208ZM212.138 42.9728C212.025 43.0149 211.828 43.0709 211.522 43.1348L211.932 45.0924C212.278 45.0201 212.589 44.9396 212.84 44.8454L212.138 42.9728ZM211.501 43.1396C211.276 43.1919 210.946 43.2273 210.489 43.2273V45.2273C211.031 45.2273 211.527 45.1869 211.954 45.0876L211.501 43.1396ZM210.489 43.2273C209.879 43.2273 209.276 43.0972 208.67 42.826L207.853 44.6513C208.702 45.0316 209.583 45.2273 210.489 45.2273V43.2273ZM208.674 42.8276C208.12 42.5772 207.658 42.1972 207.279 41.6679L205.653 42.8321C206.228 43.6361 206.963 44.2486 207.849 44.6497L208.674 42.8276ZM207.283 41.674C206.959 41.2133 206.761 40.5872 206.761 39.7273H204.761C204.761 40.8977 205.034 41.9534 205.648 42.826L207.283 41.674ZM206.761 39.7273V22.3636H204.761V39.7273H206.761ZM218.983 43.25L218.457 44.1004L218.463 44.1042L218.983 43.25ZM216.176 40.1136L215.276 40.5487L215.279 40.5548L216.176 40.1136ZM216.176 30.6818L215.275 30.2486L215.274 30.2507L216.176 30.6818ZM218.926 27.4773L219.472 28.3151L219.473 28.3142L218.926 27.4773ZM225.756 26.7727L226.079 25.8265L225.756 26.7727ZM228.176 28.25L227.492 28.9795L227.496 28.9833L228.176 28.25ZM229.915 30.9318L230.847 30.5703V30.5703L229.915 30.9318ZM230.562 36.1818V37.1818H231.562V36.1818H230.562ZM217.108 36.1818H216.108V37.1818H217.108V36.1818ZM217.108 33.8636V32.8636H216.108V33.8636H217.108ZM227.835 33.8636V34.8636H228.835V33.8636H227.835ZM227.244 31.2273L226.35 31.6745L226.353 31.6815L227.244 31.2273ZM225.585 29.3977L225.054 30.2447L225.058 30.2472L225.585 29.3977ZM220.29 29.5227L220.85 30.351L220.852 30.3498L220.29 29.5227ZM218.506 31.5682L217.61 31.1242L218.506 31.5682ZM218.562 39.1705L217.667 39.6147L217.671 39.6236L218.562 39.1705ZM220.483 41.25L219.979 42.1138L219.985 42.1173L220.483 41.25ZM225.244 41.6591L225.572 42.604L225.579 42.6014L225.244 41.6591ZM226.733 40.75L227.427 41.4701L227.434 41.4636L226.733 40.75ZM227.699 39.2273L227.969 38.2645L227.085 38.0163L226.763 38.8761L227.699 39.2273ZM230.29 39.9545L231.245 40.2509L231.549 39.2695L230.56 38.9918L230.29 39.9545ZM228.915 42.2727L229.63 42.9716L229.634 42.9675L228.915 42.2727ZM226.528 43.8182L226.887 44.7517L226.893 44.7492L226.528 43.8182ZM223.335 43.3636C221.804 43.3636 220.54 43.0271 219.503 42.3958L218.463 44.1042C219.865 44.9578 221.503 45.3636 223.335 45.3636V43.3636ZM219.509 42.3996C218.465 41.7533 217.654 40.8534 217.074 39.6725L215.279 40.5548C216.016 42.0557 217.077 43.2467 218.457 44.1004L219.509 42.3996ZM217.077 39.6786C216.502 38.4896 216.199 37.0752 216.199 35.4091H214.199C214.199 37.3188 214.547 39.0407 215.276 40.5487L217.077 39.6786ZM216.199 35.4091C216.199 33.7433 216.502 32.3195 217.078 31.1129L215.274 30.2507C214.547 31.7714 214.199 33.4991 214.199 35.4091H216.199ZM217.077 31.115C217.664 29.8941 218.464 28.9719 219.472 28.3151L218.38 26.6394C217.04 27.5129 216.006 28.7272 215.275 30.2486L217.077 31.115ZM219.473 28.3142C220.474 27.66 221.658 27.3182 223.062 27.3182V25.3182C221.316 25.3182 219.742 25.7491 218.379 26.6403L219.473 28.3142ZM223.062 27.3182C223.858 27.3182 224.647 27.4504 225.432 27.719L226.079 25.8265C225.092 25.489 224.085 25.3182 223.062 25.3182V27.3182ZM225.432 27.719C226.176 27.9732 226.862 28.3883 227.492 28.9795L228.86 27.5205C228.036 26.748 227.108 26.1783 226.079 25.8265L225.432 27.719ZM227.496 28.9833C228.092 29.5354 228.594 30.2927 228.982 31.2933L230.847 30.5703C230.372 29.3437 229.715 28.313 228.856 27.5167L227.496 28.9833ZM228.982 31.2933C229.357 32.2581 229.562 33.4983 229.562 35.0455H231.562C231.562 33.335 231.337 31.8328 230.847 30.5703L228.982 31.2933ZM229.562 35.0455V36.1818H231.562V35.0455H229.562ZM230.562 35.1818H217.108V37.1818H230.562V35.1818ZM218.108 36.1818V33.8636H216.108V36.1818H218.108ZM217.108 34.8636H227.835V32.8636H217.108V34.8636ZM228.835 33.8636C228.835 32.7425 228.61 31.7045 228.135 30.7731L226.353 31.6815C226.666 32.2955 226.835 33.0151 226.835 33.8636H228.835ZM228.139 30.7801C227.671 29.8453 226.993 29.0948 226.113 28.5482L225.058 30.2472C225.617 30.5946 226.045 31.0638 226.35 31.6745L228.139 30.7801ZM226.117 28.5507C225.222 27.9892 224.191 27.7273 223.062 27.7273V29.7273C223.874 29.7273 224.524 29.9123 225.054 30.2447L226.117 28.5507ZM223.062 27.7273C221.821 27.7273 220.695 28.0382 219.728 28.6957L220.852 30.3498C221.445 29.9467 222.167 29.7273 223.062 29.7273V27.7273ZM219.729 28.6944C218.813 29.3147 218.103 30.1293 217.61 31.1242L219.402 32.0122C219.742 31.3253 220.222 30.7762 220.85 30.351L219.729 28.6944ZM217.61 31.1242C217.123 32.1067 216.881 33.1606 216.881 34.2727H218.881C218.881 33.4606 219.055 32.7115 219.402 32.0122L217.61 31.1242ZM216.881 34.2727V35.8182H218.881V34.2727H216.881ZM216.881 35.8182C216.881 37.2475 217.127 38.526 217.667 39.6147L219.458 38.7262C219.089 37.9815 218.881 37.0252 218.881 35.8182H216.881ZM217.671 39.6236C218.213 40.6903 218.982 41.5322 219.979 42.1138L220.987 40.3862C220.347 40.0132 219.836 39.4688 219.454 38.7173L217.671 39.6236ZM219.985 42.1173C220.976 42.6861 222.103 42.9545 223.335 42.9545V40.9545C222.4 40.9545 221.626 40.7533 220.981 40.3827L219.985 42.1173ZM223.335 42.9545C224.133 42.9545 224.882 42.8431 225.572 42.6039L224.917 40.7143C224.47 40.869 223.947 40.9545 223.335 40.9545V42.9545ZM225.579 42.6014C226.281 42.3519 226.902 41.9759 227.427 41.4701L226.039 40.0299C225.731 40.3272 225.359 40.5572 224.91 40.7168L225.579 42.6014ZM227.434 41.4636C227.965 40.9417 228.362 40.3061 228.635 39.5784L226.763 38.8761C226.581 39.3606 226.334 39.7401 226.032 40.0364L227.434 41.4636ZM227.429 40.1901L230.02 40.9173L230.56 38.9918L227.969 38.2645L227.429 40.1901ZM229.335 39.6581C229.109 40.3864 228.732 41.023 228.196 41.578L229.634 42.9675C230.386 42.1891 230.925 41.2803 231.245 40.2509L229.335 39.6581ZM228.199 41.5739C227.664 42.1216 226.992 42.5622 226.163 42.8872L226.893 44.7492C227.958 44.3317 228.877 43.7421 229.63 42.9716L228.199 41.5739ZM226.17 42.8846C225.355 43.1977 224.414 43.3636 223.335 43.3636V45.3636C224.62 45.3636 225.808 45.1659 226.887 44.7517L226.17 42.8846ZM148.115 59.7273V58.7273H146.327L147.263 60.2509L148.115 59.7273ZM151.342 59.7273L152.202 59.2165L151.911 58.7273H151.342V59.7273ZM157.797 70.5909L156.937 71.1017L157.228 71.5909H157.797V70.5909ZM158.07 70.5909V71.5909H158.639L158.929 71.1017L158.07 70.5909ZM164.524 59.7273V58.7273H163.955L163.664 59.2165L164.524 59.7273ZM167.751 59.7273L168.603 60.2509L169.54 58.7273H167.751V59.7273ZM159.342 73.4091L158.49 72.8855L158.342 73.1264V73.4091H159.342ZM159.342 83V84H160.342V83H159.342ZM156.524 83H155.524V84H156.524V83ZM156.524 73.4091H157.524V73.1264L157.376 72.8855L156.524 73.4091ZM148.115 60.7273H151.342V58.7273H148.115V60.7273ZM150.483 60.2381L156.937 71.1017L158.657 70.0801L152.202 59.2165L150.483 60.2381ZM157.797 71.5909H158.07V69.5909H157.797V71.5909ZM158.929 71.1017L165.384 60.2381L163.664 59.2165L157.21 70.0801L158.929 71.1017ZM164.524 60.7273H167.751V58.7273H164.524V60.7273ZM166.899 59.2036L158.49 72.8855L160.194 73.9327L168.603 60.2509L166.899 59.2036ZM158.342 73.4091V83H160.342V73.4091H158.342ZM159.342 82H156.524V84H159.342V82ZM157.524 83V73.4091H155.524V83H157.524ZM157.376 72.8855L148.967 59.2036L147.263 60.2509L155.672 73.9327L157.376 72.8855ZM171.507 82.2386L170.971 83.083L170.974 83.0845L171.507 82.2386ZM168.734 79.0909L167.836 79.53L167.838 79.5341L168.734 79.0909ZM168.734 69.6023L167.837 69.1611L167.835 69.1651L168.734 69.6023ZM171.507 66.4432L170.974 65.5973L170.971 65.5989L171.507 66.4432ZM179.791 66.4432L179.255 67.2875L179.258 67.2891L179.791 66.4432ZM182.564 69.6023L181.665 70.0394L181.667 70.0435L182.564 69.6023ZM182.564 79.0909L181.667 78.6477L181.665 78.6518L182.564 79.0909ZM179.791 82.2386L179.258 81.3928L179.255 81.3943L179.791 82.2386ZM178.609 80.0341L177.987 79.251L178.609 80.0341ZM180.325 77.6136L181.263 77.9616L180.325 77.6136ZM180.325 71.1023L181.264 70.7566L180.325 71.1023ZM178.609 68.6591L179.236 67.8797L178.609 68.6591ZM172.7 68.6591L172.074 67.8797L172.7 68.6591ZM170.984 71.1023L170.046 70.7566H170.046L170.984 71.1023ZM170.984 77.6136L170.047 77.9616L170.984 77.6136ZM172.7 80.0341L173.322 79.251L172.7 80.0341ZM175.655 82.3636C174.244 82.3636 173.051 82.0303 172.04 81.3928L170.974 83.0845C172.342 83.947 173.914 84.3636 175.655 84.3636V82.3636ZM172.043 81.3943C171.027 80.7498 170.223 79.8447 169.631 78.6477L167.838 79.5341C168.579 81.0341 169.623 82.2275 170.971 83.083L172.043 81.3943ZM169.633 78.6518C169.053 77.4649 168.746 76.0447 168.746 74.3636H166.746C166.746 76.2886 167.098 78.02 167.836 79.53L169.633 78.6518ZM168.746 74.3636C168.746 72.6661 169.053 71.2341 169.634 70.0394L167.835 69.1651C167.097 70.6826 166.746 72.4248 166.746 74.3636H168.746ZM169.632 70.0435C170.224 68.8388 171.029 67.9311 172.043 67.2875L170.971 65.5989C169.622 66.4552 168.578 67.6536 167.837 69.1611L169.632 70.0435ZM172.04 67.2891C173.051 66.6516 174.244 66.3182 175.655 66.3182V64.3182C173.914 64.3182 172.342 64.7348 170.974 65.5973L172.04 67.2891ZM175.655 66.3182C177.065 66.3182 178.253 66.6516 179.255 67.2875L180.327 65.5989C178.965 64.7348 177.396 64.3182 175.655 64.3182V66.3182ZM179.258 67.2891C180.278 67.9324 181.081 68.8384 181.665 70.0394L183.463 69.1651C182.729 67.654 181.683 66.454 180.325 65.5973L179.258 67.2891ZM181.667 70.0435C182.253 71.2371 182.564 72.6677 182.564 74.3636H184.564C184.564 72.4232 184.208 70.6796 183.461 69.1611L181.667 70.0435ZM182.564 74.3636C182.564 76.0431 182.254 77.4618 181.667 78.6477L183.46 79.5341C184.207 78.0231 184.564 76.2902 184.564 74.3636H182.564ZM181.665 78.6518C181.082 79.8452 180.279 80.7486 179.258 81.3928L180.325 83.0845C181.682 82.2287 182.727 81.0336 183.462 79.53L181.665 78.6518ZM179.255 81.3943C178.253 82.0302 177.065 82.3636 175.655 82.3636V84.3636C177.396 84.3636 178.965 83.9471 180.327 83.083L179.255 81.3943ZM175.655 81.9545C177.028 81.9545 178.246 81.5993 179.231 80.8172L177.987 79.251C177.427 79.6961 176.676 79.9545 175.655 79.9545V81.9545ZM179.231 80.8172C180.158 80.0809 180.833 79.1184 181.263 77.9616L179.388 77.2656C179.075 78.1089 178.606 78.76 177.987 79.251L179.231 80.8172ZM181.263 77.9616C181.679 76.8403 181.882 75.638 181.882 74.3636H179.882C179.882 75.4226 179.714 76.387 179.388 77.2656L181.263 77.9616ZM181.882 74.3636C181.882 73.0892 181.679 71.884 181.264 70.7566L179.387 71.448C179.714 72.3357 179.882 73.3047 179.882 74.3636H181.882ZM181.264 70.7566C180.835 69.5935 180.162 68.6239 179.236 67.8797L177.983 69.4385C178.603 69.9367 179.073 70.5959 179.387 71.448L181.264 70.7566ZM179.236 67.8797C178.251 67.0878 177.031 66.7273 175.655 66.7273V68.7273C176.673 68.7273 177.422 68.9879 177.983 69.4385L179.236 67.8797ZM175.655 66.7273C174.279 66.7273 173.059 67.0878 172.074 67.8797L173.327 69.4385C173.887 68.9879 174.637 68.7273 175.655 68.7273V66.7273ZM172.074 67.8797C171.148 68.6239 170.475 69.5935 170.046 70.7566L171.923 71.448C172.237 70.5959 172.707 69.9367 173.327 69.4385L172.074 67.8797ZM170.046 70.7566C169.631 71.884 169.428 73.0892 169.428 74.3636H171.428C171.428 73.3047 171.596 72.3357 171.923 71.448L170.046 70.7566ZM169.428 74.3636C169.428 75.638 169.631 76.8403 170.047 77.9616L171.922 77.2656C171.596 76.387 171.428 75.4226 171.428 74.3636H169.428ZM170.047 77.9616C170.476 79.1184 171.151 80.0809 172.078 80.8172L173.322 79.251C172.704 78.76 172.235 78.1089 171.922 77.2656L170.047 77.9616ZM172.078 80.8172C173.063 81.5993 174.282 81.9545 175.655 81.9545V79.9545C174.634 79.9545 173.883 79.6961 173.322 79.251L172.078 80.8172ZM198.658 65.5455V64.5455H197.658V65.5455H198.658ZM201.339 65.5455H202.339V64.5455H201.339V65.5455ZM201.339 83V84H202.339V83H201.339ZM198.658 83H197.658V84H198.658V83ZM198.658 80.0455H199.658V79.0455H198.658V80.0455ZM198.476 80.0455V79.0455H197.836L197.568 79.6264L198.476 80.0455ZM196.567 82.3068L197.146 83.122L197.151 83.1186L196.567 82.3068ZM190.385 82.5114L189.889 83.3796L189.895 83.3829L190.385 82.5114ZM188.385 80.3295L187.489 80.774L187.491 80.7768L188.385 80.3295ZM187.658 65.5455V64.5455H186.658V65.5455H187.658ZM190.339 65.5455H191.339V64.5455H190.339V65.5455ZM191.408 79.5L190.679 80.1849L190.683 80.1888L191.408 79.5ZM196.192 80.125L195.752 79.2267L195.748 79.2286L196.192 80.125ZM197.942 78.5568L197.114 77.996L197.11 78.0021L197.942 78.5568ZM199.658 75.8636V65.5455H197.658V75.8636H199.658ZM198.658 66.5455H201.339V64.5455H198.658V66.5455ZM200.339 65.5455V83H202.339V65.5455H200.339ZM201.339 82H198.658V84H201.339V82ZM199.658 83V80.0455H197.658V83H199.658ZM198.658 79.0455H198.476V81.0455H198.658V79.0455ZM197.568 79.6264C197.238 80.3422 196.719 80.9653 195.983 81.495L197.151 83.1186C198.141 82.4059 198.896 81.5214 199.384 80.4645L197.568 79.6264ZM195.988 81.4916C195.331 81.9584 194.456 82.2273 193.294 82.2273V84.2273C194.769 84.2273 196.076 83.8825 197.146 83.122L195.988 81.4916ZM193.294 82.2273C192.354 82.2273 191.557 82.0231 190.875 81.6398L189.895 83.3829C190.91 83.9542 192.053 84.2273 193.294 84.2273V82.2273ZM190.881 81.6431C190.223 81.2668 189.686 80.6955 189.279 79.8823L187.491 80.7768C188.054 81.903 188.85 82.7862 189.889 83.3796L190.881 81.6431ZM189.281 79.8851C188.885 79.0866 188.658 78.0198 188.658 76.6364H186.658C186.658 78.2226 186.916 79.618 187.489 80.774L189.281 79.8851ZM188.658 76.6364V65.5455H186.658V76.6364H188.658ZM187.658 66.5455H190.339V64.5455H187.658V66.5455ZM189.339 65.5455V76.4545H191.339V65.5455H189.339ZM189.339 76.4545C189.339 77.9217 189.755 79.2023 190.679 80.1849L192.136 78.8151C191.636 78.2825 191.339 77.5328 191.339 76.4545H189.339ZM190.683 80.1888C191.605 81.1592 192.79 81.6364 194.158 81.6364V79.6364C193.298 79.6364 192.65 79.3559 192.133 78.8112L190.683 80.1888ZM194.158 81.6364C195 81.6364 195.829 81.42 196.635 81.0214L195.748 79.2286C195.176 79.5118 194.649 79.6364 194.158 79.6364V81.6364ZM196.631 81.0233C197.501 80.5976 198.215 79.9495 198.774 79.1115L197.11 78.0021C196.729 78.5733 196.276 78.9706 195.752 79.2267L196.631 81.0233ZM198.77 79.1177C199.387 78.2065 199.658 77.0984 199.658 75.8636H197.658C197.658 76.8107 197.451 77.498 197.114 77.996L198.77 79.1177ZM206.251 83H205.251V84H206.251V83ZM206.251 65.5455V64.5455H205.251V65.5455H206.251ZM208.842 65.5455H209.842V64.5455H208.842V65.5455ZM208.842 68.1818H207.842V69.1818H208.842V68.1818ZM209.024 68.1818V69.1818H209.721L209.962 68.5275L209.024 68.1818ZM210.751 66.0795L210.209 65.2394L210.751 66.0795ZM214.979 65.3182H215.979V64.4132L215.078 64.3231L214.979 65.3182ZM214.979 68.0455L214.736 69.0156L215.979 69.3262V68.0455H214.979ZM214.354 67.9432L214.189 68.9296L214.202 68.9318L214.215 68.9336L214.354 67.9432ZM211.07 68.3977L211.537 69.2818L211.541 69.2798L211.07 68.3977ZM209.501 69.8523L208.652 69.3241L208.65 69.327L209.501 69.8523ZM208.933 83V84H209.933V83H208.933ZM207.251 83V65.5455H205.251V83H207.251ZM206.251 66.5455H208.842V64.5455H206.251V66.5455ZM207.842 65.5455V68.1818H209.842V65.5455H207.842ZM208.842 69.1818H209.024V67.1818H208.842V69.1818ZM209.962 68.5275C210.2 67.8834 210.627 67.3498 211.294 66.9197L210.209 65.2394C209.209 65.8851 208.485 66.7529 208.086 67.8361L209.962 68.5275ZM211.294 66.9197C211.956 66.4919 212.706 66.2727 213.57 66.2727V64.2727C212.343 64.2727 211.213 64.5914 210.209 65.2394L211.294 66.9197ZM213.57 66.2727C213.755 66.2727 213.992 66.2763 214.283 66.2838L214.334 64.2844C214.034 64.2767 213.778 64.2727 213.57 64.2727V66.2727ZM214.283 66.2838C214.572 66.2912 214.765 66.3018 214.879 66.3132L215.078 64.3231C214.889 64.3042 214.636 64.2922 214.334 64.2844L214.283 66.2838ZM213.979 65.3182V68.0455H215.979V65.3182H213.979ZM215.221 67.0753C215.068 67.0371 214.803 66.9961 214.492 66.9528L214.215 68.9336C214.374 68.9558 214.499 68.9744 214.593 68.9897C214.639 68.9973 214.675 69.0037 214.702 69.0087C214.731 69.0142 214.74 69.0165 214.736 69.0156L215.221 67.0753ZM214.518 66.9568C214.14 66.8938 213.748 66.8636 213.342 66.8636V68.8636C213.649 68.8636 213.931 68.8865 214.189 68.9296L214.518 66.9568ZM213.342 66.8636C212.35 66.8636 211.427 67.0731 210.598 67.5157L211.541 69.2798C212.045 69.0103 212.638 68.8636 213.342 68.8636V66.8636ZM210.602 67.5137C209.79 67.9433 209.134 68.5496 208.652 69.3241L210.351 70.3804C210.642 69.9125 211.031 69.5492 211.537 69.2818L210.602 67.5137ZM208.65 69.327C208.165 70.113 207.933 70.9989 207.933 71.9545H209.933C209.933 71.3344 210.08 70.8188 210.352 70.3775L208.65 69.327ZM207.933 71.9545V83H209.933V71.9545H207.933ZM208.933 82H206.251V84H208.933V82ZM141.678 122H140.678V123H141.678V122ZM141.678 98.7273V97.7273H140.678V98.7273H141.678ZM155.723 98.7273H156.723V97.7273H155.723V98.7273ZM155.723 101.227V102.227H156.723V101.227H155.723ZM144.496 101.227V100.227H143.496V101.227H144.496ZM144.496 109.091H143.496V110.091H144.496V109.091ZM154.996 109.091H155.996V108.091H154.996V109.091ZM154.996 111.591V112.591H155.996V111.591H154.996ZM144.496 111.591V110.591H143.496V111.591H144.496ZM144.496 119.5H143.496V120.5H144.496V119.5ZM155.905 119.5H156.905V118.5H155.905V119.5ZM155.905 122V123H156.905V122H155.905ZM142.678 122V98.7273H140.678V122H142.678ZM141.678 99.7273H155.723V97.7273H141.678V99.7273ZM154.723 98.7273V101.227H156.723V98.7273H154.723ZM155.723 100.227H144.496V102.227H155.723V100.227ZM143.496 101.227V109.091H145.496V101.227H143.496ZM144.496 110.091H154.996V108.091H144.496V110.091ZM153.996 109.091V111.591H155.996V109.091H153.996ZM154.996 110.591H144.496V112.591H154.996V110.591ZM143.496 111.591V119.5H145.496V111.591H143.496ZM144.496 120.5H155.905V118.5H144.496V120.5ZM154.905 119.5V122H156.905V119.5H154.905ZM155.905 121H141.678V123H155.905V121ZM174.712 104.545L175.65 104.892L176.148 103.545H174.712V104.545ZM168.257 122V123H168.953L169.195 122.347L168.257 122ZM165.53 122L164.592 122.347L164.833 123H165.53V122ZM159.075 104.545V103.545H157.639L158.137 104.892L159.075 104.545ZM161.984 104.545L162.929 104.218L162.696 103.545H161.984V104.545ZM166.803 118.455L165.858 118.782L166.091 119.455H166.803V118.455ZM166.984 118.455V119.455H167.696L167.929 118.782L166.984 118.455ZM171.803 104.545V103.545H171.091L170.858 104.218L171.803 104.545ZM173.774 104.199L167.319 121.653L169.195 122.347L175.65 104.892L173.774 104.199ZM168.257 121H165.53V123H168.257V121ZM166.468 121.653L160.013 104.199L158.137 104.892L164.592 122.347L166.468 121.653ZM159.075 105.545H161.984V103.545H159.075V105.545ZM161.039 104.873L165.858 118.782L167.747 118.127L162.929 104.218L161.039 104.873ZM166.803 119.455H166.984V117.455H166.803V119.455ZM167.929 118.782L172.747 104.873L170.858 104.218L166.039 118.127L167.929 118.782ZM171.803 105.545H174.712V103.545H171.803V105.545ZM180.592 121.25L180.066 122.1L180.072 122.104L180.592 121.25ZM177.786 118.114L176.885 118.549L176.888 118.555L177.786 118.114ZM177.786 108.682L176.884 108.249L176.883 108.251L177.786 108.682ZM180.536 105.477L181.081 106.315L181.083 106.314L180.536 105.477ZM187.365 104.773L187.689 103.826L187.365 104.773ZM189.786 106.25L189.102 106.98L189.106 106.983L189.786 106.25ZM191.524 108.932L192.457 108.57L191.524 108.932ZM192.172 114.182V115.182H193.172V114.182H192.172ZM178.717 114.182H177.717V115.182H178.717V114.182ZM178.717 111.864V110.864H177.717V111.864H178.717ZM189.445 111.864V112.864H190.445V111.864H189.445ZM188.854 109.227L187.959 109.674L187.963 109.681L188.854 109.227ZM187.195 107.398L186.663 108.245L186.667 108.247L187.195 107.398ZM181.899 107.523L182.459 108.351L182.461 108.35L181.899 107.523ZM180.115 109.568L179.219 109.124L180.115 109.568ZM180.172 117.17L179.276 117.615L179.28 117.624L180.172 117.17ZM182.092 119.25L181.588 120.114L181.594 120.117L182.092 119.25ZM186.854 119.659L187.181 120.604L187.188 120.601L186.854 119.659ZM188.342 118.75L189.036 119.47L189.043 119.464L188.342 118.75ZM189.308 117.227L189.578 116.264L188.694 116.016L188.372 116.876L189.308 117.227ZM191.899 117.955L192.854 118.251L193.159 117.269L192.169 116.992L191.899 117.955ZM190.524 120.273L191.239 120.972L191.243 120.967L190.524 120.273ZM188.138 121.818L188.496 122.752L188.503 122.749L188.138 121.818ZM184.945 121.364C183.413 121.364 182.149 121.027 181.112 120.396L180.072 122.104C181.475 122.958 183.112 123.364 184.945 123.364V121.364ZM181.118 120.4C180.074 119.753 179.263 118.853 178.683 117.673L176.888 118.555C177.626 120.056 178.686 121.247 180.066 122.1L181.118 120.4ZM178.686 117.679C178.111 116.49 177.808 115.075 177.808 113.409H175.808C175.808 115.319 176.157 117.041 176.885 118.549L178.686 117.679ZM177.808 113.409C177.808 111.743 178.111 110.319 178.688 109.113L176.883 108.251C176.157 109.771 175.808 111.499 175.808 113.409H177.808ZM178.687 109.115C179.274 107.894 180.073 106.972 181.081 106.315L179.99 104.639C178.649 105.513 177.616 106.727 176.884 108.249L178.687 109.115ZM181.083 106.314C182.083 105.66 183.267 105.318 184.672 105.318V103.318C182.925 103.318 181.351 103.749 179.988 104.64L181.083 106.314ZM184.672 105.318C185.468 105.318 186.256 105.45 187.042 105.719L187.689 103.826C186.701 103.489 185.694 103.318 184.672 103.318V105.318ZM187.042 105.719C187.785 105.973 188.471 106.388 189.102 106.98L190.469 105.52C189.646 104.748 188.718 104.178 187.689 103.826L187.042 105.719ZM189.106 106.983C189.701 107.535 190.204 108.293 190.592 109.293L192.457 108.57C191.981 107.344 191.324 106.313 190.465 105.517L189.106 106.983ZM190.592 109.293C190.966 110.258 191.172 111.498 191.172 113.045H193.172C193.172 111.335 192.946 109.833 192.457 108.57L190.592 109.293ZM191.172 113.045V114.182H193.172V113.045H191.172ZM192.172 113.182H178.717V115.182H192.172V113.182ZM179.717 114.182V111.864H177.717V114.182H179.717ZM178.717 112.864H189.445V110.864H178.717V112.864ZM190.445 111.864C190.445 110.742 190.219 109.704 189.745 108.773L187.963 109.681C188.276 110.296 188.445 111.015 188.445 111.864H190.445ZM189.748 108.78C189.281 107.845 188.602 107.095 187.722 106.548L186.667 108.247C187.226 108.595 187.654 109.064 187.959 109.674L189.748 108.78ZM187.726 106.551C186.832 105.989 185.8 105.727 184.672 105.727V107.727C185.483 107.727 186.133 107.912 186.663 108.245L187.726 106.551ZM184.672 105.727C183.431 105.727 182.304 106.038 181.337 106.696L182.461 108.35C183.054 107.947 183.777 107.727 184.672 107.727V105.727ZM181.339 106.694C180.422 107.315 179.712 108.129 179.219 109.124L181.011 110.012C181.351 109.325 181.831 108.776 182.459 108.351L181.339 106.694ZM179.219 109.124C178.732 110.107 178.49 111.161 178.49 112.273H180.49C180.49 111.461 180.665 110.712 181.011 110.012L179.219 109.124ZM178.49 112.273V113.818H180.49V112.273H178.49ZM178.49 113.818C178.49 115.248 178.736 116.526 179.276 117.615L181.068 116.726C180.699 115.982 180.49 115.025 180.49 113.818H178.49ZM179.28 117.624C179.823 118.69 180.592 119.532 181.588 120.114L182.596 118.386C181.957 118.013 181.445 117.469 181.063 116.717L179.28 117.624ZM181.594 120.117C182.585 120.686 183.713 120.955 184.945 120.955V118.955C184.01 118.955 183.236 118.753 182.59 118.383L181.594 120.117ZM184.945 120.955C185.742 120.955 186.491 120.843 187.181 120.604L186.526 118.714C186.08 118.869 185.556 118.955 184.945 118.955V120.955ZM187.188 120.601C187.891 120.352 188.511 119.976 189.036 119.47L187.648 118.03C187.34 118.327 186.968 118.557 186.519 118.717L187.188 120.601ZM189.043 119.464C189.574 118.942 189.972 118.306 190.245 117.578L188.372 116.876C188.19 117.361 187.944 117.74 187.642 118.036L189.043 119.464ZM189.038 118.19L191.629 118.917L192.169 116.992L189.578 116.264L189.038 118.19ZM190.944 117.658C190.718 118.386 190.341 119.023 189.805 119.578L191.243 120.967C191.995 120.189 192.535 119.28 192.854 118.251L190.944 117.658ZM189.809 119.574C189.274 120.122 188.602 120.562 187.773 120.887L188.503 122.749C189.568 122.332 190.487 121.742 191.239 120.972L189.809 119.574ZM187.779 120.885C186.964 121.198 186.024 121.364 184.945 121.364V123.364C186.229 123.364 187.418 123.166 188.496 122.752L187.779 120.885ZM198.933 122V123H199.933V122H198.933ZM196.251 122H195.251V123H196.251V122ZM196.251 104.545V103.545H195.251V104.545H196.251ZM198.842 104.545H199.842V103.545H198.842V104.545ZM198.842 107.273H197.842V108.273H198.842V107.273ZM199.07 107.273V108.273H199.709L199.978 107.692L199.07 107.273ZM200.933 105.136L201.476 105.977L201.481 105.973L200.933 105.136ZM207.263 105.045L206.783 105.923L206.789 105.926L207.263 105.045ZM209.331 107.227L208.438 107.677L208.439 107.68L209.331 107.227ZM210.07 122V123H211.07V122H210.07ZM207.388 122H206.388V123H207.388V122ZM206.32 107.886L205.584 108.564L205.588 108.568L206.32 107.886ZM201.092 107.284L200.61 106.408L200.606 106.41L201.092 107.284ZM199.513 108.909L198.634 108.432L199.513 108.909ZM197.933 111.5V122H199.933V111.5H197.933ZM198.933 121H196.251V123H198.933V121ZM197.251 122V104.545H195.251V122H197.251ZM196.251 105.545H198.842V103.545H196.251V105.545ZM197.842 104.545V107.273H199.842V104.545H197.842ZM198.842 108.273H199.07V106.273H198.842V108.273ZM199.978 107.692C200.306 106.981 200.799 106.413 201.476 105.977L200.391 104.296C199.401 104.935 198.652 105.792 198.162 106.854L199.978 107.692ZM201.481 105.973C202.107 105.564 202.975 105.318 204.161 105.318V103.318C202.71 103.318 201.427 103.618 200.386 104.3L201.481 105.973ZM204.161 105.318C205.203 105.318 206.067 105.531 206.783 105.923L207.743 104.168C206.686 103.59 205.481 103.318 204.161 103.318V105.318ZM206.789 105.926C207.479 106.298 208.029 106.866 208.438 107.677L210.224 106.777C209.648 105.634 208.82 104.748 207.737 104.165L206.789 105.926ZM208.439 107.68C208.839 108.468 209.07 109.527 209.07 110.909H211.07C211.07 109.321 210.807 107.926 210.223 106.774L208.439 107.68ZM209.07 110.909V122H211.07V110.909H209.07ZM210.07 121H207.388V123H210.07V121ZM208.388 122V111.091H206.388V122H208.388ZM208.388 111.091C208.388 109.548 207.984 108.207 207.052 107.205L205.588 108.568C206.079 109.096 206.388 109.891 206.388 111.091H208.388ZM207.055 107.209C206.119 106.193 204.854 105.727 203.388 105.727V107.727C204.406 107.727 205.096 108.034 205.584 108.564L207.055 107.209ZM203.388 105.727C202.382 105.727 201.448 105.947 200.61 106.408L201.575 108.16C202.085 107.879 202.681 107.727 203.388 107.727V105.727ZM200.606 106.41C199.763 106.88 199.105 107.564 198.634 108.432L200.392 109.386C200.693 108.83 201.088 108.431 201.579 108.158L200.606 106.41ZM198.634 108.432C198.15 109.323 197.933 110.36 197.933 111.5H199.933C199.933 110.61 200.102 109.919 200.392 109.386L198.634 108.432ZM222.561 104.545H223.561V103.545H222.561V104.545ZM222.561 106.818V107.818H223.561V106.818H222.561ZM213.516 106.818H212.516V107.818H213.516V106.818ZM213.516 104.545V103.545H212.516V104.545H213.516ZM216.152 100.364V99.3636H215.152V100.364H216.152ZM218.834 100.364H219.834V99.3636H218.834V100.364ZM219.163 118.705L218.298 119.206L218.304 119.217L218.311 119.227L219.163 118.705ZM220.027 119.455L219.68 120.393L219.692 120.397L219.705 120.401L220.027 119.455ZM221.879 119.591L222.037 120.578L222.056 120.575L222.075 120.571L221.879 119.591ZM222.334 119.5L223.309 119.279L223.094 118.328L222.138 118.519L222.334 119.5ZM222.879 121.909L223.23 122.845L224.047 122.539L223.855 121.688L222.879 121.909ZM222.118 122.114L221.913 121.135L221.902 121.137L221.891 121.14L222.118 122.114ZM218.652 121.739L218.24 122.65L218.243 122.651L218.652 121.739ZM216.857 120.25L216.039 120.826L216.043 120.832L216.857 120.25ZM221.561 104.545V106.818H223.561V104.545H221.561ZM222.561 105.818H213.516V107.818H222.561V105.818ZM214.516 106.818V104.545H212.516V106.818H214.516ZM213.516 105.545H222.561V103.545H213.516V105.545ZM216.152 101.364H218.834V99.3636H216.152V101.364ZM217.834 100.364V117H219.834V100.364H217.834ZM217.834 117C217.834 117.821 217.947 118.601 218.298 119.206L220.028 118.203C219.94 118.051 219.834 117.694 219.834 117H217.834ZM218.311 119.227C218.634 119.755 219.086 120.173 219.68 120.393L220.374 118.517C220.271 118.478 220.147 118.396 220.016 118.182L218.311 119.227ZM219.705 120.401C220.169 120.559 220.654 120.636 221.152 120.636V118.636C220.862 118.636 220.597 118.592 220.349 118.508L219.705 120.401ZM221.152 120.636C221.475 120.636 221.776 120.62 222.037 120.578L221.721 118.603C221.604 118.622 221.42 118.636 221.152 118.636V120.636ZM222.075 120.571C222.265 120.534 222.416 120.503 222.53 120.481L222.138 118.519C222.024 118.542 221.873 118.572 221.683 118.61L222.075 120.571ZM221.358 119.721L221.904 122.13L223.855 121.688L223.309 119.279L221.358 119.721ZM222.528 120.973C222.416 121.015 222.219 121.071 221.913 121.135L222.323 123.092C222.669 123.02 222.979 122.94 223.23 122.845L222.528 120.973ZM221.891 121.14C221.667 121.192 221.337 121.227 220.879 121.227V123.227C221.422 123.227 221.918 123.187 222.344 123.088L221.891 121.14ZM220.879 121.227C220.27 121.227 219.666 121.097 219.061 120.826L218.243 122.651C219.092 123.032 219.974 123.227 220.879 123.227V121.227ZM219.064 120.828C218.511 120.577 218.049 120.197 217.67 119.668L216.043 120.832C216.619 121.636 217.354 122.249 218.24 122.65L219.064 120.828ZM217.674 119.674C217.349 119.213 217.152 118.587 217.152 117.727H215.152C215.152 118.898 215.424 119.953 216.039 120.826L217.674 119.674ZM217.152 117.727V100.364H215.152V117.727H217.152Z" fill="black"/>
<rect x="8" y="168" width="343" height="54" rx="10" fill="#3B82F7"/>
<g filter="url(#filter0_d_559_867)">
<path d="M94.9361 189.545C94.7997 188.394 94.2467 187.5 93.277 186.864C92.3073 186.227 91.1179 185.909 89.7088 185.909C88.6785 185.909 87.777 186.076 87.0043 186.409C86.2391 186.742 85.6406 187.201 85.2088 187.784C84.7846 188.367 84.5724 189.03 84.5724 189.773C84.5724 190.394 84.7202 190.928 85.0156 191.375C85.3187 191.814 85.705 192.182 86.1747 192.477C86.6444 192.765 87.1368 193.004 87.652 193.193C88.1671 193.375 88.6406 193.523 89.0724 193.636L91.4361 194.273C92.0421 194.432 92.7164 194.652 93.4588 194.932C94.2088 195.212 94.9247 195.595 95.6065 196.08C96.2959 196.557 96.8641 197.17 97.3111 197.92C97.7581 198.67 97.9815 199.591 97.9815 200.682C97.9815 201.939 97.652 203.076 96.9929 204.091C96.3414 205.106 95.3868 205.913 94.1293 206.511C92.8793 207.11 91.3603 207.409 89.5724 207.409C87.9058 207.409 86.4626 207.14 85.2429 206.602C84.0308 206.064 83.0762 205.314 82.3793 204.352C81.6899 203.39 81.2997 202.273 81.2088 201H84.1179C84.1937 201.879 84.4891 202.606 85.0043 203.182C85.527 203.75 86.1861 204.174 86.9815 204.455C87.7846 204.727 88.6482 204.864 89.5724 204.864C90.6482 204.864 91.6141 204.689 92.4702 204.341C93.3262 203.985 94.0043 203.492 94.5043 202.864C95.0043 202.227 95.2543 201.485 95.2543 200.636C95.2543 199.864 95.0384 199.235 94.6065 198.75C94.1747 198.265 93.6065 197.871 92.902 197.568C92.1974 197.265 91.4361 197 90.6179 196.773L87.7543 195.955C85.9361 195.432 84.4967 194.686 83.4361 193.716C82.3755 192.746 81.8452 191.477 81.8452 189.909C81.8452 188.606 82.1974 187.47 82.902 186.5C83.6141 185.523 84.5687 184.765 85.7656 184.227C86.9702 183.682 88.3149 183.409 89.7997 183.409C91.2997 183.409 92.633 183.678 93.7997 184.216C94.9664 184.746 95.8906 185.473 96.5724 186.398C97.2618 187.322 97.6255 188.371 97.6634 189.545H94.9361ZM113.251 199.864V189.545H115.933V207H113.251V204.045H113.07C112.661 204.932 112.024 205.686 111.161 206.307C110.297 206.92 109.206 207.227 107.888 207.227C106.797 207.227 105.827 206.989 104.979 206.511C104.13 206.027 103.464 205.299 102.979 204.33C102.494 203.352 102.251 202.121 102.251 200.636V189.545H104.933V200.455C104.933 201.727 105.289 202.742 106.001 203.5C106.721 204.258 107.638 204.636 108.751 204.636C109.418 204.636 110.096 204.466 110.786 204.125C111.482 203.784 112.066 203.261 112.536 202.557C113.013 201.852 113.251 200.955 113.251 199.864ZM121.209 207V183.727H123.891V192.318H124.118C124.315 192.015 124.588 191.629 124.936 191.159C125.292 190.682 125.8 190.258 126.459 189.886C127.125 189.508 128.027 189.318 129.163 189.318C130.633 189.318 131.929 189.686 133.05 190.42C134.171 191.155 135.046 192.197 135.675 193.545C136.304 194.894 136.618 196.485 136.618 198.318C136.618 200.167 136.304 201.769 135.675 203.125C135.046 204.473 134.175 205.519 133.061 206.261C131.947 206.996 130.663 207.364 129.209 207.364C128.088 207.364 127.19 207.178 126.516 206.807C125.841 206.428 125.322 206 124.959 205.523C124.595 205.038 124.315 204.636 124.118 204.318H123.8V207H121.209ZM123.845 198.273C123.845 199.591 124.038 200.754 124.425 201.761C124.811 202.761 125.375 203.545 126.118 204.114C126.86 204.674 127.769 204.955 128.845 204.955C129.966 204.955 130.902 204.659 131.652 204.068C132.41 203.47 132.978 202.667 133.357 201.659C133.743 200.644 133.936 199.515 133.936 198.273C133.936 197.045 133.747 195.939 133.368 194.955C132.997 193.962 132.432 193.178 131.675 192.602C130.925 192.019 129.982 191.727 128.845 191.727C127.754 191.727 126.838 192.004 126.095 192.557C125.353 193.102 124.792 193.867 124.413 194.852C124.035 195.83 123.845 196.97 123.845 198.273ZM140.72 207V189.545H143.311V192.273H143.538C143.902 191.341 144.489 190.617 145.3 190.102C146.11 189.58 147.084 189.318 148.22 189.318C149.372 189.318 150.33 189.58 151.095 190.102C151.868 190.617 152.47 191.341 152.902 192.273H153.084C153.531 191.371 154.201 190.655 155.095 190.125C155.989 189.587 157.061 189.318 158.311 189.318C159.872 189.318 161.148 189.807 162.141 190.784C163.133 191.754 163.629 193.265 163.629 195.318V207H160.947V195.318C160.947 194.03 160.595 193.11 159.891 192.557C159.186 192.004 158.357 191.727 157.402 191.727C156.175 191.727 155.224 192.098 154.55 192.841C153.875 193.576 153.538 194.508 153.538 195.636V207H150.811V195.045C150.811 194.053 150.489 193.254 149.845 192.648C149.201 192.034 148.372 191.727 147.357 191.727C146.66 191.727 146.008 191.913 145.402 192.284C144.804 192.655 144.319 193.17 143.947 193.83C143.584 194.481 143.402 195.235 143.402 196.091V207H140.72ZM168.533 207V189.545H171.214V207H168.533ZM169.896 186.636C169.374 186.636 168.923 186.458 168.544 186.102C168.173 185.746 167.987 185.318 167.987 184.818C167.987 184.318 168.173 183.89 168.544 183.534C168.923 183.178 169.374 183 169.896 183C170.419 183 170.866 183.178 171.237 183.534C171.616 183.89 171.805 184.318 171.805 184.818C171.805 185.318 171.616 185.746 171.237 186.102C170.866 186.458 170.419 186.636 169.896 186.636ZM183.717 189.545V191.818H174.672V189.545H183.717ZM177.308 185.364H179.99V202C179.99 202.758 180.1 203.326 180.32 203.705C180.547 204.076 180.835 204.326 181.183 204.455C181.539 204.576 181.914 204.636 182.308 204.636C182.604 204.636 182.846 204.621 183.036 204.591C183.225 204.553 183.376 204.523 183.49 204.5L184.036 206.909C183.854 206.977 183.6 207.045 183.274 207.114C182.948 207.189 182.536 207.227 182.036 207.227C181.278 207.227 180.536 207.064 179.808 206.739C179.089 206.413 178.49 205.917 178.013 205.25C177.543 204.583 177.308 203.742 177.308 202.727V185.364ZM197.115 207V183.727H211.07V186.227H199.933V194.091H210.024V196.591H199.933V207H197.115ZM221.342 207.364C219.767 207.364 218.384 206.989 217.195 206.239C216.013 205.489 215.089 204.439 214.422 203.091C213.763 201.742 213.433 200.167 213.433 198.364C213.433 196.545 213.763 194.958 214.422 193.602C215.089 192.246 216.013 191.193 217.195 190.443C218.384 189.693 219.767 189.318 221.342 189.318C222.918 189.318 224.297 189.693 225.479 190.443C226.668 191.193 227.592 192.246 228.251 193.602C228.918 194.958 229.251 196.545 229.251 198.364C229.251 200.167 228.918 201.742 228.251 203.091C227.592 204.439 226.668 205.489 225.479 206.239C224.297 206.989 222.918 207.364 221.342 207.364ZM221.342 204.955C222.539 204.955 223.524 204.648 224.297 204.034C225.07 203.42 225.642 202.614 226.013 201.614C226.384 200.614 226.57 199.53 226.57 198.364C226.57 197.197 226.384 196.11 226.013 195.102C225.642 194.095 225.07 193.28 224.297 192.659C223.524 192.038 222.539 191.727 221.342 191.727C220.145 191.727 219.161 192.038 218.388 192.659C217.615 193.28 217.043 194.095 216.672 195.102C216.301 196.11 216.115 197.197 216.115 198.364C216.115 199.53 216.301 200.614 216.672 201.614C217.043 202.614 217.615 203.42 218.388 204.034C219.161 204.648 220.145 204.955 221.342 204.955ZM233.345 207V189.545H235.936V192.182H236.118C236.436 191.318 237.012 190.617 237.845 190.08C238.679 189.542 239.618 189.273 240.663 189.273C240.86 189.273 241.107 189.277 241.402 189.284C241.697 189.292 241.921 189.303 242.072 189.318V192.045C241.982 192.023 241.773 191.989 241.447 191.943C241.129 191.89 240.792 191.864 240.436 191.864C239.588 191.864 238.83 192.042 238.163 192.398C237.504 192.746 236.982 193.231 236.595 193.852C236.216 194.466 236.027 195.167 236.027 195.955V207H233.345ZM245.251 207V189.545H247.842V192.273H248.07C248.433 191.341 249.02 190.617 249.831 190.102C250.642 189.58 251.615 189.318 252.751 189.318C253.903 189.318 254.861 189.58 255.626 190.102C256.399 190.617 257.001 191.341 257.433 192.273H257.615C258.062 191.371 258.732 190.655 259.626 190.125C260.52 189.587 261.592 189.318 262.842 189.318C264.403 189.318 265.679 189.807 266.672 190.784C267.664 191.754 268.161 193.265 268.161 195.318V207H265.479V195.318C265.479 194.03 265.126 193.11 264.422 192.557C263.717 192.004 262.888 191.727 261.933 191.727C260.706 191.727 259.755 192.098 259.081 192.841C258.407 193.576 258.07 194.508 258.07 195.636V207H255.342V195.045C255.342 194.053 255.02 193.254 254.376 192.648C253.732 192.034 252.903 191.727 251.888 191.727C251.191 191.727 250.539 191.913 249.933 192.284C249.335 192.655 248.85 193.17 248.479 193.83C248.115 194.481 247.933 195.235 247.933 196.091V207H245.251Z" fill="white"/>
</g>
<defs>
<filter id="filter0_d_559_867" x="77.2088" y="183" width="194.952" height="32.4092" filterUnits="userSpaceOnUse" color-interpolation-filters="sRGB">
<feFlood flood-opacity="0" result="BackgroundImageFix"/>
<feColorMatrix in="SourceAlpha" type="matrix" values="0 0 0 0 0 0 0 0 0 0 0 0 0 0 0 0 0 0 127 0" result="hardAlpha"/>
<feOffset dy="4"/>
<feGaussianBlur stdDeviation="2"/>
<feComposite in2="hardAlpha" operator="out"/>
<feColorMatrix type="matrix" values="0 0 0 0 0 0 0 0 0 0 0 0 0 0 0 0 0 0 0.25 0"/>
<feBlend mode="normal" in2="BackgroundImageFix" result="effect1_dropShadow_559_867"/>
<feBlend mode="normal" in="SourceGraphic" in2="effect1_dropShadow_559_867" result="shape"/>
</filter>
</defs>
</svg>
